<?xml version="1.0" encoding="UTF-8" standalone="no"?>
<!-- Generated by IcoMoon.io -->

<svg
   version="1.1"
   width="16"
   height="16"
   viewBox="0 0 16 16"
   id="svg1"
   sodipodi:docname="status-warning.svg"
   inkscape:version="1.3.2 (091e20e, 2023-11-25, custom)"
   xmlns:inkscape="http://www.inkscape.org/namespaces/inkscape"
   xmlns:sodipodi="http://sodipodi.sourceforge.net/DTD/sodipodi-0.dtd"
   xmlns="http://www.w3.org/2000/svg"
   xmlns:svg="http://www.w3.org/2000/svg">
  <defs
     id="defs1" />
  <sodipodi:namedview
     id="namedview1"
     pagecolor="#505050"
     bordercolor="#eeeeee"
     borderopacity="1"
     inkscape:showpageshadow="0"
     inkscape:pageopacity="0"
     inkscape:pagecheckerboard="0"
     inkscape:deskcolor="#505050"
     inkscape:zoom="54.0625"
     inkscape:cx="7.9907514"
     inkscape:cy="8"
     inkscape:window-width="1920"
     inkscape:window-height="1121"
     inkscape:window-x="-9"
     inkscape:window-y="-9"
     inkscape:window-maximized="1"
     inkscape:current-layer="svg1" />
  <title
     id="title1">status-warning</title>
  <path
     fill="#333333"
     d="M 15.179006,13.473509 8.8460058,1.5985087 c -0.172,-0.317 -0.502,-0.529 -0.882,-0.529 -0.38,0 -0.71,0.212 -0.88,0.524 l -0.003,0.005 -6.33300002,11.8750003 c -0.074,0.136 -0.118,0.298 -0.118,0.471 0,0.552 0.44800002,1 1.00000002,1 0,0 0,0 0,0 H 14.297006 c 0.552,0 1,-0.448 1,-1 0,-0.172 -0.044,-0.334 -0.12,-0.476 l 0.003,0.005 z m -6.2160002,-0.529 h -2 v -2 h 2 z m 0,-3.0000003 h -2 v -5 h 2 z"
     id="path1"
     style="fill:#ff9600;fill-opacity:1" />
</svg>
