<svg id="e2dc7e91-cb7b-4dec-9042-398ee82b73e6" data-name="content" xmlns="http://www.w3.org/2000/svg" viewBox="0 0 96 96" width="96" height="96">
    <title>flower_96</title>
    <g class="nc-icon-wrapper">
        <path d="M79.954 55.482c-3.529 4.716-7.598 9.273-11.481 11.514A20.541 20.541 0 0 1 58.25 69.82a15.74 15.74 0 0 1-9.053-2.703c2.287 4.29 7.604 7.3 13.802 7.3 10.5 0 30-12 30-12a141.004 141.004 0 0 0-13.046-6.935z" fill="#a3b2bc" />
        <path d="M27.519 67.021c-3.893-2.239-7.975-6.801-11.513-11.52A141.066 141.066 0 0 0 3 62.417s19.5 12 30 12c6.202 0 11.521-3.012 13.805-7.306a15.737 15.737 0 0 1-9.085 2.721 20.54 20.54 0 0 1-10.201-2.81z" fill="#a3b2bc" />
        <path d="M29.014 64.39a17.583 17.583 0 0 0 8.706 2.412 13.604 13.604 0 0 0 5.215-1.013c-6.028-.011-11.936-3.769-15.424-9.814-2.342-4.057-3.596-10.405-4.27-16.497-4.69-.398-9.038-.478-11.666-.478-1.614 0-2.58.029-2.58.029s10.918 20.125 20.02 25.362z" fill="#0091dc" />
        <path d="M41.515 62.706C36.486 59.796 33 53.636 33 46.5c0-4.697 2.098-10.842 4.567-16.468-6.212-4.337-12.058-7.508-12.058-7.508s-.648 22.887 4.6 31.982c2.715 4.705 7.095 7.65 11.406 8.2z" fill="#0091dc" />
        <path d="M53.065 65.817a13.61 13.61 0 0 0 5.186 1.003 17.568 17.568 0 0 0 8.722-2.423C76.068 59.15 86.96 39.01 86.96 39.01s-.897-.025-2.41-.025c-2.6 0-7.026.079-11.807.49-.673 6.104-1.924 12.464-4.27 16.53-3.487 6.04-9.386 9.794-15.408 9.812z" fill="#0091dc" />
        <path d="M54.394 62.712c4.336-.526 8.748-3.474 11.48-8.206 5.249-9.095 4.601-31.982 4.601-31.982a141.922 141.922 0 0 0-12.05 7.502C60.898 35.656 63 41.799 63 46.5c0 7.17-3.54 13.32-8.606 16.212z" fill="#0091dc" />
        <path d="M60 46.5c0-10.5-12-30-12-30S36 36 36 46.5c0 8.284 5.373 15 12 15s12-6.716 12-15z" fill="#0091dc" />
        <path fill="none" d="M0 0h96v96H0z" />
    </g>
</svg>