<svg xmlns="http://www.w3.org/2000/svg" xmlns:xlink="http://www.w3.org/1999/xlink" viewBox="0 0 266.38 240" xmlns:v="https://vecta.io/nano"><style><![CDATA[.V{stroke-width:.5}.W{stroke-linecap:round}.X{stroke-linejoin:round}.Y{stroke-miterlimit:10}.Z{stroke:#0095db}.a{stroke:#b6c0c6}.b{stroke-width:2}.c{fill:#b6c0c6}.d{stroke-width:3.072}]]></style><circle cx="133.19" cy="120.95" r="115.26" fill="#fff" class="Z d"/><path d="M50.92 139.6c-.4 0-.7-.32-.7-.7-3.08-.03-6.12-.28-9.3-.74L36 137.3l-.25-.05-4.6-.8a48.66 48.66 0 0 0-4.88-.39l-3.37-.02h-4.15c-.4 0-.7-.32-.7-.7V107c0-.4.32-.7.7-.7h4.15l3.37-.02a43.78 43.78 0 0 0 4.88-.39l4.86-.83 4.93-.85a67.56 67.56 0 0 1 9.3-.74c0-.4.32-.7.7-.7H90.9c.4 0 .7.32.7.7v35.43c0 .4-.32.7-.7.7H50.92z" fill="#c9e6f9"/><path d="M90.9 103.46v35.43H50.92v-.7c-3.33 0-6.6-.26-9.9-.74l-9.8-1.68a45.63 45.63 0 0 0-4.95-.39l-3.36-.02h-4.18V107h4.18l3.36-.02c1.66-.04 3.3-.17 4.95-.4l9.8-1.68c3.3-.48 6.57-.74 9.9-.74h.01v-.7H90.9m0-1.42H50.92c-.53 0-1 .3-1.23.72-2.93.05-5.84.3-8.88.74l-4.96.85-.3.06-4.53.77a44.8 44.8 0 0 1-4.8.38l-3.32.02h-4.18a1.42 1.42 0 0 0-1.42 1.42v28.35a1.42 1.42 0 0 0 1.42 1.42h4.18l3.32.02a44.8 44.8 0 0 1 4.8.38l4.53.77.3.06 4.95.85a69.65 69.65 0 0 0 8.88.74c.24.43.7.72 1.23.72h39.97a1.42 1.42 0 0 0 1.42-1.42v-35.43a1.41 1.41 0 0 0-1.41-1.42z" fill="#0095db"/><g fill="#fff"><path d="M51.05 132.5v5.67c-3.33 0-6.6-.26-9.9-.74l-9.8-1.68c-1.64-.22-3.3-.35-4.95-.4l-4.97-.03h-2.57v-5.66h3.68l8.36.3 5.03.78 5 .9c3.42.55 6.65.84 10.12.84z"/><path d="M51.05 125.42v5.67c-6.75 0-13.44-.65-20.15-1.1l-8.54-.3h-3.5V124h3.5c2.4 0 4.8.07 7.18.22l7.17.5 7.16.48c2.4.13 4.78.2 7.18.2z"/><path d="M51.05 118.34V124h-32.2c.01-.02 0-.03 0-.04v-5.63h32.2z"/><path d="M51.05 111.25v5.67l-7.18.22-7.16.47-7.17.5-7.18.22h-3.5v-5.67h3.68l8.36-.32c6.7-.45 13.4-1.1 20.15-1.1z"/></g><path d="M51.05 104.16v5.67c-3.47 0-6.7.3-10.12.84-1.67.27-3.34.6-5 .9-1.67.32-3.34.6-5.03.78l-8.36.32h-3.68V107h2.57l4.97-.02a48.09 48.09 0 0 0 4.95-.4c1.65-.22 3.27-.53 4.9-.84a116.57 116.57 0 0 1 4.9-.84c3.3-.48 6.57-.74 9.9-.74z" fill="#010202"/><g fill="none" class="Z X"><g class="W"><path d="m51.05 103.46h39.97" stroke-width="1.417"/><path d="M30.9 130l-8.36-.3m8.36-17.35l-8.36.32" class="V"/></g><path d="M51.05 138.18v.7h39.97v-36H51.05v29.62z" class="V"/><g class="W V"><path d="M18.86 107v5.67m32.2-2.84c-3.47 0-6.7.3-10.12.84-1.67.27-3.34.6-5 .9-1.67.32-3.34.6-5.03.78M18.86 107h2.57l4.97-.02a48.09 48.09 0 0 0 4.95-.4l9.8-1.68c3.3-.48 6.57-.74 9.9-.74m-32.2 14.18v-5.67"/><path d="M22.36 118.34h-3.5m0-5.67h3.5m.18 0h-.18m8.54-.32c6.7-.45 13.4-1.1 20.15-1.1m0 19.85c-6.75 0-13.44-.65-20.15-1.1m-12.04-6v5.67m3.5-5.67l7.18.22 7.17.5 7.16.48 7.18.2m-28.7 4.28h-3.5"/><path d="M18.86 135.34v-5.66m32.2 8.5c-3.33 0-6.6-.26-9.9-.74l-9.8-1.68c-1.64-.22-3.3-.35-4.95-.4l-4.97-.03h-2.57m0-11.33c.01-.02 0-.03 0-.04v-5.63m3.68 11.35h-.18"/><path d="M30.9 130l5.03.78 5 .9c3.42.55 6.65.84 10.12.84M22.36 124h-3.5m32.2 0h-28.7m.01-5.66h28.7m-.01-1.42l-7.18.22-7.16.47-7.17.5-7.18.22"/></g></g><g fill="#0095db"><path d="M51.05 94.6l44.24-.52c.28 0 .52.22.52.5 0 .28-.22.52-.5.52h-.01l-44.24-.5z"/><path d="M88.77 98.1l-.38-1.04 6.8-2.47-6.8-2.48.38-1.03 9.64 3.5z"/></g><path d="M231.07 101.67h-2.18v-2.23l-.04-.32-.02-.08-.06-.2-.12-.28-.12-.2-.04-.06-.2-.24-.06-.04-.3-.25-.06-.04-.2-.12-.28-.12-.2-.06h-.08l-.32-.04h-12.8l-.32-.04h-.08l-.2-.06-.28-.12-.2-.12-.06-.04-.3-.25-.25-.3-.04-.06-.12-.2-.12-.28-.06-.2-.02-.08-.04-.32-.01-20.23-.02-.3-.03-.3-.04-.3-.05-.3-.06-.28-.07-.28-.08-.28-.1-.28-.1-.27-.1-.27-.12-.26-.13-.26-.14-.26-.15-.25-.16-.25-.16-.24-.17-.23-.18-.23-.38-.44-.2-.2-.2-.2-.22-.2-.24-.17-.23-.18-.23-.17-.24-.16-.25-.16-.25-.15-.26-.14-.26-.13-.26-.12-.27-.1-.27-.1-.28-.1-.28-.08-.28-.07-.28-.06-.3-.05-.3-.04-.3-.03-.3-.02-.3-.01h-91l-.3.01-.3.02-.3.03-.3.04-.3.05-.28.06-.28.07-.28.08-.28.1-.27.1-.27.1-.26.12-.26.13-.26.14-.25.15-.25.16-.24.16-.23.17-.2.18-.44.38-.2.2-.2.2-.38.44-.18.23-.17.23-.16.24-.16.25-.15.25-.14.26-.13.26-.12.26-.1.27-.1.27-.1.28-.08.28-.07.28-.06.28-.05.3-.04.3-.03.3-.02.3v.3 19.9l.05.35.02.07.06.18.15.3.08.12.12.15.2.2.15.12.12.08.3.15.18.06.07.02.35.05h12.8l.27.03.1.02.24.06.24.1.03.03.24.12.28.2.07.06.24.24.06.07.2.28.16.32.1.24.04.16.04.18.03.27-.02 39.67-.02.16-.06.32-.08.32-.1.32-.12.3-.14.3-.16.28-.18.28-.2.26-.1.13-.22.24-14.43 14.43-.27.3-.24.33-.07.1-.07.12-.18.36-.1.26-.08.26-.1.4-.04.26-.02.28v7.48l.01.3.02.3.03.3.04.3.05.3.06.28.07.28.08.28.1.28.1.27.1.27.12.26.13.26.14.26.15.25.16.25.16.24.17.23.18.23.38.44.2.2.2.2.44.38.23.18.23.17.24.16.25.16.25.15.26.14.26.13.26.12.27.1.27.1.28.1.28.08.28.07.28.06.3.05.3.04.3.03.3.02.3.01 91.6-.04.3-.03.3-.04.3-.05.28-.06.28-.07.28-.08.28-.1.27-.1.27-.1.26-.12.26-.13.26-.14.25-.15.25-.16.24-.16.23-.17.23-.18.44-.38.2-.2.2-.2.38-.44.18-.23.17-.23.16-.24.16-.25.15-.25.14-.26.13-.26.12-.26.1-.27.1-.27.1-.28.08-.28.07-.28.06-.28.05-.3.04-.3.03-.3.02-.3.01-.3v-7.5l.01-.15.01-.14.04-.28.06-.28.08-.28.1-.28.18-.4.14-.26.16-.24.1-.12.18-.22.1-.1 14.64-14.64.1-.1.2-.24.18-.26.16-.26.14-.28.12-.28.02-.05h2.48v-38.56zM117.2 75.78l-.02.3-.04.3-.06.28-.08.28-.1.28-.06.14-.06.13-.14.26-.08.13-.08.12-.18.24-.1.1-.2.22-.1.1-.22.2-.24.18-.24.16-.13.08-.26.14-.13.06-.14.06-.28.1-.28.08-.28.06-.3.04-.3.02h-.3l-.3-.02-.3-.04-.28-.06-.28-.08-.28-.1-.14-.06-.13-.06-.26-.14-.13-.08-.24-.16-.24-.18-.22-.2-.1-.1-.2-.22-.1-.1-.18-.24-.08-.12-.08-.13-.14-.26-.06-.13-.06-.14-.1-.28-.08-.28-.06-.28-.04-.3-.02-.3v-.3l.02-.3.04-.3.03-.15.03-.14.08-.28.1-.28.06-.14.06-.13.2-.4.16-.24.18-.24.3-.33.22-.2.1-.1.24-.18.12-.08.13-.08.26-.14.26-.12.14-.06.28-.1.28-.08.14-.03.15-.03.3-.04.3-.02h.15l.3.02.3.04.15.03.14.03.28.08.42.15.14.06.13.06.26.14.13.08.12.08.24.18.1.1.22.2.3.33.18.24.16.24.2.4.06.13.06.14.1.28.08.28.03.14.03.15.04.3.02.3v.15l-.08.16zm0 90.7l-.02.3-.04.3-.06.28-.08.28-.1.28-.06.14-.06.13-.14.26-.08.13-.08.12-.18.24-.1.1-.2.22-.1.1-.22.2-.24.18-.24.16-.13.08-.26.14-.13.06-.14.06-.28.1-.28.08-.28.06-.3.04-.3.02h-.3l-.3-.02-.3-.04-.28-.06-.28-.08-.28-.1-.14-.06-.13-.06-.26-.14-.13-.08-.24-.16-.24-.18-.22-.2-.1-.1-.2-.22-.1-.1-.18-.24-.08-.12-.08-.13-.14-.26-.06-.13-.06-.14-.1-.28-.08-.28-.06-.28-.04-.3-.02-.3v-.3l.02-.3.04-.3.03-.15.03-.14.08-.28.1-.28.06-.14.06-.13.2-.4.16-.24.18-.24.3-.33.22-.2.1-.1.24-.18.12-.08.13-.08.26-.14.13-.06.14-.06.42-.15.28-.08.14-.03.15-.03.3-.04.3-.02h.15l.3.02.3.04.15.03.14.03.28.08.42.15.26.12.26.14.13.08.12.08.24.18.1.1.22.2.3.33.18.24.16.24.2.4.06.13.06.14.1.28.08.28.03.14.03.15.04.3.02.3v.15l-.08.15zm81.93-91l.02-.3.04-.3.03-.15.03-.14.08-.28.1-.28.06-.14.06-.13.2-.4.16-.24.18-.24.3-.33.22-.2.1-.1.24-.18.12-.08.13-.08.26-.14.26-.12.42-.15.28-.08.14-.03.15-.03.3-.04.3-.02h.15l.3.02.3.04.15.03.14.03.28.08.42.15.26.12.26.14.13.08.12.08.24.18.1.1.22.2.3.33.18.24.16.24.2.4.06.13.06.14.1.28.08.28.03.14.03.15.04.3.02.3v.3l-.02.3-.04.3-.06.28-.08.28-.1.28-.06.14-.06.13-.14.26-.08.13-.08.12-.18.24-.1.1-.2.22-.1.1-.22.2-.24.18-.24.16-.13.08-.26.14-.13.06-.14.06-.28.1-.28.08-.28.06-.3.04-.3.02h-.3l-.3-.02-.3-.04-.28-.06-.28-.08-.28-.1-.14-.06-.13-.06-.26-.14-.13-.08-.24-.16-.24-.18-.22-.2-.1-.1-.2-.22-.1-.1-.18-.24-.08-.12-.08-.13-.14-.26-.06-.13-.06-.14-.1-.28-.08-.28-.06-.28-.04-.3-.02-.3v-.15l-.07-.15zm-.28 31.02v-.12l.05-.3.06-.18.04-.1.18-.3.04-.05.2-.2.1-.08.3-.18.1-.04.18-.06.3-.05h.3l.3.05.18.06.1.04.3.18.1.08.2.2.04.05.18.3.04.1.06.18.05.3v.3l-.05.3-.06.18-.04.1-.18.3-.08.1-.2.2-.1.08-.25.15-.1.04-.24.08-.3.05h-.24l-.3-.05-.24-.08-.1-.04-.25-.15-.1-.08-.2-.2-.08-.1-.18-.3-.04-.1-.06-.18-.05-.3v-.12l.04-.06zm0 7.2v-.12l.05-.3.06-.18.04-.1.18-.3.08-.1.16-.16.1-.08.3-.18.1-.04.18-.06.3-.05h.3l.3.05.18.06.1.04.3.18.1.08.16.16.08.1.18.3.04.1.06.18.05.3v.3l-.05.3-.08.24-.02.05-.18.3-.08.1-.2.2-.1.08-.25.15-.1.04-.24.08-.3.05h-.24l-.3-.05-.24-.08-.1-.04-.25-.15-.1-.08-.2-.2-.08-.1-.18-.3-.02-.05-.08-.24-.05-.3v-.12l.04-.06zm0 7.2v-.12l.05-.3.06-.18.04-.1.18-.3.08-.1.16-.16.1-.08.3-.18.1-.04.18-.06.3-.05h.3l.3.05.18.06.1.04.3.18.1.08.16.16.08.1.18.3.04.1.06.18.05.3v.3l-.05.3-.08.24-.02.05-.18.3-.08.1-.2.2-.1.08-.25.15-.1.04-.24.08-.3.05h-.24l-.3-.05-.24-.08-.1-.04-.25-.15-.1-.08-.2-.2-.08-.1-.18-.3-.02-.05-.08-.24-.05-.3v-.12l.04-.06zm0 7.2v-.12l.05-.3.06-.18.04-.1.18-.3.08-.1.16-.16.1-.08.3-.18.1-.04.18-.06.3-.05h.3l.3.05.18.06.1.04.3.18.1.08.16.16.08.1.18.3.04.1.06.18.05.3v.3l-.05.3-.08.24-.02.05-.18.3-.08.1-.2.2-.1.08-.25.15-.1.04-.24.08-.3.05h-.24l-.3-.05-.24-.08-.1-.04-.25-.15-.1-.08-.2-.2-.08-.1-.18-.3-.02-.05-.08-.24-.05-.3v-.12l.04-.06zm-64.24 7.32v.06l-.05.3-.08.24-.02.05-.18.3-.08.1-.2.2-.1.08-.25.15-.1.04-.24.08-.3.05h-.24l-.24-.04-.03-.03-.24-.08-.1-.04-.25-.15-.1-.08-.2-.2-.08-.1-.18-.3-.02-.05-.08-.24-.05-.3v-.3l.05-.3.06-.18.04-.1.18-.3.08-.1.16-.16.1-.08.3-.18.1-.04.18-.06.3-.05h.3l.3.05.18.06.1.04.3.18.1.08.16.16.08.1.18.3.04.1.06.18.05.3v.18.08zm0-7.2v.06l-.05.3-.06.18-.04.1-.18.3-.08.1-.2.2-.1.08-.25.15-.1.04-.24.08-.3.05h-.24l-.3-.05-.24-.08-.1-.04-.25-.15-.1-.08-.2-.2-.08-.1-.18-.3-.04-.1-.06-.18-.05-.3v-.3l.05-.3.06-.18.04-.1.18-.3.04-.05.2-.2.1-.08.3-.18.1-.04.18-.06.3-.05h.3l.3.05.18.06.1.04.3.18.1.08.2.2.04.05.18.3.04.1.06.18.05.3v.18l.04.06zm0-7.2v.06l-.05.3-.06.18-.04.1-.18.3-.08.1-.2.2-.1.08-.25.15-.1.04-.24.08-.3.05h-.24l-.3-.05-.24-.08-.1-.04-.25-.15-.1-.08-.2-.2-.08-.1-.18-.3-.04-.1-.06-.18-.05-.3v-.3l.05-.3.06-.18.04-.1.18-.3.08-.1.16-.16.1-.08.3-.18.1-.04.18-.06.3-.05h.3l.3.05.18.06.1.04.3.18.1.08.16.16.08.1.18.3.04.1.06.18.05.3v.18l.04.06zm0-7.2v.06l-.05.3-.06.18-.04.1-.18.3-.08.1-.2.2-.1.08-.25.15-.1.04-.24.08-.3.05h-.24l-.3-.05-.24-.08-.1-.04-.25-.15-.1-.08-.2-.2-.08-.1-.18-.3-.04-.1-.06-.18-.05-.3v-.3l.05-.3.06-.18.04-.1.18-.3.08-.1.16-.16.1-.08.3-.18.1-.04.18-.06.3-.05h.3l.3.05.18.06.1.04.3.18.1.08.16.16.08.1.18.3.04.1.06.18.05.3v.18l.04.06zm0-7.2v.06l-.05.3-.08.24-.02.05-.18.3-.08.1-.2.2-.1.08-.25.15-.1.04-.24.08-.3.05h-.24l-.3-.05-.24-.08-.1-.04-.25-.15-.1-.08-.2-.2-.08-.1-.18-.3-.02-.05-.08-.24-.05-.3v-.3l.05-.3.06-.18.04-.1.18-.3.08-.1.16-.16.1-.08.3-.18.1-.04.18-.06.3-.05h.3l.3.05.18.06.1.04.3.18.1.08.16.16.08.1.18.3.04.1.06.18.05.3v.18l.04.06zm64.47 29.6l-.1-.15-.04-.1-.06-.18-.05-.3v-.3l.05-.3.06-.18.04-.1.18-.3.08-.1.16-.16.1-.08.3-.18.1-.04.18-.06.3-.05h.3l.3.05.18.06.1.04.3.18.1.08.16.16.08.1.18.3.04.1.06.18.05.3v.3l-.05.3-.06.18-.04.1-.18.3-.08.1-.2.2-.1.08-.25.15-.1.04-.24.08-.3.05h-.24l-.3-.05-.24-.08-.1-.04-.25-.15-.1-.08-.2-.2-.08-.1-.06-.1.01-.05zm8.55 30.28l-.02.3-.04.3-.06.28-.08.28-.1.28-.06.14-.06.13-.14.26-.08.13-.08.12-.18.24-.1.1-.2.22-.1.1-.22.2-.24.18-.24.16-.13.08-.26.14-.13.06-.14.06-.28.1-.28.08-.28.06-.3.04-.3.02h-.3l-.3-.02-.3-.04-.28-.06-.28-.08-.28-.1-.14-.06-.13-.06-.26-.14-.13-.08-.24-.16-.24-.18-.22-.2-.1-.1-.2-.22-.1-.1-.18-.24-.08-.12-.08-.13-.14-.26-.06-.13-.06-.14-.1-.28-.08-.28-.06-.28-.04-.3-.02-.3v-.3l.02-.3.04-.3.03-.15.03-.14.08-.28.1-.28.06-.14.06-.13.2-.4.16-.24.18-.24.3-.33.22-.2.1-.1.24-.18.12-.08.13-.08.26-.14.13-.06.14-.06.42-.15.28-.08.14-.03.15-.03.3-.04.3-.02h.15l.3.02.3.04.15.03.14.03.28.08.42.15.26.12.26.14.13.08.12.08.24.18.1.1.22.2.3.33.18.24.16.24.2.4.06.13.06.14.1.28.08.28.03.14.03.15.04.3v.3.15l-.08.15z" fill="#e7eaec"/><path d="M136.8 105.04h6.36v3.02h-6.36z" fill="#010202"/><path d="M138.22 111.9a1.8 1.8 0 0 1 1.04.33l-.18.3-.43-.23a1.29 1.29 0 0 0-.4-.06c-.22 0-.4.05-.5.15s-.18.24-.18.42c0 .14.04.25.13.33s.23.16.44.23l.17.05.22.07c.15.05.28.1.37.15s.17.12.24.2.13.17.17.28a.95.95 0 0 1 .06.32c0 .16-.04.3-.12.46a.93.93 0 0 1-.35.36c-.1.07-.23.13-.35.16s-.26.05-.42.05c-.2 0-.4-.02-.58-.07s-.35-.13-.52-.24l.18-.32a1.86 1.86 0 0 0 .44.23c.14.05.3.07.48.07.13 0 .24-.01.32-.03s.16-.06.23-.12c.16-.12.25-.3.25-.5 0-.3-.2-.5-.62-.64l-.17-.05-.18-.05a3.33 3.33 0 0 1-.37-.14c-.1-.04-.17-.1-.24-.17-.14-.15-.2-.34-.2-.56 0-.14.03-.28.08-.4a.79.79 0 0 1 .23-.31c.1-.1.2-.15.35-.2s.26-.07.43-.07zm3.08.04c.17 0 .33.02.47.07a1.87 1.87 0 0 1 .4.2l-.22.26c-.1-.08-.2-.13-.3-.17-.1-.03-.22-.05-.34-.05-.2 0-.37.05-.5.15s-.25.25-.33.44a1.6 1.6 0 0 0-.11.39c-.02.14-.04.32-.04.52a2.1 2.1 0 0 0 .03.4c.02.1.04.2.08.3.1.22.2.38.38.48.16.1.34.16.54.16.13 0 .24-.02.35-.05.1-.04.2-.1.32-.17l.22.27c-.14.1-.3.16-.46.2a2.08 2.08 0 0 1-.5.07 1.22 1.22 0 0 1-.54-.12c-.17-.08-.32-.2-.46-.34a1.51 1.51 0 0 1-.32-.58 2.73 2.73 0 0 1-.09-.72c0-.25.04-.5.1-.7a1.67 1.67 0 0 1 .3-.56 1.37 1.37 0 0 1 .46-.37c.18-.1.37-.1.58-.1zm1.52.06h.4v3.08h1.36l-.06.35h-1.7V112zm-5.97 7.2h.45l.72 2.2c.02.08.05.15.07.23l.06.23.05.2a.5.5 0 0 0 .03.12l.07-.25.14-.47.74-2.25h.42l-1.18 3.43H138l-1.15-3.43zm3.25 0h1.03c.1 0 .2.02.27.03.08.02.16.05.24.08a1.49 1.49 0 0 1 .24.14c.2.14.35.33.44.58s.14.54.14.88a2.46 2.46 0 0 1-.11.77 1.54 1.54 0 0 1-.28.51l-.23.2c-.08.06-.16.1-.24.13s-.18.06-.28.07H141h-.9v-3.43zm.4.33v2.76h.4l.26-.01c.08-.01.16-.02.24-.05a.84.84 0 0 0 .21-.11c.06-.05.12-.1.17-.2a1.55 1.55 0 0 0 .17-.44 2.12 2.12 0 0 0 .06-.52c0-.26-.02-.48-.06-.65s-.12-.33-.23-.47c-.06-.07-.1-.12-.17-.16l-.18-.1c-.07-.02-.13-.04-.2-.04s-.15-.01-.25-.01h-.42zm2.76-.33h1.04c.1 0 .2.02.28.03a2.25 2.25 0 0 1 .24.08 1.49 1.49 0 0 1 .24.14c.2.14.35.33.44.58s.14.54.14.88a2.46 2.46 0 0 1-.11.77 1.54 1.54 0 0 1-.28.51l-.23.2c-.08.06-.16.1-.24.13s-.18.06-.28.07h-.33-.9v-3.43zm.4.33v2.76h.4l.26-.01c.08-.01.16-.02.24-.05.08-.02.14-.06.2-.1s.12-.1.17-.2a1.55 1.55 0 0 0 .17-.44 2.12 2.12 0 0 0 .06-.52c0-.26-.02-.48-.06-.65s-.12-.33-.23-.47c-.06-.07-.1-.12-.17-.16l-.18-.1c-.06-.02-.13-.04-.2-.04s-.16-.01-.25-.01h-.42zm-5.44 6.77a1.8 1.8 0 0 1 1.04.33l-.18.3c-.17-.1-.3-.18-.43-.22a1.29 1.29 0 0 0-.4-.07c-.22 0-.4.05-.5.15s-.18.24-.18.42c0 .14.04.25.13.33s.23.16.44.22l.17.05.22.07c.15.05.28.1.37.15s.17.12.24.2.13.17.17.28a.95.95 0 0 1 .06.32c0 .16-.04.3-.12.46a1.03 1.03 0 0 1-.35.37c-.1.07-.23.13-.35.16s-.26.05-.42.05a2.14 2.14 0 0 1-.58-.08c-.18-.05-.35-.13-.52-.24l.18-.32a1.51 1.51 0 0 0 .44.22c.14.04.3.07.48.07.13 0 .24-.01.32-.03s.16-.06.23-.12c.16-.12.25-.3.25-.5 0-.3-.2-.5-.62-.64l-.17-.05-.18-.05a3.33 3.33 0 0 1-.37-.14c-.1-.04-.17-.1-.24-.17-.14-.15-.2-.34-.2-.56 0-.14.03-.28.08-.4a.79.79 0 0 1 .23-.31c.1-.1.2-.15.35-.2a2.21 2.21 0 0 1 .43-.05zm1.85.1h1.04c.1 0 .2.02.28.03a2.25 2.25 0 0 1 .24.08 1.49 1.49 0 0 1 .24.14c.2.14.35.33.44.58s.14.54.14.88a2.46 2.46 0 0 1-.11.77 1.54 1.54 0 0 1-.28.51l-.23.2c-.08.06-.16.1-.24.13s-.18.06-.28.07h-.33-.9v-3.43zm.4.33v2.75h.4l.26-.01c.08-.01.16-.02.24-.05.08-.02.14-.06.2-.1.06-.05.12-.1.17-.2a1.55 1.55 0 0 0 .17-.44 2.12 2.12 0 0 0 .06-.52c0-.26-.02-.48-.06-.65s-.12-.33-.23-.47c-.06-.07-.1-.12-.17-.16l-.18-.1c-.06-.03-.13-.04-.2-.04-.07-.01-.16-.01-.25-.01h-.42zm3.93-.33l1.13 3.43h-.46l-.33-1.05h-1.28l-.33 1.05h-.42l1.14-3.43h.55zm.24 2.04l-.53-1.68-.54 1.68h1.07zm-6.14 5.1c.36 0 .67.1.94.34l-.18.25c-.14-.1-.27-.17-.38-.2s-.23-.06-.37-.06a1.02 1.02 0 0 0-.53.14c-.15.1-.26.24-.33.44a2.65 2.65 0 0 0-.13.87 2.8 2.8 0 0 0 .06.61c.04.18.1.32.18.43s.2.2.35.27c.15.06.3.1.48.1.22 0 .4-.04.54-.13v-1.04h-.7l-.08-.34h1.16v1.6a1.62 1.62 0 0 1-.44.19c-.17.05-.34.07-.52.07-.44 0-.8-.14-1.06-.43-.15-.16-.26-.35-.32-.56-.07-.2-.1-.47-.1-.77 0-.33.04-.62.13-.85a1.51 1.51 0 0 1 .4-.59c.24-.22.54-.33.9-.33zm2.04.05h.47l1.14 2.2.13.26c.05.1.07.16.1.23l.07.17c.02.04.02.03.02-.03-.01-.06-.01-.14-.02-.24l-.01-.34-.01-.37-.01-1.87h.4v3.43h-.43l-1.1-2.1a4.37 4.37 0 0 1-.16-.3l-.12-.26c-.04-.08-.06-.14-.08-.2s-.03-.04-.02.01l.01.22.02.3a3.53 3.53 0 0 1 .01.33l.02 2h-.42v-3.43zm3.32 0h1.03c.1 0 .2.02.27.03.08.02.16.05.24.08a1.49 1.49 0 0 1 .24.14c.2.14.35.33.44.58s.14.54.14.88a2.46 2.46 0 0 1-.11.77 1.54 1.54 0 0 1-.28.51l-.23.2c-.08.06-.16.1-.24.13s-.18.06-.28.07h-.33-.9v-3.43zm.4.33v2.75h.4l.26-.01c.08-.01.16-.02.24-.05.08-.02.14-.06.2-.1.06-.05.12-.1.17-.2a1.55 1.55 0 0 0 .17-.44 2.12 2.12 0 0 0 .06-.52c0-.26-.02-.48-.06-.65s-.12-.33-.23-.47c-.06-.07-.1-.12-.17-.16l-.18-.1c-.07-.02-.13-.04-.2-.04-.07-.01-.15-.01-.25-.01h-.42z"/><g fill="#e7eaec"><use xlink:href="#B"/><use xlink:href="#B" y="-7.2"/><use xlink:href="#C"/><use xlink:href="#B" y="-21.6"/><use xlink:href="#D"/><use xlink:href="#E"/><use xlink:href="#F"/><use xlink:href="#G"/><use xlink:href="#G" y="7.2"/><use xlink:href="#H"/></g><g fill="#fff"><use xlink:href="#B"/><use xlink:href="#B" y="-7.2"/><use xlink:href="#C"/><use xlink:href="#B" y="-21.6"/><use xlink:href="#D"/><use xlink:href="#E"/><use xlink:href="#F"/><use xlink:href="#G"/><use xlink:href="#G" y="7.2"/><use xlink:href="#H"/></g><path d="M200.54 106.55h3.72m-3.72 7.2h3.72m-3.72 7.2h3.72m-3.72 7.2h3.72m-3.72 7.2h3.72" fill="none" class="W Y a b"/><path d="M204.26 101.67h26.8v38.55h-26.8z" class="c"/><path d="M132.9 106.55h-28.46m28.46 7.2h-28.46m28.46 7.2h-28.46m28.46 7.2h-28.46m28.46 7.2h-28.46" fill="none" class="W Y a b"/><path d="M121.47 103.3h7.2v35.3h-7.2z" class="c"/><path d="M170.78 166.35v.1l-.03.3-.04.2v.1l-.1.3-.12.27-.05.08-.05.1-.1.16-.18.24-.07.07-.06.07-.07.07-.07.06-.08.07-.08.06-.07.06-.08.05-.1.06-.08.05-.1.04-.08.05-.18.08-.1.03-.18.06-.1.02-.1.03-.1.02h-.1l-.3.03H148l-.3-.03h-.1l-.1-.02-.1-.03-.1-.02-.3-.1-.18-.08-.08-.05-.1-.04-.08-.05-.1-.06-.08-.05-.08-.06-.07-.06-.08-.07-.07-.06-.14-.14-.06-.07-.18-.24-.05-.08-.06-.08-.04-.1-.05-.08-.12-.27-.1-.3-.06-.3v-.1l-.02-.2v-.3l.03-.3.06-.3.03-.1.06-.18.12-.27.1-.18.06-.1.05-.08.06-.08.06-.07.06-.08.06-.07.2-.2.08-.06.07-.06.16-.12.1-.05.08-.05.18-.1.18-.08.1-.03.1-.04.1-.02.1-.03.2-.04h.1l.2-.02 20.33.01.1.01h.1l.2.04.1.03.1.02.1.04.1.03.18.08.18.1.08.05.1.05.08.06.07.06.16.12.14.14.06.07.07.07.06.08.06.07.06.08.05.08.05.1.05.08.05.1.12.27.06.18.03.1v.1l.04.2.03.3v.1zm0-90.7v.1l-.03.3-.04.2v.1l-.1.3-.12.27-.05.08-.05.1-.1.16-.18.24-.07.07-.06.07-.14.14-.16.12-.07.06-.08.05-.1.06-.08.05-.1.04-.08.05-.18.08-.1.03-.18.06-.1.03-.2.04h-.1l-.3.03H148l-.3-.03h-.1l-.2-.04-.18-.06-.2-.06-.18-.08-.08-.05-.1-.04-.08-.05-.1-.06-.08-.05-.08-.06-.07-.06-.08-.06-.2-.2-.06-.07-.18-.24-.05-.08-.06-.08-.04-.1-.05-.08-.12-.27-.1-.3-.06-.3v-.1l-.02-.2v-.3l.02-.2v-.1l.06-.3.03-.1.06-.18.12-.27.1-.18.06-.08.05-.1.06-.08.06-.07.06-.08.06-.07.2-.2.08-.06.07-.06.16-.12.1-.05.08-.05.18-.1.18-.08.2-.06.18-.06.2-.04h.1l.1-.02h.1l.1-.01 20.23.01.1.02h.1l.2.04.1.03.18.06.1.03.18.08.18.1.08.05.1.05.08.06.07.06.16.12.14.14.06.07.07.07.06.08.06.07.06.08.05.1.1.16.05.1.12.27.06.18.03.1v.1l.04.2.03.3v.1z" fill="#fff"/><circle cx="133.19" cy="120.95" r="115.26" fill="none" class="Z d"/><path d="M156.63 117.64h6.56v11.1h-6.56zm14.75-17.26h7.96v2.9h-7.96zm0 24.62h7.96v2.9h-7.96zm0-13.13h7.96v4.62h-7.96zm0 22.5h7.96v2.9h-7.96z" fill="#d0d6da"/><g fill="#fff"><circle cx="159.91" cy="125.87" r="1.64"/><path d="M158.95 120h2.08" stroke="#fff" class="W Y b"/></g><g fill="none" class="Y"><path d="M154.77 115.94h10.28v14.5h-10.28z" stroke="#d0d6da"/><g class="V W a"><path d="M124.66 161.43v2.37a.56.56 0 0 0 .56.56h7.4a.56.56 0 0 0 .56-.56v-7.4a.56.56 0 0 0-.56-.56h-7.4a.56.56 0 0 0-.56.56v2.37"/><path d="M126.93 161.25l1.98-1.14m-1.98-1.14l1.98 1.14m-.01-.01h-7.44"/></g></g><path d="M123.24 166.38h.53v4.26h-.53v-4.26zm2 .54c.01.18-.13.32-.34.32a.31.31 0 0 1-.32-.32.33.33 0 1 1 .66 0zm-.6 3.72v-2.9h.53v2.9h-.53zm3.92-2.9l-.02.8v1.68c0 .67-.13 1.07-.4 1.33s-.7.35-1.06.35c-.35 0-.73-.08-.97-.24l.13-.4a1.68 1.68 0 0 0 .85.23c.54 0 .94-.28.94-1v-.32h-.01c-.16.27-.47.5-.92.5-.72 0-1.24-.6-1.24-1.42 0-.98.64-1.54 1.3-1.54.5 0 .78.26.9.5h.01v-.44h.46zm-.55 1.14c0-.1-.01-.17-.03-.24-.1-.3-.35-.56-.74-.56-.5 0-.86.43-.86 1.1 0 .57.3 1.04.86 1.04.32 0 .62-.2.73-.54.03-.1.04-.2.04-.28v-.52zm1.4-2.5h.53v1.8h.01c.08-.15.22-.28.38-.37s.34-.15.54-.15c.4 0 1 .24 1 1.24v1.73h-.53v-1.67c0-.47-.17-.86-.67-.86-.34 0-.6.24-.7.53-.03.07-.04.15-.04.25v1.75h-.53v-4.26zm3.94.52v.83h.76v.4h-.76v1.57c0 .36.1.56.4.56.14 0 .24-.02.3-.04l.02.4c-.1.04-.26.07-.47.07-.25 0-.44-.08-.57-.22-.15-.16-.2-.4-.2-.76v-1.58h-.45v-.4h.45v-.7l.5-.13z" class="c"/><defs ><path id="B" d="M134.6 135.42v.06l-.03.18-.01.05-.01.06-.04.12-.02.05-.02.06-.02.05-.03.05-.02.06-.1.15-.04.05-.03.04-.04.05-.04.04-.04.05-.04.04-.05.04-.04.04-.05.03-.04.04-.2.12-.06.03-.05.02-.06.03-.05.02-.06.02-.05.01-.06.02-.12.02-.05.01-.06.01h-.06l-.06.01h-.12l-.06-.01h-.06l-.05-.01-.18-.03-.06-.02-.05-.01-.06-.02-.05-.02-.06-.03-.05-.02-.05-.03-.06-.03-.1-.06-.04-.03-.05-.04-.05-.03-.04-.04-.05-.04-.04-.04-.04-.05-.04-.04-.03-.05-.04-.04-.03-.05-.04-.05-.06-.1v-.06l-.03-.05-.02-.05-.02-.06-.02-.05-.04-.12-.01-.06-.01-.05-.03-.18v-.24l.01-.05v-.06l.02-.12.02-.06.01-.05.04-.12.02-.05.02-.06.02-.05.03-.05.03-.06.06-.1.03-.04.04-.05.03-.05.04-.04.04-.05.04-.04.05-.04.04-.04.05-.04.04-.03.05-.04.2-.12.06-.02.05-.03.05-.02.12-.04.05-.02.18-.03.05-.01.06-.01h.3l.12.02.05.01.12.02.06.02.05.02.06.02.05.02.06.03.05.02.2.12.05.04.05.03.04.04.05.04.08.08.04.05.04.04.03.05.04.05.03.04.06.1.03.06.03.05.02.05.02.06v.05l.04.12.02.05.03.18v.06.05.12z"/><path id="C" d="M134.6 121.02v.06l-.03.18-.01.05-.01.06-.04.12-.02.05-.02.06-.02.05-.03.05-.02.06-.1.15-.04.05-.03.04-.04.05-.04.04-.04.05-.04.04-.05.04-.04.04-.05.03-.04.04-.2.12-.06.03-.05.02-.06.03-.05.02-.06.02-.05.01-.06.02-.12.02-.05.01-.06.01h-.06l-.06.01h-.12l-.06-.01h-.06l-.05-.01-.18-.03-.06-.02-.05-.01-.06-.02-.05-.02-.06-.03-.05-.02-.05-.03-.06-.03-.1-.06-.04-.03-.05-.04-.05-.03-.04-.04-.05-.04-.04-.04-.04-.05-.04-.04-.03-.05-.04-.04-.03-.05-.04-.05-.06-.1v-.06l-.03-.05-.02-.05-.02-.06-.02-.05-.04-.12-.01-.06-.01-.05-.03-.18v-.23l.01-.06v-.06l.02-.12.02-.06.01-.05.04-.12.02-.05.02-.06.02-.05.03-.05.03-.06.06-.1.03-.04.04-.05.03-.05.04-.04.04-.05.04-.04.05-.04.04-.04.05-.04.04-.03.05-.04.2-.12.06-.02.05-.03.05-.02.12-.04.05-.02.18-.03.05-.01.06-.01h.3l.12.02.05.01.12.02.06.02.05.02.06.02.05.02.06.03.05.02.2.12.05.04.05.03.04.04.05.04.08.08.04.05.04.04.03.05.04.05.03.04.06.1.03.06.03.05.02.05.02.06v.05l.04.12.02.05.03.18v.06.06.1z"/><path id="D" d="M134.6 106.62v.06l-.03.18-.01.05-.01.06-.04.12-.02.05-.02.06-.02.05-.03.05-.02.06-.1.15-.04.05-.03.04-.04.05-.04.04-.04.05-.04.04-.05.04-.04.04-.05.03-.04.04-.2.12-.06.03-.05.02-.06.03-.05.02-.06.02-.05.01-.06.02-.12.02-.05.01-.12.02h-.24l-.06-.01-.05-.01-.18-.03-.06-.02-.05-.01-.06-.02-.05-.02-.06-.03-.05-.02-.05-.03-.06-.03-.1-.06-.04-.03-.05-.04-.05-.03-.04-.04-.05-.04-.04-.04-.04-.05-.04-.04-.03-.05-.04-.04-.03-.05-.04-.05-.06-.1v-.06l-.03-.05-.02-.05-.02-.06-.02-.05-.04-.12-.01-.06-.01-.05-.03-.18v-.24l.01-.05v-.06l.02-.12.02-.06.01-.05.04-.12.02-.05.02-.06.02-.05.03-.05.03-.06.06-.1.03-.04.04-.05.03-.05.04-.04.04-.05.04-.04.05-.04.04-.04.05-.04.04-.03.05-.04.2-.12.06-.03.1-.04.12-.04.05-.02.18-.03.05-.01.06-.01h.3l.12.02.05.01.12.02.06.02.05.02.06.02.05.02.06.02.25.15.05.04.05.03.04.04.05.04.08.08.04.05.04.04.03.05.04.05.03.04.06.1.03.06.03.05.02.05.02.06v.05l.04.12.02.05.03.18v.06.05.12z"/><path id="E" d="M198.85 113.7v-.1l.04-.24v-.05l.01-.06.02-.06.02-.05.02-.06.03-.05.02-.05.03-.06.06-.1.04-.04.03-.05.04-.05.04-.04.04-.05.12-.12.05-.04.05-.03.04-.04.15-.1.06-.03.05-.02.05-.03.06-.02.05-.02.12-.04h.05l.24-.04h.3l.24.04h.05l.12.04.05.02.06.02.05.03.05.02.06.03.15.1.04.04.05.03.05.04.12.12.04.05.04.04.04.05.03.05.04.04.06.1.03.06.02.05.03.05.02.06.02.05.02.06.01.06.02.05.04.24v.05l.01.06v.06l-.01.06v.12l-.02.12-.01.05v.06l-.01.06-.02.06-.02.05-.02.06-.03.05-.02.05-.03.06-.12.2-.04.04-.04.05-.04.04-.04.05-.08.08-.05.04-.04.03-.05.04-.25.15-.06.02-.05.03-.06.02-.05.02-.06.01-.06.02h-.05l-.24.04h-.23l-.24-.04h-.05l-.06-.02-.06-.01-.05-.02-.06-.02-.05-.03-.06-.02-.25-.15-.05-.04-.04-.03-.05-.04-.08-.08-.04-.05-.04-.04-.04-.05-.04-.04-.12-.2-.03-.06-.02-.05-.03-.05-.02-.06-.02-.05-.02-.06v-.06l-.02-.06-.01-.05-.01-.06v-.06l-.01-.06v-.06l-.01-.06z"/><path id="F" d="M198.84 106.56l.01-.06v-.1l.04-.24v-.05l.01-.06.02-.06.02-.05.02-.06.03-.05.02-.05.03-.06.06-.1.04-.04.03-.05.04-.05.04-.04.04-.05.12-.12.05-.04.05-.03.04-.04.15-.1.06-.03.05-.02.05-.03.06-.02.05-.02.12-.04h.05l.24-.04h.3l.24.04h.05l.12.04.05.02.06.02.05.03.05.02.06.03.15.1.04.04.05.03.05.04.12.12.04.05.04.04.04.05.03.05.04.04.06.1.03.06.02.05.03.05.02.06.02.05.02.06.01.06.02.05.04.24v.05l.01.06v.06l-.01.06v.12l-.02.12-.01.05v.06l-.01.06-.02.06-.02.05-.02.06-.03.05-.02.05-.03.06-.12.2-.04.04-.04.05-.04.04-.04.05-.08.08-.05.04-.04.03-.05.04-.25.15-.06.02-.05.03-.06.02-.05.02-.06.01-.06.02h-.05l-.24.04h-.23l-.24-.04h-.05l-.06-.02-.06-.01-.05-.02-.06-.02-.05-.03-.06-.02-.25-.15-.05-.04-.04-.03-.05-.04-.08-.08-.04-.05-.04-.04-.04-.05-.04-.04-.12-.2-.03-.06-.02-.05-.03-.05-.02-.06-.02-.05-.02-.06v-.06l-.02-.06-.01-.05-.01-.06v-.06l-.01-.06v-.06z"/><path id="G" d="M198.85 120.9v-.1l.04-.24v-.05l.01-.06.02-.06.02-.05.02-.06.03-.05.02-.05.03-.06.06-.1.04-.04.03-.05.04-.05.04-.04.04-.05.12-.12.05-.04.05-.03.04-.04.15-.1.06-.03.05-.02.05-.03.06-.02.05-.02.12-.04h.05l.24-.04h.3l.24.04h.05l.12.04.05.02.06.02.05.03.05.02.06.03.15.1.04.04.05.03.05.04.12.12.04.05.04.04.04.05.03.05.04.04.06.1.03.06.02.05.03.05.02.06.02.05.02.06.01.06.02.05.04.24v.06l.01.05v.06l-.01.06v.12l-.02.12-.01.05v.06l-.01.06-.02.06-.02.05-.02.06-.03.05-.02.05-.03.06-.12.2-.04.04-.04.05-.04.04-.04.05-.08.08-.05.04-.04.03-.05.04-.25.15-.06.02-.05.03-.06.02-.05.02-.06.01-.06.02h-.05l-.24.04h-.23l-.24-.04h-.05l-.06-.02-.06-.01-.05-.02-.06-.02-.05-.03-.06-.02-.25-.15-.05-.04-.04-.03-.05-.04-.08-.08-.04-.05-.04-.04-.04-.05-.04-.04-.12-.2-.03-.06-.02-.05-.03-.05-.02-.06-.02-.05-.02-.06v-.06l-.02-.06-.01-.05-.01-.06v-.06l-.01-.06v-.06l-.01-.06z"/><path id="H" d="M198.84 135.3l.01-.05v-.06l.04-.24v-.05l.01-.06.02-.06.02-.05.02-.06.03-.05.02-.05.03-.06.06-.1.04-.04.03-.05.04-.05.04-.04.04-.05.12-.12.05-.04.05-.03.04-.04.15-.1.06-.03.05-.02.05-.03.06-.02.05-.02.12-.04h.05l.24-.04h.3l.24.04h.05l.12.04.05.02.06.02.05.03.05.02.06.03.15.1.04.04.05.03.05.04.12.12.04.05.04.04.04.05.03.05.04.04.06.1.03.06.02.05.03.05.02.06.02.05.02.06.01.06.02.05.04.24v.06l.01.05v.06l-.01.06v.12l-.02.12-.01.05v.06l-.01.06-.02.06-.02.05-.02.06-.03.05-.02.05-.03.06-.12.2-.04.04-.04.05-.04.04-.04.05-.08.08-.05.04-.04.03-.05.04-.25.15-.06.02-.05.03-.06.02-.05.02-.06.01-.06.02h-.05l-.18.03h-.06l-.06.01h-.1l-.06-.01h-.06l-.18-.03h-.05l-.06-.02-.06-.01-.05-.02-.06-.02-.05-.03-.06-.02-.25-.15-.05-.04-.04-.03-.05-.04-.08-.08-.04-.05-.04-.04-.04-.05-.04-.04-.12-.2-.03-.06-.02-.05-.03-.05-.02-.06-.02-.05-.02-.06v-.06l-.02-.06-.01-.05-.01-.06v-.06l-.01-.06v-.06l-.01-.06z"/></defs></svg>