<svg xmlns="http://www.w3.org/2000/svg" width="1024" height="192" viewBox="-0.761 -0.761 143.225 26.878"  xmlns:v="https://vecta.io/nano"><path d="M119.5 25.356c-2.83 0-5.123-2.27-5.123-5.07V5.07c0-2.8 2.294-5.07 5.123-5.07h17.074c2.828 0 5.12 2.27 5.12 5.07v15.214c0 2.8-2.292 5.07-5.12 5.07H119.5zm-118.656 0A.85.85 0 0 1 0 24.51V.845A.85.85 0 0 1 .854 0h23.9a.85.85 0 0 1 .855.845v3.38a.85.85 0 0 1-.855.845H7.683a.85.85 0 0 0-.854.845v3.38a.85.85 0 0 0 .854.845H23.05a.85.85 0 0 1 .854.845v3.38a.85.85 0 0 1-.854.844H7.683a.85.85 0 0 0-.854.846v8.45a.85.85 0 0 1-.854.846H.854zM27.316.845A.85.85 0 0 1 28.17 0h25.6a.85.85 0 0 1 .852.845v3.38a.85.85 0 0 1-.852.845H35a.85.85 0 0 0-.854.845v3.38a.85.85 0 0 0 .854.845h17.074a.85.85 0 0 1 .854.845v3.38a.85.85 0 0 1-.854.844H35a.85.85 0 0 0-.854.846v3.38a.85.85 0 0 0 .854.845h18.78c.47 0 .852.378.852.844v3.38a.85.85 0 0 1-.852.846h-25.6a.85.85 0 0 1-.854-.846V.845zm29.024 9.298c0 2.8 2.294 5.07 5.12 5.07h13.66c.942 0 1.71.758 1.71 1.69v1.7c0 .934-.766 1.69-1.71 1.69H64.022a.85.85 0 0 1-.854-.845.85.85 0 0 0-.852-.846h-5.123a.85.85 0 0 0-.854.846v.845c0 2.8 2.294 5.07 5.12 5.07h17.074c2.83 0 5.12-2.27 5.12-5.07v-5.072c0-2.8-2.293-5.07-5.12-5.07h-13.66a1.7 1.7 0 0 1-1.707-1.69V6.76a1.7 1.7 0 0 1 1.707-1.69h11.097a.85.85 0 0 1 .855.845.85.85 0 0 0 .853.845h5.123c.47 0 .852-.378.852-.845V5.07c0-2.8-2.293-5.07-5.12-5.07H61.46c-2.828 0-5.12 2.27-5.12 5.07v5.07zM85.364.845A.85.85 0 0 1 86.219 0h25.61a.85.85 0 0 1 .853.845v3.38a.85.85 0 0 1-.853.845H103.3a.85.85 0 0 0-.853.845V24.5a.85.85 0 0 1-.854.846H96.46a.85.85 0 0 1-.854-.846V5.916a.85.85 0 0 0-.854-.845H86.22a.85.85 0 0 1-.855-.845V.845zm37.56 19.44a1.7 1.7 0 0 1-1.707-1.691V6.76c0-.934.764-1.7 1.707-1.7h10.244c.944 0 1.708.756 1.708 1.7v11.833a1.7 1.7 0 0 1-1.708 1.691h-10.244" fill="#09f" fill-rule="evenodd"/></svg>