<svg xmlns="http://www.w3.org/2000/svg" viewBox="0 0 134.8 134.8"  xmlns:v="https://vecta.io/nano"><path d="M131.77 44.37v-.08l-.04-.32-.02-.08-.06-.2-.12-.28-.12-.2-.04-.06-.25-.3-.3-.25-.06-.04-.2-.12-.28-.12-.2-.06-.08-.02-.32-.04h-12.8l-.32-.04-.08-.02-.2-.06-.28-.12-.2-.12-.06-.04-.3-.25-.25-.3-.04-.06-.12-.2-.12-.28-.06-.2-.02-.08-.04-.32-.01-20.2-.02-.3-.03-.3-.04-.3-.05-.3-.06-.28-.07-.28-.08-.28-.1-.28-.1-.27-.1-.27-.12-.26-.13-.26-.14-.26-.15-.25-.16-.25-.16-.24-.17-.23-.18-.23-.38-.44-.2-.2-.2-.2-.44-.38-.23-.18-.23-.17-.24-.16-.25-.16-.25-.15-.26-.14-.26-.13-.26-.12-.27-.1-.27-.1-.28-.1-.28-.08-.28-.07-.28-.06-.3-.05-.3-.04-.3-.03-.3-.02-.3-.01H15.54l-.3.01-.3.02-.3.03-.3.04-.3.05-.28.06-.28.07-.28.08-.28.1-.27.1-.27.1-.26.12-.26.13-.26.14-.25.15-.25.16-.24.16-.23.17-.23.18-.44.38-.2.2-.2.2-.38.44-.16.24-.17.23-.16.24-.16.25-.15.25-.14.26-.13.26-.12.26-.1.27-.1.27-.1.28-.08.28-.07.28-.06.28-.05.3-.04.3-.03.3-.02.3-.01.3v19.9l.05.35.02.07.06.18.15.3V41l.04.06.12.15.2.2.15.12.12.08.3.15.18.06.07.02.35.05h12.8l.27.03.1.02.24.06.24.1.32.16.28.2.07.06.24.24.06.07.2.28.16.32.1.24.04.16.04.18.03.27-.02 39.67-.02.16-.06.32-.08.32-.1.32-.06.16-.06.15-.14.3-.16.28-.18.28-.2.26-.1.13-.22.24L8.5 101.3l-.27.3-.24.33-.07.1-.07.12-.18.36-.1.26-.08.26-.1.4-.04.26-.02.28v7.48l.01.3.02.3.03.3.04.3.05.3.06.28.07.28.08.28.13.26.1.27.1.27.12.26.13.26.14.26.15.25.16.25.16.24.17.23.18.23.38.44.2.2.2.2.44.38.23.18.23.17.24.16.25.16.25.15.26.14.26.13.26.12.27.1.27.1.28.1.28.08.28.07.28.06.3.05.3.04.3.03h.3l.3.01 91.6-.04.3-.03.3-.04.3-.05.28-.06.28-.07.28-.08.28-.1.27-.1.27-.1.26-.12.26-.13.26-.14.25-.15.25-.16.24-.16.23-.17.23-.18.44-.38.2-.2.2-.2.38-.44.18-.23.17-.23.16-.24.16-.25.15-.25.14-.26.13-.26.12-.26.1-.27.1-.27.1-.28.08-.28.07-.28.06-.28.05-.3.04-.3.03-.3.02-.3.01-.3v-7.5l.01-.15.01-.14.04-.28.06-.28.08-.28.1-.28.18-.4.14-.26.16-.24.1-.12.18-.22.1-.1 14.64-14.64.1-.1.2-.24.18-.26.16-.26.14-.28.12-.28.1-.3.08-.3.06-.3.04-.3.02-.3V44.45l.02-.08zM20.08 20.62l-.02.3-.04.3-.06.28-.08.28-.1.28-.06.14-.06.13-.14.26-.08.13-.08.12-.18.24-.1.1-.2.22-.1.1-.22.2-.24.18-.24.16-.13.08-.26.14-.13.06-.14.06-.28.1-.15.04-.14.04-.28.06-.3.04-.3.02h-.3l-.3-.02-.3-.04-.28-.06-.28-.08-.28-.1-.14-.06-.13-.06-.26-.14-.13-.08-.24-.16-.24-.18-.1-.1-.1-.1-.1-.1-.2-.22-.1-.1-.18-.24-.08-.12-.08-.13-.14-.26-.06-.13-.06-.14-.1-.28-.08-.28-.06-.28-.04-.3-.02-.3v-.3l.02-.3.04-.3.03-.15.03-.14.08-.28.1-.28.06-.14.06-.13.2-.4.16-.24.18-.24.3-.33.22-.2.1-.1.24-.18.12-.08.13-.08.26-.14.26-.12.14-.06.28-.1.28-.08.14-.03.15-.03.3-.04.3-.02h.15l.3.02.3.04.15.03.14.03.28.08.42.15.14.06.13.06.26.14.13.08.12.08.24.18.1.1.22.2.3.33.18.24.16.24.2.4.06.13.06.14.1.28.08.28-.04.18.03.15.04.3.02.3v.15l-.01.12zm0 90.7l-.02.3-.04.3-.06.28-.08.28-.1.28-.06.14-.06.13-.14.26-.08.13-.08.12-.18.24-.1.1-.2.22-.1.1-.22.2-.24.18-.24.16-.13.08-.26.14-.13.06-.14.06-.28.1-.15.04-.14.04-.28.06-.3.04-.3.02h-.3l-.3-.02-.3-.04-.28-.06-.28-.08-.28-.1-.14-.06-.13-.06-.26-.14-.13-.08-.24-.16-.24-.18-.22-.2-.1-.1-.2-.22-.1-.1-.18-.24-.08-.12-.08-.13-.14-.26-.06-.13-.06-.14-.1-.28-.08-.28-.06-.28-.04-.3v-.3-.3-.3l.04-.3.03-.15.03-.14.08-.28.1-.28.06-.14.06-.13.2-.4.16-.24.18-.24.3-.33.22-.2.1-.1.24-.18.12-.08.13-.08.26-.14.13-.06.14-.06.42-.15.28-.08.14-.03.15-.03.3-.04.3-.02h.15l.3.02.3.04.15.03.14.03.28.08.42.15.26.12.26.14.13.08.12.08.24.18.1.1.22.2.3.33.18.24.16.24.2.4.06.13.06.14.1.28.08.28.03.14.03.15.04.3.02.3v.15l-.07.15zm17.4-31.06v.06l-.05.3-.08.24-.02.05-.03.05V81l-.12.2-.08.1-.2.2-.1.08-.25.15-.1.04-.24.08-.3.05h-.24l-.3-.05-.24-.08-.1-.04-.25-.15-.05-.04-.02-.04-.2-.2-.08-.1-.1-.15-.04-.05-.06-.1-.02-.05-.08-.24-.05-.3V80l.05-.3.06-.18.04-.1.18-.3.08-.1.16-.16.1-.08.3-.18.1-.04.18-.06.3-.05h.3l.07.05.24.04.18.06.1.04.3.18.1.08.16.16.08.1.18.3.04.1.06.18.05.3v.22zm0-7.2v.06l-.05.3-.06.18-.04.1-.15.25-.03.04-.08.1-.2.2-.1.08-.25.15-.1.04-.24.08-.3.05h-.24l-.3-.05-.24-.08-.1-.04-.25-.15-.05-.04v-.04l-.2-.2-.08-.1-.18-.3-.04-.1-.06-.18-.05-.3v-.3l.05-.3.06-.18.04-.1.18-.3.08-.1.16-.16.1-.08.3-.18.1-.04.18-.06.3-.05h.3l.06.04.24.04.18.06.1.04.3.18.1.08.16.16.08.1.18.3.04.1.06.18.05.3v.22zm0-7.2v.06l-.05.3-.06.18-.04.1-.18.3-.08.1-.2.2-.1.08-.25.15-.1.04-.24.08-.3.05h-.24l-.3-.05-.24-.08-.1-.04-.25-.15-.05-.04v-.05l-.2-.2-.08-.1-.18-.3-.04-.1-.06-.18-.05-.3v-.3l.05-.3.06-.18.04-.1.18-.3.04-.05.2-.2.1-.08.3-.18.1-.04.18-.06.3-.05h.3l.06.03.24.04.18.06.1.04.3.18.1.08.2.2.04.05.18.3.04.1.06.18.05.3v.23zm0-7.2v.06l-.05.3-.06.18-.04.1-.18.3-.08.1-.2.2-.1.08-.25.15-.1.04-.24.08-.3.05h-.24l-.3-.05-.24-.08-.1-.04-.25-.15-.05-.04v-.05l-.2-.2-.08-.1-.18-.3-.04-.1-.06-.18-.05-.3v-.3l.05-.3.06-.18.04-.1.18-.3.08-.1.16-.16.1-.08.3-.18.05-.02h.07l.18-.06.3-.05h.3.04l.24.04.12.04h.04l.1.04.3.18.1.08.16.16.08.1.18.3.04.1.06.18.05.3v.18l.02.05zm0-7.2v.06l-.05.3-.08.24-.02.05-.18.3-.08.1-.2.2-.1.08-.25.15-.1.04-.24.08-.3.05h-.24l-.3-.05-.24-.08-.1-.04-.25-.15-.05-.04v-.06l-.2-.2-.08-.1-.18-.3-.02-.05-.08-.24-.05-.3v-.3l.03-.18.01-.03.01-.06.06-.18.04-.1.18-.3.08-.1.16-.16.1-.08.06-.02.25-.15.1-.04.18-.06.3-.05h.3.05l.24.04.18.06.1.04.2.12.04.03.05.03.1.08.16.16.08.1.18.3.04.1.06.18.01.05.04.24v.18l.01.05zm36.17 59.73v.1l-.03.3-.06.3-.1.27-.12.27-.1.18-.1.16-.18.24-.06.07-.2.2-.07.06-.24.18-.16.1-.1.05-.27.12-.36.12-.3.06-.3.03H50.88l-.3-.03-.3-.06-.36-.12-.27-.12-.1-.05-.16-.1-.24-.18-.07-.06-.2-.2-.06-.07-.18-.24-.1-.16-.1-.18-.12-.27-.1-.27-.06-.3-.03-.3v-.3l.03-.3.04-.2.02-.1.1-.27.12-.27.1-.18.1-.16.18-.24.06-.07.2-.2.07-.06.24-.18.16-.1.1-.05.27-.12.36-.12.3-.06.3-.03h20.04l.3.03.3.06.36.12.27.12.1.05.16.1.24.18.07.06.2.2.06.07.18.24.1.16.1.18.12.27.1.27.02.1.04.2.03.3v.2zm0-90.7v.1l-.03.3-.06.3-.1.27-.12.27-.1.18-.1.16-.18.24-.06.07-.2.2-.07.06-.24.18-.16.1-.1.05-.27.12-.36.12-.3.06-.3.03H50.88l-.3-.03-.3-.06-.36-.12-.27-.12-.1-.05-.16-.1-.24-.18-.07-.06-.2-.2-.06-.07-.18-.24-.1-.16-.1-.18-.12-.27-.1-.27-.06-.3-.03-.3v-.3l.03-.3.06-.3.1-.27.12-.27.1-.18.1-.16.18-.24.06-.07.2-.2.07-.06.24-.18.16-.1.1-.05.27-.12.36-.12.3-.06.3-.03h20.04l.3.03.3.06.36.12.27.12.1.05.16.1.24.18.07.06.2.2.06.07.18.24.1.16.1.18.12.27.1.27.06.3.03.3v.2zm36.85 90.84v.3l-.04.3-.06.28-.08.28-.1.28-.06.14-.06.13-.14.26-.08.13-.08.12-.18.24-.1.1-.2.22-.1.1-.22.2-.24.18-.24.16-.13.08-.26.14-.13.06-.14.06-.28.1-.28.08-.28.06-.3.04-.3.02h-.3l-.3-.02-.3-.04-.28-.06-.28-.08-.28-.1-.14-.06-.13-.06-.26-.14-.13-.08-.24-.16-.24-.18-.22-.2-.1-.1-.2-.22-.1-.1-.18-.24-.08-.12-.08-.13-.14-.26-.06-.13-.06-.14-.1-.28-.08-.28-.06-.28-.04-.3-.02-.3v-.3l.02-.3.04-.3.03-.15.03-.14.08-.28.1-.28.06-.14.06-.13.2-.4.16-.24.18-.24.3-.33.22-.2.1-.1.24-.18.12-.08.13-.08.26-.14.13-.06.14-.06.42-.15.28-.08.14-.03.15-.03.3-.04.3-.02h.15l.3.02.3.04.15.03.14.03.28.08.42.15.26.12.26.14.13.08.12.08.24.18.1.1.22.2.3.33.18.24.16.24.2.4.06.13.06.14.1.28.08.28.03.14.03.15.04.3.02.3v.15l-.08.15zm-8.8-52.78v-.12l.05-.3.06-.18.04-.1.18-.3.08-.1.16-.16.1-.08.3-.18.1-.04.18-.06.3-.05h.3l.3.05.18.06.1.04.3.18.1.08.16.16.08.1.18.3.04.1.06.18.05.3v.3l-.05.3-.07.2-.02.05-.18.3-.08.1-.2.2-.1.08-.25.15-.1.04-.07.03-.18.06-.3.05h-.24l-.3-.05-.24-.08-.1-.04-.25-.15-.1-.08-.2-.2-.08-.1-.18-.3-.02-.05-.08-.24-.05-.3v-.12l.04-.04zm0-7.14v-.18l.05-.3.06-.18.04-.1.18-.3.08-.1.16-.16.1-.08.3-.18.1-.04.18-.06.3-.05h.3l.3.05.18.06.1.04.3.18.1.08.16.16.08.1.18.3.04.1.06.18.05.3v.3l-.05.3-.07.2-.02.05-.18.3-.08.1-.2.2-.1.08-.25.15-.1.04-.07.03-.18.06-.3.05h-.24l-.3-.05-.24-.08-.1-.04-.25-.15-.1-.08-.2-.2-.08-.1-.18-.3-.04-.1-.06-.18-.05-.3v-.06l.04-.05zm0 14.34v-.12l.05-.3.06-.18.04-.1.18-.3.08-.1.16-.16.1-.08.3-.18.1-.04.18-.06.3-.05h.3l.3.05.18.06.1.04.3.18.1.08.16.16.08.1.18.3.04.1.06.18.05.3v.3l-.05.3-.07.2-.02.05-.18.3-.08.1-.2.2-.1.08-.25.15-.1.04-.07.03-.18.06-.3.05h-.24l-.3-.05-.24-.08-.1-.04-.25-.15-.1-.08-.2-.2-.08-.1-.18-.3-.02-.05-.08-.24-.05-.3v-.12l.04-.04zm0 7.2v-.12l.05-.3.06-.18.04-.1.18-.3.08-.1.16-.16.1-.08.3-.18.1-.04.18-.06.3-.05h.3l.3.05.18.06.1.04.3.18.1.08.16.16.08.1.18.3.04.1.06.18.05.3v.3l-.05.3-.07.2-.02.05-.15.25-.04.06-.08.1-.2.2-.1.08-.25.15-.1.04-.24.08-.3.05h-.24l-.3-.05-.24-.08-.1-.04-.25-.15-.1-.08-.2-.2-.04-.05V74l-.18-.3-.02-.05-.08-.24-.05-.3v-.16zm0 7.2v-.12l.05-.3.06-.18.04-.1.18-.3.04-.05.2-.2.1-.08.3-.18.1-.04.18-.06.3-.05h.3l.3.05.18.06.1.04.3.18.1.08.2.2.04.05.18.3.04.1.06.18.05.3v.3l-.05.3-.07.2-.02.05-.03.05-.03.06-.12.2-.08.1-.2.2-.1.08-.25.15-.1.04-.07.02-.18.06-.3.05h-.24l-.3-.05-.24-.08-.1-.04-.25-.15-.1-.08-.2-.2-.08-.1-.1-.15.01-.05-.06-.1-.04-.1-.06-.18-.05-.3v-.17zm8.8-59.53v.3l-.04.3-.06.28-.08.28-.1.28-.06.14-.06.13-.1.13-.07.13-.08.13-.08.12-.18.24-.1.1-.2.22-.1.1-.22.2-.24.18-.24.16-.13.08-.26.14-.13.06-.14.06-.28.1-.28.08-.28.06-.3.04-.3.02h-.3l-.3-.02-.3-.04-.28-.06-.28-.08-.28-.1-.14-.06-.13-.06-.26-.14-.13-.08-.24-.16-.24-.18-.22-.2-.1-.1-.2-.22-.1-.1-.18-.24-.08-.12-.08-.13-.14-.26-.06-.13-.06-.14-.1-.28-.08-.28-.06-.28-.04-.3-.02-.3v-.3l.02-.3.04-.3.03-.15.03-.14.08-.28.1-.28.06-.14.06-.13.2-.4.16-.24.18-.24.3-.33.22-.2.1-.1.24-.18.12-.08.13-.08.26-.14.26-.12.42-.15.28-.08.14-.03.15-.03.3-.04.3-.02h.15l.3.02.3.04.15.03.14.03.28.08.42.15.26.12.26.14.13.08.12.08.24.18.1.1.22.2.3.33.18.24.16.24.2.4.06.13.06.14.1.28.08.28.03.14.03.15.04.3.02.3v.15l-.05.15z" fill="#e7eaec"/><path d="M107.14 46.52h26.8v38.55h-26.8zm-82.8 1.62h7.2v35.3h-7.2z" fill="#d0d6da"/><g fill="none"><g stroke="#d0d6da" stroke-width="2" stroke-linecap="round" stroke-miterlimit="10"><path d="M103.42 51.4h3.72m-3.72 7.2h3.72m-3.72 7.2h3.72m-3.72 7.2h3.72"/><path d="M103.42 80.2h3.72M35.8 51.4H7.33m28.47 7.2H7.33m28.47 7.2H7.33M35.8 73H7.33m28.47 7.2H7.33"/></g><g stroke="#b6c0c6"><circle cx="77.32" cy="39.98" r="13.56"/><circle cx="58.79" cy="89.9" r="13.56"/></g></g><circle cx="58.79" cy="89.9" r="12.03" fill="#c9e6f9" stroke="#0095db" stroke-width=".5"/><circle cx="77.32" cy="39.98" r="12.03" fill="#b6c0c6"/><path d="M51.3 60.16h2.94v7.53H51.3zm6.02 0h2.94v7.53h-2.94zm5.96 0h2.94v7.53h-2.94zm5.82 5.08h2.94v7.53H69.1zm6 4.66h2.94v7.53H75.1zM36.68 28.68h11.58V43.4H36.68zm49.27 54.88h11.58v14.72H85.95z" fill="#d0d6da"/><path d="M24.92 111.82v.83h.76v.4h-.76v1.57c0 .36.1.56.4.56.14 0 .24-.02.3-.04l.02.4c-.1.04-.26.07-.47.07-.25 0-.44-.08-.57-.22-.15-.16-.2-.4-.2-.76v-1.58h-.45v-.4h.45v-.7l.5-.13zm3.94 2.26c0 1.07-.74 1.54-1.45 1.54-.8 0-1.4-.58-1.4-1.5 0-.97.64-1.54 1.44-1.54.84 0 1.4.6 1.4 1.5zm-2.3.03c0 .64.37 1.12.88 1.12.5 0 .88-.47.88-1.13 0-.5-.25-1.12-.87-1.12-.62.01-.9.58-.9 1.13zm5.4.66l.02.8h-.47l-.03-.47h-.01c-.14.23-.44.54-.96.54-.46 0-1-.25-1-1.27v-1.7h.53v1.6c0 .55.17.92.65.92.35 0 .6-.25.7-.48.03-.08.05-.17.05-.27v-1.78h.53v2.1zm2.95.68c-.14.07-.44.17-.83.17-.88 0-1.45-.6-1.45-1.48s.6-1.54 1.56-1.54a1.78 1.78 0 0 1 .73.15l-.12.4a1.24 1.24 0 0 0-.61-.14c-.67 0-1.03.5-1.03 1.1 0 .67.43 1.1 1 1.1.3 0 .5-.08.65-.14l.1.38zm.62-4.15h.53v1.8h.01c.08-.15.22-.28.38-.37s.34-.15.54-.15c.4 0 1 .24 1 1.24v1.73h-.53v-1.67c0-.47-.17-.86-.67-.86-.34 0-.6.24-.7.53-.03.07-.04.15-.04.25v1.75h-.53v-4.26z" fill="#b6c0c6"/><g fill="none" stroke-linecap="round" stroke-miterlimit="10" stroke="#b6c0c6" stroke-width=".5"><path d="M26.72 106.28v2.37a.56.56 0 0 0 .56.56h7.4a.56.56 0 0 0 .56-.56v-7.4a.56.56 0 0 0-.56-.56h-7.4a.56.56 0 0 0-.56.56v2.37"/><path d="M29 106.1l1.98-1.14M29 103.8l1.98 1.15m-.01.01h-7.44"/></g></svg>