<?xml version="1.0" encoding="UTF-8"?>
<svg enable-background="new 0 0 266.38 240" version="1.1" viewBox="0 0 266.38 240" xml:space="preserve" xmlns="http://www.w3.org/2000/svg">
	<style type="text/css">
	.st0{fill:#FFFFFF;stroke:#0095DB;stroke-width:3.0724;stroke-miterlimit:10;}
	.st1{fill:#C9E6F9;}
	.st2{fill:#0095DB;}
	.st3{fill:#010202;}
	.st4{fill:none;stroke:#0095DB;stroke-width:0.5;stroke-linecap:round;stroke-linejoin:round;}
	.st5{display:none;fill:none;stroke:#0095DB;stroke-width:0.5;stroke-linecap:round;stroke-linejoin:round;}
	.st6{fill:#FFFFFF;}
	.st7{fill:none;stroke:#0095DB;stroke-width:1.4173;stroke-linecap:round;stroke-linejoin:round;}
	.st8{display:none;}
	.st9{display:inline;}
	.st10{display:inline;fill:#010202;}
	.st11{display:inline;fill:#E7EAEC;}
	.st12{display:inline;fill:#D0D6DA;}
	.st13{display:inline;fill:none;stroke:#D0D6DA;stroke-width:2;stroke-linecap:round;stroke-miterlimit:10;}
	.st14{fill:#E7EAEC;}
	.st15{fill:none;stroke:#0095DB;stroke-width:2;stroke-linecap:round;stroke-miterlimit:10;}
	.st16{fill:none;stroke:#B6C0C6;stroke-width:2;stroke-linecap:round;stroke-miterlimit:10;}
	.st17{fill:#B6C0C6;}
	.st18{display:inline;fill:none;stroke:#0095DB;stroke-width:2;stroke-linecap:round;stroke-miterlimit:10;}
	.st19{fill:none;stroke:#0095DB;stroke-width:3.0724;stroke-miterlimit:10;}
	.st20{display:inline;fill:none;stroke:#B6C0C6;stroke-miterlimit:10;}
	.st21{display:inline;fill:#B6C0C6;}
	.st22{fill:none;stroke:#B6C0C6;stroke-width:0.5;stroke-linecap:round;stroke-miterlimit:10;}
	.st23{display:inline;fill:none;stroke:#D0D6DA;stroke-miterlimit:10;}
	.st24{display:inline;fill:#C9E6FA;stroke:#1C93D2;stroke-width:0.5;stroke-miterlimit:10;}
	.st25{display:inline;fill:#C9E6F9;stroke:#0095DB;stroke-width:0.5;stroke-miterlimit:10;}
	.st26{fill:#D0D6DA;}
	.st27{fill:#FFFFFF;stroke:#FFFFFF;stroke-width:2;stroke-linecap:round;stroke-miterlimit:10;}
	.st28{fill:none;stroke:#D0D6DA;stroke-miterlimit:10;}
	.st29{fill:none;stroke:#B6C0C6;stroke-width:1.4931;stroke-linecap:round;stroke-miterlimit:10;}
	.st30{fill:none;stroke:#B6C0C6;stroke-width:1.4932;stroke-linecap:round;stroke-miterlimit:10;}
	.st31{display:inline;fill:#FFFFFF;}
	.st32{display:inline;fill:#FFFFFF;stroke:#FFFFFF;stroke-width:2;stroke-linecap:round;stroke-miterlimit:10;}
</style>
	<circle class="st0" cx="133.19" cy="120.95" r="115.26" />
	<path class="st1" d="m50.92 139.6c-0.39 0-0.71-0.32-0.71-0.71-3.08-0.03-6.12-0.28-9.3-0.74-1.79-0.26-3.57-0.59-4.92-0.85l-0.25-0.05c-1.51-0.29-3.07-0.58-4.61-0.79-1.59-0.21-3.23-0.34-4.88-0.39-0.74-0.02-2.17-0.02-3.37-0.02h-4.15c-0.39 0-0.71-0.32-0.71-0.71v-28.34c0-0.39 0.32-0.71 0.71-0.71h4.15c1.21 0 2.63 0 3.37-0.02 1.64-0.04 3.28-0.17 4.88-0.39 1.53-0.2 3.07-0.5 4.57-0.78l0.29-0.05c1.44-0.27 3.15-0.59 4.93-0.85 3.18-0.47 6.23-0.71 9.3-0.74 0-0.39 0.32-0.71 0.71-0.71h39.97c0.39 0 0.71 0.32 0.71 0.71v35.43c0 0.39-0.32 0.71-0.71 0.71h-39.98z" />
	<path class="st2" d="m90.89 103.46v35.43h-39.97v-0.71c-3.33 0-6.61-0.26-9.9-0.74-1.64-0.24-3.27-0.53-4.9-0.84s-3.25-0.62-4.9-0.84-3.29-0.35-4.95-0.39c-0.74-0.02-2.15-0.02-3.36-0.02h-1.61-1.36 0.07-0.07-1.21v-28.35h1.19 0.1-0.1 1.38 1.61c1.21 0 2.62 0 3.36-0.02 1.66-0.04 3.31-0.17 4.95-0.39s3.27-0.53 4.9-0.84 3.26-0.6 4.9-0.84c3.29-0.48 6.57-0.74 9.9-0.74h0.01v-0.71h39.96m0-1.42h-39.97c-0.53 0-0.99 0.29-1.23 0.72-2.93 0.05-5.84 0.3-8.88 0.74-1.79 0.26-3.51 0.58-4.96 0.85l-0.29 0.06c-1.48 0.28-3.02 0.57-4.53 0.77-1.57 0.21-3.19 0.34-4.8 0.38-0.76 0.02-2.26 0.02-3.32 0.02h-0.99-0.62-1.38-1.19c-0.78 0-1.42 0.63-1.42 1.42v28.35c0 0.78 0.63 1.42 1.42 1.42h1.21 1.36 0.62 0.99c1.06 0 2.56 0 3.32 0.02 1.61 0.04 3.23 0.17 4.8 0.38 1.51 0.2 3.04 0.49 4.53 0.77l0.29 0.06c1.45 0.27 3.17 0.59 4.95 0.85 3.03 0.44 5.95 0.69 8.88 0.74 0.24 0.43 0.7 0.72 1.23 0.72h39.97c0.78 0 1.42-0.63 1.42-1.42v-35.43c0.01-0.78-0.63-1.42-1.41-1.42z" />
	<path class="st6" d="m51.05 132.51v5.67c-3.33 0-6.61-0.26-9.9-0.74-1.64-0.24-3.27-0.53-4.9-0.84s-3.25-0.62-4.9-0.84c-1.64-0.22-3.29-0.35-4.95-0.39-1.13-0.03-3.83-0.03-4.97-0.03h-1.17-1.4v-0.83-2s0-1.47 0-2v-0.83h1.76 1.74 0.18l8.36 0.31c1.69 0.19 3.36 0.47 5.03 0.78 1.66 0.31 3.32 0.64 5 0.9 3.42 0.55 6.65 0.84 10.12 0.84z" />
	<path class="st6" d="m51.05 125.42v5.67c-6.75 0-13.44-0.65-20.15-1.1l-8.36-0.31h-0.18-1.74-1.76v-0.83-2.01s0-1.47 0-2v-0.83h3.5c2.4 0 4.79 0.07 7.18 0.22 2.39 0.14 4.78 0.32 7.17 0.5 2.38 0.18 4.77 0.35 7.16 0.48s4.78 0.21 7.18 0.21z" />
	<path class="st6" d="m51.05 118.34v5.67h-32.19c0.01-0.02 0-0.03 0-0.04v-0.13-0.54-0.71-1.42s0-0.94 0-1.42v-0.7-0.54-0.13-0.03-0.01h1.76 1.74 28.69z" />
	<path class="st6" d="m51.05 111.25v5.67c-2.4 0-4.79 0.09-7.18 0.22s-4.78 0.3-7.16 0.47c-2.39 0.18-4.78 0.36-7.17 0.51-2.39 0.14-4.78 0.22-7.18 0.22h-1.74-1.76v-0.83s0-1.26 0-2.01 0-1.47 0-2 0-0.83 0-0.83h1.76 1.74 0.18l8.36-0.32c6.71-0.45 13.4-1.1 20.15-1.1z" />
	<path class="st3" d="m51.05 104.16v5.67c-3.47 0-6.69 0.29-10.12 0.84-1.67 0.27-3.34 0.59-5 0.9-1.67 0.32-3.34 0.59-5.03 0.78l-8.36 0.32h-0.18-1.74-1.76v-0.83-2.01s0-1.47 0-2 0-0.83 0-0.83h1.4 1.17c1.14 0 3.84 0.01 4.97-0.02 1.66-0.05 3.31-0.18 4.95-0.4 1.65-0.22 3.27-0.53 4.9-0.84s3.26-0.6 4.9-0.84c3.29-0.48 6.57-0.74 9.9-0.74z" />
	<path class="st7" d="m51.05 103.46h39.97" />
	<line class="st4" x1="30.9" x2="22.54" y1="129.99" y2="129.68" />
	<line class="st4" x1="30.9" x2="22.54" y1="112.35" y2="112.67" />
	<polygon class="st4" points="51.05 138.18 51.05 138.89 91.02 138.89 91.02 103.46 91.02 102.89 51.05 102.89 51.05 103.46 51.05 104.16 51.05 109.83 51.05 111.25 51.05 116.92 51.05 118.34 51.05 124.01 51.05 125.42 51.05 131.09 51.05 132.51" />
	<path class="st4" d="m18.86 107v0.83s0 1.25 0 2 0 1.48 0 2.01v0.83" />
	<path class="st4" d="m51.05 109.83c-3.47 0-6.69 0.29-10.12 0.84-1.67 0.27-3.34 0.59-5 0.9-1.67 0.32-3.34 0.59-5.03 0.78" />
	<path class="st4" d="m18.86 107h1.4 1.17c1.14 0 3.84 0.01 4.97-0.02 1.66-0.05 3.31-0.18 4.95-0.4 1.65-0.22 3.27-0.53 4.9-0.84s3.26-0.6 4.9-0.84c3.29-0.48 6.57-0.74 9.9-0.74" />
	<path class="st4" d="m18.86 118.34v-0.83s0-1.26 0-2.01 0-1.47 0-2 0-0.83 0-0.83" />
	<path class="st4" d="m22.36 118.34h-1.74-1.76" />
	<path class="st4" d="m18.86 112.67h1.76 1.74" />
	<path class="st4" d="m22.54 112.67h-0.18" />
	<path class="st4" d="m30.9 112.35c6.71-0.45 13.4-1.1 20.15-1.1" />
	<path class="st4" d="m51.05 131.09c-6.75 0-13.44-0.65-20.15-1.1" />
	<path class="st4" d="m18.86 124.01v0.83 2s0 1.47 0 2.01v0.83" />
	<path class="st4" d="m22.36 124.01c2.4 0 4.79 0.07 7.18 0.22 2.39 0.14 4.78 0.32 7.17 0.5 2.38 0.18 4.77 0.35 7.16 0.48s4.78 0.21 7.18 0.21" />
	<path class="st4" d="m22.36 129.68h-1.74-1.76" />
	<path class="st4" d="m18.86 135.34v-0.83-2s0-1.47 0-2v-0.83" />
	<path class="st4" d="m51.05 138.18c-3.33 0-6.61-0.26-9.9-0.74-1.64-0.24-3.27-0.53-4.9-0.84s-3.25-0.62-4.9-0.84c-1.64-0.22-3.29-0.35-4.95-0.39-1.13-0.03-3.83-0.03-4.97-0.03h-1.17-1.4" />
	<path class="st4" d="m18.86 124.01c0.01-0.02 0-0.03 0-0.04v-0.13-0.54-0.71-1.42s0-0.94 0-1.42v-0.7-0.54-0.13-0.03-0.01" />
	<path class="st4" d="m22.54 129.68h-0.18" />
	<path class="st4" d="m30.9 129.99c1.69 0.19 3.36 0.47 5.03 0.78 1.66 0.31 3.32 0.64 5 0.9 3.42 0.55 6.65 0.84 10.12 0.84" />
	<line class="st4" x1="22.36" x2="18.86" y1="124.01" y2="124.01" />
	<line class="st4" x1="51.05" x2="22.36" y1="124.01" y2="124.01" />
	<line class="st4" x1="22.36" x2="51.05" y1="118.34" y2="118.34" />
	<path class="st4" d="m51.05 116.92c-2.4 0-4.79 0.09-7.18 0.22s-4.78 0.3-7.16 0.47c-2.39 0.18-4.78 0.36-7.17 0.51-2.39 0.14-4.78 0.22-7.18 0.22" />
	<path class="st2" d="m51.05 94.6 44.24-0.52c0.28 0 0.52 0.22 0.52 0.51 0 0.28-0.22 0.52-0.51 0.52h-0.01l-44.24-0.51z" />
	<polygon class="st2" points="88.77 98.11 88.39 97.07 95.18 94.6 88.39 92.12 88.77 91.09 98.41 94.6" />
	<path class="st14" d="m231.07 101.67h-2.18v-2.07-0.08-0.08l-0.04-0.32-0.02-0.08-0.06-0.21-0.12-0.28-0.12-0.21-0.04-0.06-0.2-0.24-0.06-0.04-0.3-0.25-0.06-0.04-0.21-0.12-0.28-0.12-0.21-0.06-0.08-0.02-0.32-0.04h-0.08-0.08-12.47-0.08-0.08l-0.32-0.04-0.08-0.02-0.21-0.06-0.28-0.12-0.21-0.12-0.06-0.04-0.3-0.25-0.25-0.3-0.04-0.06-0.12-0.21-0.12-0.28-0.06-0.21-0.02-0.08-0.04-0.32v-0.08-0.08-19.49-0.29l-0.01-0.29-0.02-0.29-0.03-0.29-0.04-0.29-0.05-0.29-0.06-0.28-0.07-0.28-0.08-0.28-0.09-0.28-0.1-0.27-0.11-0.27-0.12-0.26-0.13-0.26-0.14-0.26-0.15-0.25-0.16-0.25-0.16-0.24-0.17-0.23-0.18-0.23-0.38-0.44-0.2-0.21-0.21-0.2-0.22-0.19-0.24-0.17-0.23-0.18-0.23-0.17-0.24-0.16-0.25-0.16-0.25-0.15-0.26-0.14-0.26-0.13-0.26-0.12-0.27-0.11-0.27-0.1-0.28-0.09-0.28-0.08-0.28-0.07-0.28-0.06-0.29-0.05-0.29-0.04-0.29-0.03-0.29-0.02-0.29-0.01h-0.29-90.43-0.29l-0.29 0.01-0.29 0.02-0.29 0.03-0.29 0.04-0.29 0.05-0.28 0.06-0.28 0.07-0.28 0.08-0.28 0.09-0.27 0.1-0.27 0.11-0.26 0.12-0.26 0.13-0.26 0.14-0.25 0.15-0.25 0.16-0.24 0.16-0.23 0.17-0.2 0.18-0.44 0.38-0.21 0.2-0.2 0.21-0.38 0.44-0.18 0.23-0.17 0.23-0.16 0.24-0.16 0.25-0.15 0.25-0.14 0.26-0.13 0.26-0.12 0.26-0.11 0.27-0.1 0.27-0.09 0.28-0.08 0.28-0.07 0.28-0.06 0.28-0.05 0.29-0.04 0.29-0.03 0.29-0.02 0.29-0.01 0.29v0.29 19.47 0.07 0.07l0.05 0.35 0.02 0.07 0.06 0.18 0.15 0.3 0.08 0.12 0.12 0.15 0.2 0.2 0.15 0.12 0.12 0.08 0.3 0.15 0.18 0.06 0.07 0.02 0.35 0.05h0.07 0.07 12.47 0.09 0.09l0.27 0.03 0.09 0.02 0.24 0.06 0.24 0.09 0.03 0.03 0.24 0.12 0.28 0.2 0.07 0.06 0.24 0.24 0.06 0.07 0.2 0.28 0.16 0.32 0.09 0.24 0.04 0.16 0.04 0.18 0.03 0.27v0.09 0.09 39.01 0.16l-0.02 0.32-0.02 0.16-0.06 0.32-0.08 0.32-0.1 0.32-0.12 0.3-0.14 0.3-0.16 0.28-0.18 0.28-0.2 0.26-0.11 0.13-0.22 0.24-14.43 14.43-0.27 0.3-0.24 0.33-0.07 0.11-0.07 0.12-0.18 0.36-0.1 0.26-0.08 0.26-0.09 0.39-0.04 0.26-0.02 0.28v0.14 7.05 0.29l0.01 0.29 0.02 0.29 0.03 0.29 0.04 0.29 0.05 0.29 0.06 0.28 0.07 0.28 0.08 0.28 0.09 0.28 0.1 0.27 0.11 0.27 0.12 0.26 0.13 0.26 0.14 0.26 0.15 0.25 0.16 0.25 0.16 0.24 0.17 0.23 0.18 0.23 0.38 0.44 0.2 0.21 0.21 0.2 0.44 0.38 0.23 0.18 0.23 0.17 0.24 0.16 0.25 0.16 0.25 0.15 0.26 0.14 0.26 0.13 0.26 0.12 0.27 0.11 0.27 0.1 0.28 0.09 0.28 0.08 0.28 0.07 0.28 0.06 0.29 0.05 0.29 0.04 0.29 0.03 0.29 0.02 0.29 0.01h0.29 90.43l0.58-0.02 0.29-0.02 0.29-0.03 0.29-0.04 0.29-0.05 0.28-0.06 0.28-0.07 0.28-0.08 0.28-0.09 0.27-0.1 0.27-0.11 0.26-0.12 0.26-0.13 0.26-0.14 0.25-0.15 0.25-0.16 0.24-0.16 0.23-0.17 0.23-0.18 0.44-0.38 0.21-0.2 0.2-0.21 0.38-0.44 0.18-0.23 0.17-0.23 0.16-0.24 0.16-0.25 0.15-0.25 0.14-0.26 0.13-0.26 0.12-0.26 0.11-0.27 0.1-0.27 0.09-0.28 0.08-0.28 0.07-0.28 0.06-0.28 0.05-0.29 0.04-0.29 0.03-0.29 0.02-0.29 0.01-0.29v-0.29-7.05-0.15l0.01-0.15 0.01-0.14 0.04-0.28 0.06-0.28 0.08-0.28 0.1-0.28 0.18-0.39 0.14-0.26 0.16-0.24 0.09-0.12 0.18-0.22 0.1-0.11 14.64-14.64 0.1-0.11 0.2-0.24 0.18-0.26 0.16-0.26 0.14-0.28 0.12-0.28 0.02-0.05h2.48v-38.56zm-113.87-25.89-0.02 0.3-0.04 0.3-0.06 0.28-0.08 0.28-0.1 0.28-0.06 0.14-0.06 0.13-0.14 0.26-0.08 0.13-0.08 0.12-0.18 0.24-0.09 0.11-0.2 0.22-0.1 0.1-0.22 0.2-0.24 0.18-0.24 0.16-0.13 0.08-0.26 0.14-0.13 0.06-0.14 0.06-0.28 0.1-0.28 0.08-0.28 0.06-0.3 0.04-0.3 0.02h-0.15-0.15l-0.3-0.02-0.3-0.04-0.28-0.06-0.28-0.08-0.28-0.1-0.14-0.06-0.13-0.06-0.26-0.14-0.13-0.08-0.24-0.16-0.24-0.18-0.22-0.2-0.1-0.1-0.2-0.22-0.09-0.11-0.18-0.24-0.08-0.12-0.08-0.13-0.14-0.26-0.06-0.13-0.06-0.14-0.1-0.28-0.08-0.28-0.06-0.28-0.04-0.3-0.02-0.3v-0.15-0.15l0.02-0.3 0.04-0.3 0.03-0.15 0.03-0.14 0.08-0.28 0.1-0.28 0.06-0.14 0.06-0.13 0.21-0.39 0.16-0.24 0.18-0.24 0.3-0.33 0.22-0.2 0.11-0.09 0.24-0.18 0.12-0.08 0.13-0.08 0.26-0.14 0.26-0.12 0.14-0.06 0.28-0.1 0.28-0.08 0.14-0.03 0.15-0.03 0.3-0.04 0.3-0.02h0.15l0.3 0.02 0.3 0.04 0.15 0.03 0.14 0.03 0.28 0.08 0.42 0.15 0.14 0.06 0.13 0.06 0.26 0.14 0.13 0.08 0.12 0.08 0.24 0.18 0.11 0.09 0.22 0.2 0.3 0.33 0.18 0.24 0.16 0.24 0.21 0.39 0.06 0.13 0.06 0.14 0.1 0.28 0.08 0.28 0.03 0.14 0.03 0.15 0.04 0.3 0.02 0.3v0.15l-0.08 0.16zm0 90.71-0.02 0.3-0.04 0.3-0.06 0.28-0.08 0.28-0.1 0.28-0.06 0.14-0.06 0.13-0.14 0.26-0.08 0.13-0.08 0.12-0.18 0.24-0.09 0.11-0.2 0.22-0.1 0.1-0.22 0.2-0.24 0.18-0.24 0.16-0.13 0.08-0.26 0.14-0.13 0.06-0.14 0.06-0.28 0.1-0.28 0.08-0.28 0.06-0.3 0.04-0.3 0.02h-0.15-0.15l-0.3-0.02-0.3-0.04-0.28-0.06-0.28-0.08-0.28-0.1-0.14-0.06-0.13-0.06-0.26-0.14-0.13-0.08-0.24-0.16-0.24-0.18-0.22-0.2-0.1-0.1-0.2-0.22-0.09-0.11-0.18-0.24-0.08-0.12-0.08-0.13-0.14-0.26-0.06-0.13-0.06-0.14-0.1-0.28-0.08-0.28-0.06-0.28-0.04-0.3-0.02-0.3v-0.15-0.15l0.02-0.3 0.04-0.3 0.03-0.15 0.03-0.14 0.08-0.28 0.1-0.28 0.06-0.14 0.06-0.13 0.21-0.39 0.16-0.24 0.18-0.24 0.3-0.33 0.22-0.2 0.11-0.09 0.24-0.18 0.12-0.08 0.13-0.08 0.26-0.14 0.13-0.06 0.14-0.06 0.42-0.15 0.28-0.08 0.14-0.03 0.15-0.03 0.3-0.04 0.3-0.02h0.15l0.3 0.02 0.3 0.04 0.15 0.03 0.14 0.03 0.28 0.08 0.42 0.15 0.26 0.12 0.26 0.14 0.13 0.08 0.12 0.08 0.24 0.18 0.11 0.09 0.22 0.2 0.3 0.33 0.18 0.24 0.16 0.24 0.21 0.39 0.06 0.13 0.06 0.14 0.1 0.28 0.08 0.28 0.03 0.14 0.03 0.15 0.04 0.3 0.02 0.3v0.15l-0.08 0.15zm81.93-91.01 0.02-0.3 0.04-0.3 0.03-0.15 0.03-0.14 0.08-0.28 0.1-0.28 0.06-0.14 0.06-0.13 0.21-0.39 0.16-0.24 0.18-0.24 0.3-0.33 0.22-0.2 0.11-0.09 0.24-0.18 0.12-0.08 0.13-0.08 0.26-0.14 0.26-0.12 0.42-0.15 0.28-0.08 0.14-0.03 0.15-0.03 0.3-0.04 0.3-0.02h0.15l0.3 0.02 0.3 0.04 0.15 0.03 0.14 0.03 0.28 0.08 0.42 0.15 0.26 0.12 0.26 0.14 0.13 0.08 0.12 0.08 0.24 0.18 0.11 0.09 0.22 0.2 0.3 0.33 0.18 0.24 0.16 0.24 0.21 0.39 0.06 0.13 0.06 0.14 0.1 0.28 0.08 0.28 0.03 0.14 0.03 0.15 0.04 0.3 0.02 0.3v0.15 0.15l-0.02 0.3-0.04 0.3-0.06 0.28-0.08 0.28-0.1 0.28-0.06 0.14-0.06 0.13-0.14 0.26-0.08 0.13-0.08 0.12-0.18 0.24-0.09 0.11-0.2 0.22-0.1 0.1-0.22 0.2-0.24 0.18-0.24 0.16-0.13 0.08-0.26 0.14-0.13 0.06-0.14 0.06-0.28 0.1-0.28 0.08-0.28 0.06-0.3 0.04-0.3 0.02h-0.15-0.15l-0.3-0.02-0.3-0.04-0.28-0.06-0.28-0.08-0.28-0.1-0.14-0.06-0.13-0.06-0.26-0.14-0.13-0.08-0.24-0.16-0.24-0.18-0.22-0.2-0.1-0.1-0.2-0.22-0.09-0.11-0.18-0.24-0.08-0.12-0.08-0.13-0.14-0.26-0.06-0.13-0.06-0.14-0.1-0.28-0.08-0.28-0.06-0.28-0.04-0.3-0.02-0.3v-0.15l-0.07-0.15zm-0.28 31.02v-0.06-0.06l0.05-0.3 0.06-0.18 0.04-0.1 0.18-0.3 0.04-0.05 0.2-0.2 0.1-0.08 0.3-0.18 0.1-0.04 0.18-0.06 0.3-0.05h0.06 0.06 0.06 0.06 0.06l0.3 0.05 0.18 0.06 0.1 0.04 0.3 0.18 0.1 0.08 0.2 0.2 0.04 0.05 0.18 0.3 0.04 0.1 0.06 0.18 0.05 0.3v0.06 0.06 0.06 0.06 0.06l-0.05 0.3-0.06 0.18-0.04 0.1-0.18 0.3-0.08 0.1-0.2 0.2-0.1 0.08-0.25 0.15-0.1 0.04-0.24 0.08-0.3 0.05h-0.06-0.06-0.06-0.06l-0.3-0.05-0.24-0.08-0.1-0.04-0.25-0.15-0.1-0.08-0.2-0.2-0.08-0.1-0.18-0.3-0.04-0.1-0.06-0.18-0.05-0.3v-0.06-0.06l0.04-0.06zm0 7.2v-0.06-0.06l0.05-0.3 0.06-0.18 0.04-0.1 0.18-0.3 0.08-0.1 0.16-0.16 0.1-0.08 0.3-0.18 0.1-0.04 0.18-0.06 0.3-0.05h0.06 0.06 0.06 0.06 0.06l0.3 0.05 0.18 0.06 0.1 0.04 0.3 0.18 0.1 0.08 0.16 0.16 0.08 0.1 0.18 0.3 0.04 0.1 0.06 0.18 0.05 0.3v0.06 0.06 0.06 0.06 0.06l-0.05 0.3-0.08 0.24-0.02 0.05-0.18 0.3-0.08 0.1-0.2 0.2-0.1 0.08-0.25 0.15-0.1 0.04-0.24 0.08-0.3 0.05h-0.06-0.06-0.06-0.06l-0.3-0.05-0.24-0.08-0.1-0.04-0.25-0.15-0.1-0.08-0.2-0.2-0.08-0.1-0.18-0.3-0.02-0.05-0.08-0.24-0.05-0.3v-0.06-0.06l0.04-0.06zm0 7.2v-0.06-0.06l0.05-0.3 0.06-0.18 0.04-0.1 0.18-0.3 0.08-0.1 0.16-0.16 0.1-0.08 0.3-0.18 0.1-0.04 0.18-0.06 0.3-0.05h0.06 0.06 0.06 0.06 0.06l0.3 0.05 0.18 0.06 0.1 0.04 0.3 0.18 0.1 0.08 0.16 0.16 0.08 0.1 0.18 0.3 0.04 0.1 0.06 0.18 0.05 0.3v0.06 0.06 0.06 0.06 0.06l-0.05 0.3-0.08 0.24-0.02 0.05-0.18 0.3-0.08 0.1-0.2 0.2-0.1 0.08-0.25 0.15-0.1 0.04-0.24 0.08-0.3 0.05h-0.06-0.06-0.06-0.06l-0.3-0.05-0.24-0.08-0.1-0.04-0.25-0.15-0.1-0.08-0.2-0.2-0.08-0.1-0.18-0.3-0.02-0.05-0.08-0.24-0.05-0.3v-0.06-0.06l0.04-0.06zm0 7.2v-0.06-0.06l0.05-0.3 0.06-0.18 0.04-0.1 0.18-0.3 0.08-0.1 0.16-0.16 0.1-0.08 0.3-0.18 0.1-0.04 0.18-0.06 0.3-0.05h0.06 0.06 0.06 0.06 0.06l0.3 0.05 0.18 0.06 0.1 0.04 0.3 0.18 0.1 0.08 0.16 0.16 0.08 0.1 0.18 0.3 0.04 0.1 0.06 0.18 0.05 0.3v0.06 0.06 0.06 0.06 0.06l-0.05 0.3-0.08 0.24-0.02 0.05-0.18 0.3-0.08 0.1-0.2 0.2-0.1 0.08-0.25 0.15-0.1 0.04-0.24 0.08-0.3 0.05h-0.06-0.06-0.06-0.06l-0.3-0.05-0.24-0.08-0.1-0.04-0.25-0.15-0.1-0.08-0.2-0.2-0.08-0.1-0.18-0.3-0.02-0.05-0.08-0.24-0.05-0.3v-0.06-0.06l0.04-0.06zm-64.24 7.32v0.06l-0.05 0.3-0.08 0.24-0.02 0.05-0.18 0.3-0.08 0.1-0.2 0.2-0.1 0.08-0.25 0.15-0.1 0.04-0.24 0.08-0.3 0.05h-0.06-0.06-0.06-0.06l-0.24-0.04-0.03-0.03-0.24-0.08-0.1-0.04-0.25-0.15-0.1-0.08-0.2-0.2-0.08-0.1-0.18-0.3-0.02-0.05-0.08-0.24-0.05-0.3v-0.06-0.06-0.06-0.06-0.06l0.05-0.3 0.06-0.18 0.04-0.1 0.18-0.3 0.08-0.1 0.16-0.16 0.1-0.08 0.3-0.18 0.1-0.04 0.18-0.06 0.3-0.05h0.06 0.06 0.06 0.06 0.06l0.3 0.05 0.18 0.06 0.1 0.04 0.3 0.18 0.1 0.08 0.16 0.16 0.08 0.1 0.18 0.3 0.04 0.1 0.06 0.18 0.05 0.3v0.06 0.06 0.06l0.01 0.08zm0-7.2v0.06l-0.05 0.3-0.06 0.18-0.04 0.1-0.18 0.3-0.08 0.1-0.2 0.2-0.1 0.08-0.25 0.15-0.1 0.04-0.24 0.08-0.3 0.05h-0.06-0.06-0.06-0.06l-0.3-0.05-0.24-0.08-0.1-0.04-0.25-0.15-0.1-0.08-0.2-0.2-0.08-0.1-0.18-0.3-0.04-0.1-0.06-0.18-0.05-0.3v-0.06-0.06-0.06-0.06-0.06l0.05-0.3 0.06-0.18 0.04-0.1 0.18-0.3 0.04-0.05 0.2-0.2 0.1-0.08 0.3-0.18 0.1-0.04 0.18-0.06 0.3-0.05h0.06 0.06 0.06 0.06 0.06l0.3 0.05 0.18 0.06 0.1 0.04 0.3 0.18 0.1 0.08 0.2 0.2 0.04 0.05 0.18 0.3 0.04 0.1 0.06 0.18 0.05 0.3v0.06 0.06 0.06l0.04 0.06zm0-7.2v0.06l-0.05 0.3-0.06 0.18-0.04 0.1-0.18 0.3-0.08 0.1-0.2 0.2-0.1 0.08-0.25 0.15-0.1 0.04-0.24 0.08-0.3 0.05h-0.06-0.06-0.06-0.06l-0.3-0.05-0.24-0.08-0.1-0.04-0.25-0.15-0.1-0.08-0.2-0.2-0.08-0.1-0.18-0.3-0.04-0.1-0.06-0.18-0.05-0.3v-0.06-0.06-0.06-0.06-0.06l0.05-0.3 0.06-0.18 0.04-0.1 0.18-0.3 0.08-0.1 0.16-0.16 0.1-0.08 0.3-0.18 0.1-0.04 0.18-0.06 0.3-0.05h0.06 0.06 0.06 0.06 0.06l0.3 0.05 0.18 0.06 0.1 0.04 0.3 0.18 0.1 0.08 0.16 0.16 0.08 0.1 0.18 0.3 0.04 0.1 0.06 0.18 0.05 0.3v0.06 0.06 0.06l0.04 0.06zm0-7.2v0.06l-0.05 0.3-0.06 0.18-0.04 0.1-0.18 0.3-0.08 0.1-0.2 0.2-0.1 0.08-0.25 0.15-0.1 0.04-0.24 0.08-0.3 0.05h-0.06-0.06-0.06-0.06l-0.3-0.05-0.24-0.08-0.1-0.04-0.25-0.15-0.1-0.08-0.2-0.2-0.08-0.1-0.18-0.3-0.04-0.1-0.06-0.18-0.05-0.3v-0.06-0.06-0.06-0.06-0.06l0.05-0.3 0.06-0.18 0.04-0.1 0.18-0.3 0.08-0.1 0.16-0.16 0.1-0.08 0.3-0.18 0.1-0.04 0.18-0.06 0.3-0.05h0.06 0.06 0.06 0.06 0.06l0.3 0.05 0.18 0.06 0.1 0.04 0.3 0.18 0.1 0.08 0.16 0.16 0.08 0.1 0.18 0.3 0.04 0.1 0.06 0.18 0.05 0.3v0.06 0.06 0.06l0.04 0.06zm0-7.2v0.06l-0.05 0.3-0.08 0.24-0.02 0.05-0.18 0.3-0.08 0.1-0.2 0.2-0.1 0.08-0.25 0.15-0.1 0.04-0.24 0.08-0.3 0.05h-0.06-0.06-0.06-0.06l-0.3-0.05-0.24-0.08-0.1-0.04-0.25-0.15-0.1-0.08-0.2-0.2-0.08-0.1-0.18-0.3-0.02-0.05-0.08-0.24-0.05-0.3v-0.06-0.06-0.06-0.06-0.06l0.05-0.3 0.06-0.18 0.04-0.1 0.18-0.3 0.08-0.1 0.16-0.16 0.1-0.08 0.3-0.18 0.1-0.04 0.18-0.06 0.3-0.05h0.06 0.06 0.06 0.06 0.06l0.3 0.05 0.18 0.06 0.1 0.04 0.3 0.18 0.1 0.08 0.16 0.16 0.08 0.1 0.18 0.3 0.04 0.1 0.06 0.18 0.05 0.3v0.06 0.06 0.06l0.04 0.06zm64.47 29.59-0.09-0.15-0.04-0.1-0.06-0.18-0.05-0.3v-0.06-0.06-0.06-0.06-0.06l0.05-0.3 0.06-0.18 0.04-0.1 0.18-0.3 0.08-0.1 0.16-0.16 0.1-0.08 0.3-0.18 0.1-0.04 0.18-0.06 0.3-0.05h0.06 0.06 0.06 0.06 0.06l0.3 0.05 0.18 0.06 0.1 0.04 0.3 0.18 0.1 0.08 0.16 0.16 0.08 0.1 0.18 0.3 0.04 0.1 0.06 0.18 0.05 0.3v0.06 0.06 0.06 0.06 0.06l-0.05 0.3-0.06 0.18-0.04 0.1-0.18 0.3-0.08 0.1-0.2 0.2-0.1 0.08-0.25 0.15-0.1 0.04-0.24 0.08-0.3 0.05h-0.06-0.06-0.06-0.06l-0.3-0.05-0.24-0.08-0.1-0.04-0.25-0.15-0.1-0.08-0.2-0.2-0.08-0.1-0.06-0.1 0.01-0.05zm8.55 30.28-0.02 0.3-0.04 0.3-0.06 0.28-0.08 0.28-0.1 0.28-0.06 0.14-0.06 0.13-0.14 0.26-0.08 0.13-0.08 0.12-0.18 0.24-0.09 0.11-0.2 0.22-0.1 0.1-0.22 0.2-0.24 0.18-0.24 0.16-0.13 0.08-0.26 0.14-0.13 0.06-0.14 0.06-0.28 0.1-0.28 0.08-0.28 0.06-0.3 0.04-0.3 0.02h-0.15-0.15l-0.3-0.02-0.3-0.04-0.28-0.06-0.28-0.08-0.28-0.1-0.14-0.06-0.13-0.06-0.26-0.14-0.13-0.08-0.24-0.16-0.24-0.18-0.22-0.2-0.1-0.1-0.2-0.22-0.09-0.11-0.18-0.24-0.08-0.12-0.08-0.13-0.14-0.26-0.06-0.13-0.06-0.14-0.1-0.28-0.08-0.28-0.06-0.28-0.04-0.3-0.02-0.3v-0.15-0.15l0.02-0.3 0.04-0.3 0.03-0.15 0.03-0.14 0.08-0.28 0.1-0.28 0.06-0.14 0.06-0.13 0.21-0.39 0.16-0.24 0.18-0.24 0.3-0.33 0.22-0.2 0.11-0.09 0.24-0.18 0.12-0.08 0.13-0.08 0.26-0.14 0.13-0.06 0.14-0.06 0.42-0.15 0.28-0.08 0.14-0.03 0.15-0.03 0.3-0.04 0.3-0.02h0.15l0.3 0.02 0.3 0.04 0.15 0.03 0.14 0.03 0.28 0.08 0.42 0.15 0.26 0.12 0.26 0.14 0.13 0.08 0.12 0.08 0.24 0.18 0.11 0.09 0.22 0.2 0.3 0.33 0.18 0.24 0.16 0.24 0.21 0.39 0.06 0.13 0.06 0.14 0.1 0.28 0.08 0.28 0.03 0.14 0.03 0.15 0.04 0.3 0.02 0.3v0.15l-0.08 0.15z" />
	<rect class="st3" x="136.8" y="105.04" width="6.36" height="3.02" />
	<path d="m138.22 111.91c0.36 0 0.71 0.11 1.04 0.33l-0.18 0.29c-0.17-0.11-0.31-0.18-0.43-0.23-0.12-0.04-0.26-0.06-0.4-0.06-0.22 0-0.39 0.05-0.51 0.15s-0.18 0.24-0.18 0.42c0 0.14 0.04 0.25 0.13 0.33s0.23 0.16 0.44 0.23l0.17 0.05 0.22 0.07c0.15 0.05 0.28 0.1 0.37 0.15s0.17 0.12 0.24 0.2 0.13 0.17 0.17 0.28 0.06 0.22 0.06 0.32c0 0.16-0.04 0.31-0.12 0.46s-0.2 0.27-0.35 0.36c-0.11 0.07-0.23 0.13-0.35 0.16s-0.26 0.05-0.42 0.05c-0.21 0-0.4-0.02-0.58-0.07s-0.35-0.13-0.52-0.24l0.18-0.32c0.14 0.1 0.29 0.18 0.44 0.23s0.31 0.07 0.48 0.07c0.13 0 0.24-0.01 0.32-0.03s0.16-0.06 0.23-0.12c0.16-0.12 0.25-0.29 0.25-0.49 0-0.3-0.21-0.51-0.62-0.64l-0.17-0.05-0.18-0.05c-0.16-0.05-0.28-0.09-0.37-0.14-0.09-0.04-0.17-0.1-0.24-0.17-0.14-0.15-0.21-0.34-0.21-0.56 0-0.14 0.03-0.28 0.08-0.4s0.13-0.23 0.23-0.31c0.1-0.09 0.21-0.15 0.35-0.2s0.26-0.07 0.43-0.07z" />
	<path d="m141.3 111.94c0.17 0 0.33 0.02 0.47 0.07s0.28 0.12 0.39 0.21l-0.22 0.26c-0.1-0.08-0.21-0.13-0.31-0.17-0.1-0.03-0.22-0.05-0.34-0.05-0.2 0-0.37 0.05-0.51 0.15s-0.25 0.25-0.33 0.44c-0.05 0.12-0.09 0.25-0.11 0.39s-0.04 0.32-0.04 0.52c0 0.17 0.01 0.3 0.03 0.41s0.04 0.21 0.08 0.31c0.09 0.22 0.21 0.38 0.38 0.48 0.16 0.1 0.34 0.16 0.54 0.16 0.13 0 0.24-0.02 0.35-0.05 0.11-0.04 0.21-0.09 0.32-0.17l0.22 0.27c-0.14 0.09-0.29 0.16-0.46 0.21s-0.33 0.07-0.5 0.07c-0.19 0-0.37-0.04-0.54-0.12s-0.32-0.19-0.46-0.34c-0.15-0.17-0.26-0.37-0.32-0.58-0.06-0.22-0.09-0.46-0.09-0.72 0-0.25 0.04-0.49 0.11-0.71s0.17-0.4 0.3-0.56 0.28-0.28 0.46-0.37 0.37-0.11 0.58-0.11z" />
	<path d="m142.82 111.99h0.41v3.08h1.36l-0.06 0.35h-1.71v-3.43z" />
	<path d="m136.85 119.19h0.45l0.72 2.2c0.02 0.08 0.05 0.15 0.07 0.23s0.04 0.15 0.06 0.23c0.02 0.07 0.03 0.13 0.05 0.19 0.01 0.06 0.02 0.09 0.03 0.12 0.01-0.04 0.03-0.13 0.07-0.25s0.08-0.28 0.14-0.47l0.74-2.25h0.42l-1.18 3.43h-0.42l-1.15-3.43z" />
	<path d="m140.1 119.19h0.68c0.13 0 0.25 0 0.35 0.01 0.1 0 0.19 0.02 0.27 0.03 0.08 0.02 0.16 0.05 0.24 0.08 0.08 0.04 0.16 0.08 0.24 0.14 0.2 0.14 0.35 0.33 0.44 0.58s0.14 0.54 0.14 0.88c0 0.3-0.04 0.56-0.11 0.77s-0.17 0.38-0.28 0.51c-0.08 0.08-0.15 0.15-0.23 0.21s-0.16 0.1-0.24 0.13-0.18 0.06-0.28 0.07-0.21 0.02-0.33 0.02h-0.89v-3.43zm0.41 0.33v2.76h0.41c0.09 0 0.18 0 0.26-0.01s0.16-0.02 0.24-0.05 0.14-0.06 0.21-0.11c0.06-0.05 0.12-0.11 0.17-0.19 0.08-0.13 0.13-0.28 0.17-0.44s0.06-0.33 0.06-0.52c0-0.26-0.02-0.48-0.06-0.65s-0.12-0.33-0.23-0.47c-0.06-0.07-0.11-0.12-0.17-0.16s-0.12-0.07-0.18-0.1c-0.07-0.02-0.13-0.04-0.21-0.04s-0.15-0.01-0.25-0.01h-0.42z" />
	<path d="m143.26 119.19h0.69c0.13 0 0.25 0 0.34 0.01 0.1 0 0.19 0.02 0.28 0.03 0.08 0.02 0.16 0.05 0.24 0.08 0.08 0.04 0.16 0.08 0.24 0.14 0.2 0.14 0.35 0.33 0.44 0.58s0.14 0.54 0.14 0.88c0 0.3-0.04 0.56-0.11 0.77s-0.17 0.38-0.28 0.51c-0.08 0.08-0.15 0.15-0.23 0.21s-0.16 0.1-0.24 0.13-0.18 0.06-0.28 0.07-0.21 0.02-0.33 0.02h-0.9v-3.43zm0.41 0.33v2.76h0.41c0.09 0 0.18 0 0.26-0.01s0.16-0.02 0.24-0.05c0.08-0.02 0.14-0.06 0.21-0.11s0.12-0.11 0.17-0.19c0.08-0.13 0.13-0.28 0.17-0.44s0.06-0.33 0.06-0.52c0-0.26-0.02-0.48-0.06-0.65s-0.12-0.33-0.23-0.47c-0.06-0.07-0.11-0.12-0.17-0.16s-0.12-0.07-0.18-0.1c-0.06-0.02-0.13-0.04-0.21-0.04s-0.16-0.01-0.25-0.01h-0.42z" />
	<path d="m138.22 126.31c0.36 0 0.71 0.11 1.04 0.33l-0.18 0.29c-0.17-0.11-0.31-0.18-0.43-0.22s-0.26-0.07-0.4-0.07c-0.22 0-0.39 0.05-0.51 0.15s-0.18 0.24-0.18 0.42c0 0.14 0.04 0.25 0.13 0.33s0.23 0.16 0.44 0.22l0.17 0.05 0.22 0.07c0.15 0.05 0.28 0.1 0.37 0.15s0.17 0.12 0.24 0.2 0.13 0.17 0.17 0.28 0.06 0.22 0.06 0.32c0 0.16-0.04 0.31-0.12 0.46s-0.2 0.27-0.35 0.37c-0.11 0.07-0.23 0.13-0.35 0.16s-0.26 0.05-0.42 0.05c-0.21 0-0.4-0.03-0.58-0.08s-0.35-0.13-0.52-0.24l0.18-0.32c0.14 0.1 0.29 0.18 0.44 0.22s0.31 0.07 0.48 0.07c0.13 0 0.24-0.01 0.32-0.03s0.16-0.06 0.23-0.12c0.16-0.12 0.25-0.29 0.25-0.49 0-0.3-0.21-0.51-0.62-0.64l-0.17-0.05-0.18-0.05c-0.16-0.05-0.28-0.09-0.37-0.14-0.09-0.04-0.17-0.1-0.24-0.17-0.14-0.15-0.21-0.34-0.21-0.56 0-0.14 0.03-0.28 0.08-0.4s0.13-0.23 0.23-0.31c0.1-0.09 0.21-0.15 0.35-0.2 0.11-0.02 0.26-0.05 0.43-0.05z" />
	<path d="m140.07 126.39h0.69c0.13 0 0.25 0 0.34 0.01 0.1 0 0.19 0.02 0.28 0.03 0.08 0.02 0.16 0.05 0.24 0.08 0.08 0.04 0.16 0.08 0.24 0.14 0.2 0.14 0.35 0.33 0.44 0.58s0.14 0.54 0.14 0.88c0 0.3-0.04 0.56-0.11 0.77s-0.17 0.38-0.28 0.51c-0.08 0.08-0.15 0.15-0.23 0.21s-0.16 0.1-0.24 0.13-0.18 0.06-0.28 0.07-0.21 0.02-0.33 0.02h-0.9v-3.43zm0.41 0.33v2.75h0.41c0.09 0 0.18 0 0.26-0.01s0.16-0.02 0.24-0.05c0.08-0.02 0.14-0.06 0.21-0.11 0.06-0.05 0.12-0.11 0.17-0.19 0.08-0.13 0.13-0.28 0.17-0.44s0.06-0.33 0.06-0.52c0-0.26-0.02-0.48-0.06-0.65s-0.12-0.33-0.23-0.47c-0.06-0.07-0.11-0.12-0.17-0.16s-0.12-0.07-0.18-0.09-0.13-0.04-0.21-0.04c-0.07-0.01-0.16-0.01-0.25-0.01h-0.42z" />
	<path d="m144.4 126.39 1.13 3.43h-0.46l-0.33-1.05h-1.28l-0.33 1.05h-0.42l1.14-3.43h0.55zm0.24 2.04-0.53-1.68-0.54 1.68h1.07z" />
	<path d="m138.49 133.55c0.36 0 0.67 0.11 0.94 0.34l-0.18 0.25c-0.14-0.1-0.27-0.17-0.38-0.21s-0.23-0.06-0.37-0.06c-0.2 0-0.38 0.05-0.53 0.14s-0.26 0.24-0.33 0.44c-0.09 0.26-0.13 0.55-0.13 0.87 0 0.23 0.02 0.43 0.06 0.61s0.1 0.32 0.18 0.43 0.2 0.2 0.35 0.27c0.15 0.06 0.31 0.1 0.48 0.1 0.22 0 0.4-0.04 0.54-0.13v-1.04h-0.69l-0.08-0.34h1.16v1.6c-0.12 0.08-0.27 0.14-0.44 0.19s-0.34 0.07-0.52 0.07c-0.44 0-0.79-0.14-1.06-0.43-0.15-0.16-0.26-0.35-0.32-0.56-0.07-0.21-0.1-0.47-0.1-0.77 0-0.33 0.04-0.62 0.13-0.85s0.22-0.43 0.4-0.59c0.24-0.22 0.54-0.33 0.89-0.33z" />
	<path d="m140.54 133.59h0.47l1.14 2.19c0.04 0.09 0.08 0.17 0.13 0.26s0.07 0.16 0.1 0.23 0.05 0.12 0.07 0.17c0.02 0.04 0.02 0.03 0.02-0.03-0.01-0.06-0.01-0.14-0.02-0.24 0-0.1-0.01-0.21-0.01-0.34s-0.01-0.25-0.01-0.37l-0.01-1.87h0.41v3.43h-0.43l-1.1-2.1c-0.06-0.1-0.11-0.2-0.16-0.3s-0.09-0.19-0.12-0.26c-0.04-0.08-0.06-0.14-0.08-0.19s-0.03-0.04-0.02 0.01c0 0.05 0.01 0.13 0.01 0.22 0.01 0.09 0.01 0.19 0.02 0.3s0.01 0.22 0.01 0.33l0.02 1.99h-0.42v-3.43z" />
	<path d="m143.86 133.59h0.68c0.13 0 0.25 0 0.35 0.01 0.1 0 0.19 0.02 0.27 0.03 0.08 0.02 0.16 0.05 0.24 0.08 0.08 0.04 0.16 0.08 0.24 0.14 0.2 0.14 0.35 0.33 0.44 0.58s0.14 0.54 0.14 0.88c0 0.3-0.04 0.56-0.11 0.77s-0.17 0.38-0.28 0.51c-0.08 0.08-0.15 0.15-0.23 0.21s-0.16 0.1-0.24 0.13-0.18 0.06-0.28 0.07-0.21 0.02-0.33 0.02h-0.89v-3.43zm0.41 0.33v2.75h0.41c0.09 0 0.18 0 0.26-0.01s0.16-0.02 0.24-0.05c0.08-0.02 0.14-0.06 0.21-0.11 0.06-0.05 0.12-0.11 0.17-0.19 0.08-0.13 0.13-0.28 0.17-0.44s0.06-0.33 0.06-0.52c0-0.26-0.02-0.48-0.06-0.65s-0.12-0.33-0.23-0.47c-0.06-0.07-0.11-0.12-0.17-0.16s-0.12-0.07-0.18-0.09c-0.07-0.02-0.13-0.04-0.21-0.04-0.07-0.01-0.15-0.01-0.25-0.01h-0.42z" />
	<polygon class="st14" points="134.61 135.42 134.61 135.48 134.6 135.54 134.59 135.6 134.58 135.66 134.57 135.71 134.56 135.77 134.54 135.83 134.52 135.89 134.5 135.94 134.48 136 134.46 136.05 134.43 136.1 134.41 136.16 134.38 136.21 134.35 136.26 134.32 136.31 134.28 136.36 134.25 136.4 134.21 136.45 134.17 136.49 134.13 136.54 134.09 136.58 134.04 136.62 134 136.66 133.95 136.69 133.91 136.73 133.86 136.76 133.81 136.79 133.76 136.82 133.71 136.85 133.65 136.88 133.6 136.9 133.54 136.93 133.49 136.95 133.43 136.97 133.38 136.98 133.32 137 133.26 137.01 133.2 137.02 133.15 137.03 133.09 137.04 133.03 137.04 132.97 137.05 132.91 137.05 132.85 137.05 132.79 137.04 132.73 137.04 132.68 137.03 132.62 137.02 132.56 137.01 132.5 137 132.44 136.98 132.39 136.97 132.33 136.95 132.28 136.93 132.22 136.9 132.17 136.88 132.12 136.85 132.06 136.82 132.01 136.79 131.96 136.76 131.92 136.73 131.87 136.69 131.82 136.66 131.78 136.62 131.73 136.58 131.69 136.54 131.65 136.49 131.61 136.45 131.58 136.4 131.54 136.36 131.51 136.31 131.47 136.26 131.44 136.21 131.41 136.16 131.39 136.1 131.36 136.05 131.34 136 131.32 135.94 131.3 135.89 131.28 135.83 131.26 135.77 131.25 135.71 131.24 135.66 131.23 135.6 131.22 135.54 131.21 135.48 131.21 135.42 131.21 135.36 131.21 135.3 131.21 135.24 131.22 135.19 131.22 135.13 131.23 135.07 131.24 135.01 131.26 134.95 131.27 134.9 131.29 134.84 131.31 134.78 131.33 134.73 131.35 134.67 131.37 134.62 131.4 134.57 131.43 134.51 131.46 134.46 131.49 134.41 131.52 134.37 131.56 134.32 131.59 134.27 131.63 134.23 131.67 134.18 131.71 134.14 131.76 134.1 131.8 134.06 131.85 134.02 131.89 133.99 131.94 133.95 131.99 133.92 132.04 133.89 132.09 133.86 132.14 133.83 132.2 133.81 132.25 133.78 132.3 133.76 132.36 133.74 132.42 133.72 132.47 133.7 132.53 133.69 132.59 133.68 132.65 133.67 132.7 133.66 132.76 133.65 132.82 133.65 132.88 133.65 132.94 133.65 133 133.65 133.06 133.65 133.12 133.66 133.18 133.67 133.23 133.68 133.29 133.69 133.35 133.7 133.41 133.72 133.46 133.74 133.52 133.76 133.57 133.78 133.63 133.81 133.68 133.83 133.73 133.86 133.78 133.89 133.83 133.92 133.88 133.95 133.93 133.99 133.98 134.02 134.02 134.06 134.07 134.1 134.11 134.14 134.15 134.18 134.19 134.23 134.23 134.27 134.26 134.32 134.3 134.37 134.33 134.41 134.36 134.46 134.39 134.51 134.42 134.57 134.45 134.62 134.47 134.67 134.49 134.73 134.51 134.78 134.53 134.84 134.55 134.9 134.57 134.95 134.58 135.01 134.59 135.07 134.6 135.13 134.6 135.19 134.61 135.24 134.61 135.3 134.61 135.36" />
	<polygon class="st14" points="134.61 128.22 134.61 128.28 134.6 128.34 134.59 128.4 134.58 128.46 134.57 128.51 134.56 128.57 134.54 128.63 134.52 128.69 134.5 128.74 134.48 128.8 134.46 128.85 134.43 128.9 134.41 128.96 134.38 129.01 134.35 129.06 134.32 129.11 134.28 129.16 134.25 129.2 134.21 129.25 134.17 129.29 134.13 129.34 134.09 129.38 134.04 129.42 134 129.46 133.95 129.49 133.91 129.53 133.86 129.56 133.81 129.59 133.76 129.62 133.71 129.65 133.65 129.68 133.6 129.7 133.54 129.73 133.49 129.75 133.43 129.77 133.38 129.78 133.32 129.8 133.26 129.81 133.2 129.82 133.15 129.83 133.09 129.84 133.03 129.84 132.97 129.85 132.91 129.85 132.85 129.85 132.79 129.84 132.73 129.84 132.68 129.83 132.62 129.82 132.56 129.81 132.5 129.8 132.44 129.78 132.39 129.77 132.33 129.75 132.28 129.73 132.22 129.7 132.17 129.68 132.12 129.65 132.06 129.62 132.01 129.59 131.96 129.56 131.92 129.53 131.87 129.49 131.82 129.46 131.78 129.42 131.73 129.38 131.69 129.34 131.65 129.29 131.61 129.25 131.58 129.2 131.54 129.16 131.51 129.11 131.47 129.06 131.44 129.01 131.41 128.96 131.39 128.9 131.36 128.85 131.34 128.8 131.32 128.74 131.3 128.69 131.28 128.63 131.26 128.57 131.25 128.51 131.24 128.46 131.23 128.4 131.22 128.34 131.21 128.28 131.21 128.22 131.21 128.16 131.21 128.1 131.21 128.04 131.22 127.99 131.22 127.93 131.23 127.87 131.24 127.81 131.26 127.75 131.27 127.7 131.29 127.64 131.31 127.58 131.33 127.53 131.35 127.47 131.37 127.42 131.4 127.37 131.43 127.31 131.46 127.26 131.49 127.21 131.52 127.17 131.56 127.12 131.59 127.07 131.63 127.03 131.67 126.98 131.71 126.94 131.76 126.9 131.8 126.86 131.85 126.82 131.89 126.79 131.94 126.75 131.99 126.72 132.04 126.69 132.09 126.66 132.14 126.63 132.2 126.61 132.25 126.58 132.3 126.56 132.36 126.54 132.42 126.52 132.47 126.5 132.53 126.49 132.59 126.48 132.65 126.47 132.7 126.46 132.76 126.45 132.82 126.45 132.88 126.45 132.94 126.45 133 126.45 133.06 126.45 133.12 126.46 133.18 126.47 133.23 126.48 133.29 126.49 133.35 126.5 133.41 126.52 133.46 126.54 133.52 126.56 133.57 126.58 133.63 126.61 133.68 126.63 133.73 126.66 133.78 126.69 133.83 126.72 133.88 126.75 133.93 126.79 133.98 126.82 134.02 126.86 134.07 126.9 134.11 126.94 134.15 126.98 134.19 127.03 134.23 127.07 134.26 127.12 134.3 127.17 134.33 127.21 134.36 127.26 134.39 127.31 134.42 127.37 134.45 127.42 134.47 127.47 134.49 127.53 134.51 127.58 134.53 127.64 134.55 127.7 134.57 127.75 134.58 127.81 134.59 127.87 134.6 127.93 134.6 127.99 134.61 128.04 134.61 128.1 134.61 128.16" />
	<polygon class="st14" points="134.61 121.02 134.61 121.08 134.6 121.14 134.59 121.2 134.58 121.26 134.57 121.31 134.56 121.37 134.54 121.43 134.52 121.49 134.5 121.54 134.48 121.6 134.46 121.65 134.43 121.7 134.41 121.76 134.38 121.81 134.35 121.86 134.32 121.91 134.28 121.96 134.25 122 134.21 122.05 134.17 122.09 134.13 122.14 134.09 122.18 134.04 122.22 134 122.26 133.95 122.29 133.91 122.33 133.86 122.36 133.81 122.39 133.76 122.42 133.71 122.45 133.65 122.48 133.6 122.5 133.54 122.53 133.49 122.55 133.43 122.57 133.38 122.58 133.32 122.6 133.26 122.61 133.2 122.62 133.15 122.63 133.09 122.64 133.03 122.64 132.97 122.65 132.91 122.65 132.85 122.65 132.79 122.64 132.73 122.64 132.68 122.63 132.62 122.62 132.56 122.61 132.5 122.6 132.44 122.58 132.39 122.57 132.33 122.55 132.28 122.53 132.22 122.5 132.17 122.48 132.12 122.45 132.06 122.42 132.01 122.39 131.96 122.36 131.92 122.33 131.87 122.29 131.82 122.26 131.78 122.22 131.73 122.18 131.69 122.14 131.65 122.09 131.61 122.05 131.58 122 131.54 121.96 131.51 121.91 131.47 121.86 131.44 121.81 131.41 121.76 131.39 121.7 131.36 121.65 131.34 121.6 131.32 121.54 131.3 121.49 131.28 121.43 131.26 121.37 131.25 121.31 131.24 121.26 131.23 121.2 131.22 121.14 131.21 121.08 131.21 121.02 131.21 120.96 131.21 120.9 131.21 120.85 131.22 120.79 131.22 120.73 131.23 120.67 131.24 120.61 131.26 120.55 131.27 120.5 131.29 120.44 131.31 120.38 131.33 120.33 131.35 120.27 131.37 120.22 131.4 120.17 131.43 120.11 131.46 120.06 131.49 120.01 131.52 119.97 131.56 119.92 131.59 119.87 131.63 119.83 131.67 119.78 131.71 119.74 131.76 119.7 131.8 119.66 131.85 119.62 131.89 119.59 131.94 119.55 131.99 119.52 132.04 119.49 132.09 119.46 132.14 119.43 132.2 119.41 132.25 119.38 132.3 119.36 132.36 119.34 132.42 119.32 132.47 119.3 132.53 119.29 132.59 119.28 132.65 119.27 132.7 119.26 132.76 119.25 132.82 119.25 132.88 119.25 132.94 119.25 133 119.25 133.06 119.25 133.12 119.26 133.18 119.27 133.23 119.28 133.29 119.29 133.35 119.3 133.41 119.32 133.46 119.34 133.52 119.36 133.57 119.38 133.63 119.41 133.68 119.43 133.73 119.46 133.78 119.49 133.83 119.52 133.88 119.55 133.93 119.59 133.98 119.62 134.02 119.66 134.07 119.7 134.11 119.74 134.15 119.78 134.19 119.83 134.23 119.87 134.26 119.92 134.3 119.97 134.33 120.01 134.36 120.06 134.39 120.11 134.42 120.17 134.45 120.22 134.47 120.27 134.49 120.33 134.51 120.38 134.53 120.44 134.55 120.5 134.57 120.55 134.58 120.61 134.59 120.67 134.6 120.73 134.6 120.79 134.61 120.85 134.61 120.9 134.61 120.96" />
	<polygon class="st14" points="134.61 113.82 134.61 113.88 134.6 113.94 134.59 114 134.58 114.06 134.57 114.11 134.56 114.17 134.54 114.23 134.52 114.29 134.5 114.34 134.48 114.4 134.46 114.45 134.43 114.5 134.41 114.56 134.38 114.61 134.35 114.66 134.32 114.71 134.28 114.76 134.25 114.8 134.21 114.85 134.17 114.89 134.13 114.94 134.09 114.98 134.04 115.02 134 115.06 133.95 115.09 133.91 115.13 133.86 115.16 133.81 115.19 133.76 115.22 133.71 115.25 133.65 115.28 133.6 115.3 133.54 115.33 133.49 115.35 133.43 115.37 133.38 115.38 133.32 115.4 133.26 115.41 133.2 115.42 133.15 115.43 133.09 115.44 133.03 115.44 132.97 115.45 132.91 115.45 132.85 115.45 132.79 115.44 132.73 115.44 132.68 115.43 132.62 115.42 132.56 115.41 132.5 115.4 132.44 115.38 132.39 115.37 132.33 115.35 132.28 115.33 132.22 115.3 132.17 115.28 132.12 115.25 132.06 115.22 132.01 115.19 131.96 115.16 131.92 115.13 131.87 115.09 131.82 115.06 131.78 115.02 131.73 114.98 131.69 114.94 131.65 114.89 131.61 114.85 131.58 114.8 131.54 114.76 131.51 114.71 131.47 114.66 131.44 114.61 131.41 114.56 131.39 114.5 131.36 114.45 131.34 114.4 131.32 114.34 131.3 114.29 131.28 114.23 131.26 114.17 131.25 114.11 131.24 114.06 131.23 114 131.22 113.94 131.21 113.88 131.21 113.82 131.21 113.76 131.21 113.7 131.21 113.64 131.22 113.59 131.22 113.53 131.23 113.47 131.24 113.41 131.26 113.35 131.27 113.3 131.29 113.24 131.31 113.18 131.33 113.13 131.35 113.07 131.37 113.02 131.4 112.97 131.43 112.91 131.46 112.86 131.49 112.81 131.52 112.77 131.56 112.72 131.59 112.67 131.63 112.63 131.67 112.58 131.71 112.54 131.76 112.5 131.8 112.46 131.85 112.42 131.89 112.39 131.94 112.35 131.99 112.32 132.04 112.29 132.09 112.26 132.14 112.23 132.2 112.21 132.25 112.18 132.3 112.16 132.36 112.14 132.42 112.12 132.47 112.1 132.53 112.09 132.59 112.08 132.65 112.07 132.7 112.06 132.76 112.05 132.82 112.05 132.88 112.05 132.94 112.05 133 112.05 133.06 112.05 133.12 112.06 133.18 112.07 133.23 112.08 133.29 112.09 133.35 112.1 133.41 112.12 133.46 112.14 133.52 112.16 133.57 112.18 133.63 112.21 133.68 112.23 133.73 112.26 133.78 112.29 133.83 112.32 133.88 112.35 133.93 112.39 133.98 112.42 134.02 112.46 134.07 112.5 134.11 112.54 134.15 112.58 134.19 112.63 134.23 112.67 134.26 112.72 134.3 112.77 134.33 112.81 134.36 112.86 134.39 112.91 134.42 112.97 134.45 113.02 134.47 113.07 134.49 113.13 134.51 113.18 134.53 113.24 134.55 113.3 134.57 113.35 134.58 113.41 134.59 113.47 134.6 113.53 134.6 113.59 134.61 113.64 134.61 113.7 134.61 113.76" />
	<polygon class="st14" points="134.61 106.62 134.61 106.68 134.6 106.74 134.59 106.8 134.58 106.86 134.57 106.91 134.56 106.97 134.54 107.03 134.52 107.09 134.5 107.14 134.48 107.2 134.46 107.25 134.43 107.3 134.41 107.36 134.38 107.41 134.35 107.46 134.32 107.51 134.28 107.56 134.25 107.6 134.21 107.65 134.17 107.69 134.13 107.74 134.09 107.78 134.04 107.82 134 107.86 133.95 107.89 133.91 107.93 133.86 107.96 133.81 107.99 133.76 108.02 133.71 108.05 133.65 108.08 133.6 108.1 133.54 108.13 133.49 108.15 133.43 108.17 133.38 108.18 133.32 108.2 133.26 108.21 133.2 108.22 133.15 108.23 133.09 108.24 133.03 108.25 132.97 108.25 132.91 108.25 132.85 108.25 132.79 108.25 132.73 108.24 132.68 108.23 132.62 108.22 132.56 108.21 132.5 108.2 132.44 108.18 132.39 108.17 132.33 108.15 132.28 108.13 132.22 108.1 132.17 108.08 132.12 108.05 132.06 108.02 132.01 107.99 131.96 107.96 131.92 107.93 131.87 107.89 131.82 107.86 131.78 107.82 131.73 107.78 131.69 107.74 131.65 107.69 131.61 107.65 131.58 107.6 131.54 107.56 131.51 107.51 131.47 107.46 131.44 107.41 131.41 107.36 131.39 107.3 131.36 107.25 131.34 107.2 131.32 107.14 131.3 107.09 131.28 107.03 131.26 106.97 131.25 106.91 131.24 106.86 131.23 106.8 131.22 106.74 131.21 106.68 131.21 106.62 131.21 106.56 131.21 106.5 131.21 106.44 131.22 106.39 131.22 106.33 131.23 106.27 131.24 106.21 131.26 106.15 131.27 106.1 131.29 106.04 131.31 105.98 131.33 105.93 131.35 105.87 131.37 105.82 131.4 105.77 131.43 105.71 131.46 105.66 131.49 105.61 131.52 105.57 131.56 105.52 131.59 105.47 131.63 105.43 131.67 105.38 131.71 105.34 131.76 105.3 131.8 105.26 131.85 105.22 131.89 105.19 131.94 105.15 131.99 105.12 132.04 105.09 132.09 105.06 132.14 105.03 132.2 105 132.25 104.98 132.3 104.96 132.36 104.94 132.42 104.92 132.47 104.9 132.53 104.89 132.59 104.88 132.65 104.87 132.7 104.86 132.76 104.85 132.82 104.85 132.88 104.85 132.94 104.85 133 104.85 133.06 104.85 133.12 104.86 133.18 104.87 133.23 104.88 133.29 104.89 133.35 104.9 133.41 104.92 133.46 104.94 133.52 104.96 133.57 104.98 133.63 105 133.68 105.03 133.73 105.06 133.78 105.09 133.83 105.12 133.88 105.15 133.93 105.19 133.98 105.22 134.02 105.26 134.07 105.3 134.11 105.34 134.15 105.38 134.19 105.43 134.23 105.47 134.26 105.52 134.3 105.57 134.33 105.61 134.36 105.66 134.39 105.71 134.42 105.77 134.45 105.82 134.47 105.87 134.49 105.93 134.51 105.98 134.53 106.04 134.55 106.1 134.57 106.15 134.58 106.21 134.59 106.27 134.6 106.33 134.6 106.39 134.61 106.44 134.61 106.5 134.61 106.56" />
	<polygon class="st14" points="198.85 113.7 198.85 113.64 198.85 113.59 198.86 113.53 198.87 113.47 198.88 113.41 198.89 113.35 198.91 113.3 198.92 113.24 198.94 113.18 198.96 113.13 198.98 113.07 199.01 113.02 199.03 112.97 199.06 112.91 199.09 112.86 199.12 112.81 199.16 112.77 199.19 112.72 199.23 112.67 199.27 112.63 199.31 112.58 199.35 112.54 199.39 112.5 199.43 112.46 199.48 112.42 199.53 112.39 199.57 112.35 199.62 112.32 199.67 112.29 199.72 112.26 199.78 112.23 199.83 112.21 199.88 112.18 199.94 112.16 199.99 112.14 200.05 112.12 200.11 112.1 200.16 112.09 200.22 112.08 200.28 112.07 200.34 112.06 200.4 112.05 200.46 112.05 200.52 112.05 200.57 112.05 200.63 112.05 200.69 112.05 200.75 112.06 200.81 112.07 200.87 112.08 200.93 112.09 200.98 112.1 201.04 112.12 201.1 112.14 201.15 112.16 201.21 112.18 201.26 112.21 201.31 112.23 201.37 112.26 201.42 112.29 201.47 112.32 201.52 112.35 201.56 112.39 201.61 112.42 201.66 112.46 201.7 112.5 201.74 112.54 201.78 112.58 201.82 112.63 201.86 112.67 201.9 112.72 201.93 112.77 201.97 112.81 202 112.86 202.03 112.91 202.06 112.97 202.08 113.02 202.11 113.07 202.13 113.13 202.15 113.18 202.17 113.24 202.18 113.3 202.2 113.35 202.21 113.41 202.22 113.47 202.23 113.53 202.24 113.59 202.24 113.64 202.25 113.7 202.25 113.76 202.24 113.82 202.24 113.88 202.24 113.94 202.23 114 202.22 114.06 202.21 114.11 202.19 114.17 202.18 114.23 202.16 114.29 202.14 114.34 202.12 114.4 202.09 114.45 202.07 114.5 202.04 114.56 202.01 114.61 201.98 114.66 201.95 114.71 201.92 114.76 201.88 114.8 201.84 114.85 201.8 114.89 201.76 114.94 201.72 114.98 201.68 115.02 201.63 115.06 201.59 115.09 201.54 115.13 201.49 115.16 201.44 115.19 201.39 115.22 201.34 115.25 201.29 115.28 201.23 115.3 201.18 115.33 201.12 115.35 201.07 115.37 201.01 115.38 200.95 115.4 200.9 115.41 200.84 115.42 200.78 115.43 200.72 115.44 200.66 115.45 200.6 115.45 200.55 115.45 200.49 115.45 200.43 115.45 200.37 115.44 200.31 115.43 200.25 115.42 200.19 115.41 200.14 115.4 200.08 115.38 200.02 115.37 199.97 115.35 199.91 115.33 199.86 115.3 199.8 115.28 199.75 115.25 199.7 115.22 199.65 115.19 199.6 115.16 199.55 115.13 199.5 115.09 199.46 115.06 199.41 115.02 199.37 114.98 199.33 114.94 199.29 114.89 199.25 114.85 199.21 114.8 199.17 114.76 199.14 114.71 199.11 114.66 199.08 114.61 199.05 114.56 199.02 114.5 199 114.45 198.97 114.4 198.95 114.34 198.93 114.29 198.91 114.23 198.9 114.17 198.88 114.11 198.87 114.06 198.86 114 198.86 113.94 198.85 113.88 198.85 113.82 198.84 113.76" />
	<polygon class="st14" points="198.84 106.56 198.85 106.5 198.85 106.44 198.85 106.39 198.86 106.33 198.87 106.27 198.88 106.21 198.89 106.15 198.91 106.1 198.92 106.04 198.94 105.98 198.96 105.93 198.98 105.87 199.01 105.82 199.03 105.77 199.06 105.71 199.09 105.66 199.12 105.61 199.16 105.57 199.19 105.52 199.23 105.47 199.27 105.43 199.31 105.38 199.35 105.34 199.39 105.3 199.43 105.26 199.48 105.22 199.53 105.19 199.57 105.15 199.62 105.12 199.67 105.09 199.72 105.06 199.78 105.03 199.83 105.01 199.88 104.98 199.94 104.96 199.99 104.94 200.05 104.92 200.11 104.9 200.16 104.89 200.22 104.88 200.28 104.87 200.34 104.86 200.4 104.85 200.46 104.85 200.52 104.85 200.57 104.85 200.63 104.85 200.69 104.85 200.75 104.86 200.81 104.87 200.87 104.88 200.93 104.89 200.98 104.9 201.04 104.92 201.1 104.94 201.15 104.96 201.21 104.98 201.26 105.01 201.31 105.03 201.37 105.06 201.42 105.09 201.47 105.12 201.52 105.15 201.56 105.19 201.61 105.22 201.66 105.26 201.7 105.3 201.74 105.34 201.78 105.38 201.82 105.43 201.86 105.47 201.9 105.52 201.93 105.57 201.97 105.61 202 105.66 202.03 105.71 202.06 105.77 202.08 105.82 202.11 105.87 202.13 105.93 202.15 105.98 202.17 106.04 202.18 106.1 202.2 106.15 202.21 106.21 202.22 106.27 202.23 106.33 202.24 106.39 202.24 106.44 202.25 106.5 202.25 106.56 202.24 106.62 202.24 106.68 202.24 106.74 202.23 106.8 202.22 106.86 202.21 106.91 202.19 106.97 202.18 107.03 202.16 107.09 202.14 107.14 202.12 107.2 202.09 107.25 202.07 107.3 202.04 107.36 202.01 107.41 201.98 107.46 201.95 107.51 201.92 107.56 201.88 107.6 201.84 107.65 201.8 107.69 201.76 107.74 201.72 107.78 201.68 107.82 201.63 107.86 201.59 107.89 201.54 107.93 201.49 107.96 201.44 107.99 201.39 108.02 201.34 108.05 201.29 108.08 201.23 108.1 201.18 108.13 201.12 108.15 201.07 108.17 201.01 108.18 200.95 108.2 200.9 108.21 200.84 108.22 200.78 108.23 200.72 108.24 200.66 108.25 200.6 108.25 200.55 108.25 200.49 108.25 200.43 108.25 200.37 108.24 200.31 108.23 200.25 108.22 200.19 108.21 200.14 108.2 200.08 108.18 200.02 108.17 199.97 108.15 199.91 108.13 199.86 108.1 199.8 108.08 199.75 108.05 199.7 108.02 199.65 107.99 199.6 107.96 199.55 107.93 199.5 107.89 199.46 107.86 199.41 107.82 199.37 107.78 199.33 107.74 199.29 107.69 199.25 107.65 199.21 107.6 199.17 107.56 199.14 107.51 199.11 107.46 199.08 107.41 199.05 107.36 199.02 107.3 199 107.25 198.97 107.2 198.95 107.14 198.93 107.09 198.91 107.03 198.9 106.97 198.88 106.91 198.87 106.86 198.86 106.8 198.86 106.74 198.85 106.68 198.85 106.62" />
	<polygon class="st14" points="198.85 120.9 198.85 120.85 198.85 120.79 198.86 120.73 198.87 120.67 198.88 120.61 198.89 120.55 198.91 120.5 198.92 120.44 198.94 120.38 198.96 120.33 198.98 120.27 199.01 120.22 199.03 120.17 199.06 120.11 199.09 120.06 199.12 120.01 199.16 119.97 199.19 119.92 199.23 119.87 199.27 119.83 199.31 119.78 199.35 119.74 199.39 119.7 199.43 119.66 199.48 119.62 199.53 119.59 199.57 119.55 199.62 119.52 199.67 119.49 199.72 119.46 199.78 119.43 199.83 119.41 199.88 119.38 199.94 119.36 199.99 119.34 200.05 119.32 200.11 119.3 200.16 119.29 200.22 119.28 200.28 119.27 200.34 119.26 200.4 119.25 200.46 119.25 200.52 119.25 200.57 119.25 200.63 119.25 200.69 119.25 200.75 119.26 200.81 119.27 200.87 119.28 200.93 119.29 200.98 119.3 201.04 119.32 201.1 119.34 201.15 119.36 201.21 119.38 201.26 119.41 201.31 119.43 201.37 119.46 201.42 119.49 201.47 119.52 201.52 119.55 201.56 119.59 201.61 119.62 201.66 119.66 201.7 119.7 201.74 119.74 201.78 119.78 201.82 119.83 201.86 119.87 201.9 119.92 201.93 119.97 201.97 120.01 202 120.06 202.03 120.11 202.06 120.17 202.08 120.22 202.11 120.27 202.13 120.33 202.15 120.38 202.17 120.44 202.18 120.5 202.2 120.55 202.21 120.61 202.22 120.67 202.23 120.73 202.24 120.79 202.24 120.85 202.25 120.9 202.25 120.96 202.24 121.02 202.24 121.08 202.24 121.14 202.23 121.2 202.22 121.26 202.21 121.31 202.19 121.37 202.18 121.43 202.16 121.49 202.14 121.54 202.12 121.6 202.09 121.65 202.07 121.7 202.04 121.76 202.01 121.81 201.98 121.86 201.95 121.91 201.92 121.96 201.88 122 201.84 122.05 201.8 122.09 201.76 122.14 201.72 122.18 201.68 122.22 201.63 122.26 201.59 122.29 201.54 122.33 201.49 122.36 201.44 122.39 201.39 122.42 201.34 122.45 201.29 122.48 201.23 122.5 201.18 122.53 201.12 122.55 201.07 122.57 201.01 122.58 200.95 122.6 200.9 122.61 200.84 122.62 200.78 122.63 200.72 122.64 200.66 122.65 200.6 122.65 200.55 122.65 200.49 122.65 200.43 122.65 200.37 122.64 200.31 122.63 200.25 122.62 200.19 122.61 200.14 122.6 200.08 122.58 200.02 122.57 199.97 122.55 199.91 122.53 199.86 122.5 199.8 122.48 199.75 122.45 199.7 122.42 199.65 122.39 199.6 122.36 199.55 122.33 199.5 122.29 199.46 122.26 199.41 122.22 199.37 122.18 199.33 122.14 199.29 122.09 199.25 122.05 199.21 122 199.17 121.96 199.14 121.91 199.11 121.86 199.08 121.81 199.05 121.76 199.02 121.7 199 121.65 198.97 121.6 198.95 121.54 198.93 121.49 198.91 121.43 198.9 121.37 198.88 121.31 198.87 121.26 198.86 121.2 198.86 121.14 198.85 121.08 198.85 121.02 198.84 120.96" />
	<polygon class="st14" points="198.85 128.1 198.85 128.05 198.85 127.99 198.86 127.93 198.87 127.87 198.88 127.81 198.89 127.75 198.91 127.7 198.92 127.64 198.94 127.58 198.96 127.53 198.98 127.47 199.01 127.42 199.03 127.37 199.06 127.31 199.09 127.26 199.12 127.21 199.16 127.17 199.19 127.12 199.23 127.07 199.27 127.03 199.31 126.98 199.35 126.94 199.39 126.9 199.43 126.86 199.48 126.82 199.53 126.79 199.57 126.75 199.62 126.72 199.67 126.69 199.72 126.66 199.78 126.63 199.83 126.61 199.88 126.58 199.94 126.56 199.99 126.54 200.05 126.52 200.11 126.5 200.16 126.49 200.22 126.48 200.28 126.47 200.34 126.46 200.4 126.45 200.46 126.45 200.52 126.45 200.57 126.45 200.63 126.45 200.69 126.45 200.75 126.46 200.81 126.47 200.87 126.48 200.93 126.49 200.98 126.5 201.04 126.52 201.1 126.54 201.15 126.56 201.21 126.58 201.26 126.61 201.31 126.63 201.37 126.66 201.42 126.69 201.47 126.72 201.52 126.75 201.56 126.79 201.61 126.82 201.66 126.86 201.7 126.9 201.74 126.94 201.78 126.98 201.82 127.03 201.86 127.07 201.9 127.12 201.93 127.17 201.97 127.21 202 127.26 202.03 127.31 202.06 127.37 202.08 127.42 202.11 127.47 202.13 127.53 202.15 127.58 202.17 127.64 202.18 127.7 202.2 127.75 202.21 127.81 202.22 127.87 202.23 127.93 202.24 127.99 202.24 128.05 202.25 128.1 202.25 128.16 202.24 128.22 202.24 128.28 202.24 128.34 202.23 128.4 202.22 128.46 202.21 128.51 202.19 128.57 202.18 128.63 202.16 128.69 202.14 128.74 202.12 128.8 202.09 128.85 202.07 128.9 202.04 128.96 202.01 129.01 201.98 129.06 201.95 129.11 201.92 129.16 201.88 129.2 201.84 129.25 201.8 129.29 201.76 129.34 201.72 129.38 201.68 129.42 201.63 129.46 201.59 129.49 201.54 129.53 201.49 129.56 201.44 129.59 201.39 129.62 201.34 129.65 201.29 129.68 201.23 129.7 201.18 129.73 201.12 129.75 201.07 129.77 201.01 129.78 200.95 129.8 200.9 129.81 200.84 129.82 200.78 129.83 200.72 129.84 200.66 129.85 200.6 129.85 200.55 129.85 200.49 129.85 200.43 129.85 200.37 129.84 200.31 129.83 200.25 129.82 200.19 129.81 200.14 129.8 200.08 129.78 200.02 129.77 199.97 129.75 199.91 129.73 199.86 129.7 199.8 129.68 199.75 129.65 199.7 129.62 199.65 129.59 199.6 129.56 199.55 129.53 199.5 129.49 199.46 129.46 199.41 129.42 199.37 129.38 199.33 129.34 199.29 129.29 199.25 129.25 199.21 129.2 199.17 129.16 199.14 129.11 199.11 129.06 199.08 129.01 199.05 128.96 199.02 128.9 199 128.85 198.97 128.8 198.95 128.74 198.93 128.69 198.91 128.63 198.9 128.57 198.88 128.51 198.87 128.46 198.86 128.4 198.86 128.34 198.85 128.28 198.85 128.22 198.84 128.16" />
	<polygon class="st14" points="198.84 135.3 198.85 135.25 198.85 135.19 198.86 135.13 198.87 135.07 198.88 135.01 198.89 134.95 198.91 134.9 198.92 134.84 198.94 134.78 198.96 134.73 198.98 134.67 199.01 134.62 199.03 134.57 199.06 134.51 199.09 134.46 199.12 134.41 199.16 134.37 199.19 134.32 199.23 134.27 199.27 134.23 199.31 134.18 199.35 134.14 199.39 134.1 199.43 134.06 199.48 134.02 199.53 133.99 199.57 133.95 199.62 133.92 199.67 133.89 199.72 133.86 199.78 133.83 199.83 133.81 199.88 133.78 199.94 133.76 199.99 133.74 200.05 133.72 200.11 133.7 200.16 133.69 200.22 133.68 200.28 133.67 200.34 133.66 200.4 133.65 200.46 133.65 200.52 133.65 200.57 133.65 200.63 133.65 200.69 133.65 200.75 133.66 200.81 133.67 200.87 133.68 200.93 133.69 200.98 133.7 201.04 133.72 201.1 133.74 201.15 133.76 201.21 133.78 201.26 133.81 201.31 133.83 201.37 133.86 201.42 133.89 201.47 133.92 201.52 133.95 201.56 133.99 201.61 134.02 201.66 134.06 201.7 134.1 201.74 134.14 201.78 134.18 201.82 134.23 201.86 134.27 201.9 134.32 201.93 134.37 201.97 134.41 202 134.46 202.03 134.51 202.06 134.57 202.08 134.62 202.11 134.67 202.13 134.73 202.15 134.78 202.17 134.84 202.18 134.9 202.2 134.95 202.21 135.01 202.22 135.07 202.23 135.13 202.24 135.19 202.24 135.25 202.25 135.3 202.25 135.36 202.24 135.42 202.24 135.48 202.24 135.54 202.23 135.6 202.22 135.66 202.21 135.71 202.19 135.77 202.18 135.83 202.16 135.89 202.14 135.94 202.12 136 202.09 136.05 202.07 136.1 202.04 136.16 202.01 136.21 201.98 136.26 201.95 136.31 201.92 136.36 201.88 136.4 201.84 136.45 201.8 136.49 201.76 136.54 201.72 136.58 201.68 136.62 201.63 136.66 201.59 136.69 201.54 136.73 201.49 136.76 201.44 136.79 201.39 136.82 201.34 136.85 201.29 136.88 201.23 136.9 201.18 136.93 201.12 136.95 201.07 136.97 201.01 136.98 200.95 137 200.9 137.01 200.84 137.02 200.78 137.03 200.72 137.04 200.66 137.04 200.6 137.05 200.55 137.05 200.49 137.05 200.43 137.04 200.37 137.04 200.31 137.03 200.25 137.02 200.19 137.01 200.14 137 200.08 136.98 200.02 136.97 199.97 136.95 199.91 136.93 199.86 136.9 199.8 136.88 199.75 136.85 199.7 136.82 199.65 136.79 199.6 136.76 199.55 136.73 199.5 136.69 199.46 136.66 199.41 136.62 199.37 136.58 199.33 136.54 199.29 136.49 199.25 136.45 199.21 136.4 199.17 136.36 199.14 136.31 199.11 136.26 199.08 136.21 199.05 136.16 199.02 136.1 199 136.05 198.97 136 198.95 135.94 198.93 135.89 198.91 135.83 198.9 135.77 198.88 135.71 198.87 135.66 198.86 135.6 198.86 135.54 198.85 135.48 198.85 135.42 198.84 135.36" />
	<polygon class="st6" points="134.61 135.42 134.61 135.48 134.6 135.54 134.59 135.6 134.58 135.66 134.57 135.71 134.56 135.77 134.54 135.83 134.52 135.89 134.5 135.94 134.48 136 134.46 136.05 134.43 136.1 134.41 136.16 134.38 136.21 134.35 136.26 134.32 136.31 134.28 136.36 134.25 136.4 134.21 136.45 134.17 136.49 134.13 136.54 134.09 136.58 134.04 136.62 134 136.66 133.95 136.69 133.91 136.73 133.86 136.76 133.81 136.79 133.76 136.82 133.71 136.85 133.65 136.88 133.6 136.9 133.54 136.93 133.49 136.95 133.43 136.97 133.38 136.98 133.32 137 133.26 137.01 133.2 137.02 133.15 137.03 133.09 137.04 133.03 137.04 132.97 137.05 132.91 137.05 132.85 137.05 132.79 137.04 132.73 137.04 132.68 137.03 132.62 137.02 132.56 137.01 132.5 137 132.44 136.98 132.39 136.97 132.33 136.95 132.28 136.93 132.22 136.9 132.17 136.88 132.12 136.85 132.06 136.82 132.01 136.79 131.96 136.76 131.92 136.73 131.87 136.69 131.82 136.66 131.78 136.62 131.73 136.58 131.69 136.54 131.65 136.49 131.61 136.45 131.58 136.4 131.54 136.36 131.51 136.31 131.47 136.26 131.44 136.21 131.41 136.16 131.39 136.1 131.36 136.05 131.34 136 131.32 135.94 131.3 135.89 131.28 135.83 131.26 135.77 131.25 135.71 131.24 135.66 131.23 135.6 131.22 135.54 131.21 135.48 131.21 135.42 131.21 135.36 131.21 135.3 131.21 135.24 131.22 135.19 131.22 135.13 131.23 135.07 131.24 135.01 131.26 134.95 131.27 134.9 131.29 134.84 131.31 134.78 131.33 134.73 131.35 134.67 131.37 134.62 131.4 134.57 131.43 134.51 131.46 134.46 131.49 134.41 131.52 134.37 131.56 134.32 131.59 134.27 131.63 134.23 131.67 134.18 131.71 134.14 131.76 134.1 131.8 134.06 131.85 134.02 131.89 133.99 131.94 133.95 131.99 133.92 132.04 133.89 132.09 133.86 132.14 133.83 132.2 133.81 132.25 133.78 132.3 133.76 132.36 133.74 132.42 133.72 132.47 133.7 132.53 133.69 132.59 133.68 132.65 133.67 132.7 133.66 132.76 133.65 132.82 133.65 132.88 133.65 132.94 133.65 133 133.65 133.06 133.65 133.12 133.66 133.18 133.67 133.23 133.68 133.29 133.69 133.35 133.7 133.41 133.72 133.46 133.74 133.52 133.76 133.57 133.78 133.63 133.81 133.68 133.83 133.73 133.86 133.78 133.89 133.83 133.92 133.88 133.95 133.93 133.99 133.98 134.02 134.02 134.06 134.07 134.1 134.11 134.14 134.15 134.18 134.19 134.23 134.23 134.27 134.26 134.32 134.3 134.37 134.33 134.41 134.36 134.46 134.39 134.51 134.42 134.57 134.45 134.62 134.47 134.67 134.49 134.73 134.51 134.78 134.53 134.84 134.55 134.9 134.57 134.95 134.58 135.01 134.59 135.07 134.6 135.13 134.6 135.19 134.61 135.24 134.61 135.3 134.61 135.36" />
	<polygon class="st6" points="134.61 128.22 134.61 128.28 134.6 128.34 134.59 128.4 134.58 128.46 134.57 128.51 134.56 128.57 134.54 128.63 134.52 128.69 134.5 128.74 134.48 128.8 134.46 128.85 134.43 128.9 134.41 128.96 134.38 129.01 134.35 129.06 134.32 129.11 134.28 129.16 134.25 129.2 134.21 129.25 134.17 129.29 134.13 129.34 134.09 129.38 134.04 129.42 134 129.46 133.95 129.49 133.91 129.53 133.86 129.56 133.81 129.59 133.76 129.62 133.71 129.65 133.65 129.68 133.6 129.7 133.54 129.73 133.49 129.75 133.43 129.77 133.38 129.78 133.32 129.8 133.26 129.81 133.2 129.82 133.15 129.83 133.09 129.84 133.03 129.84 132.97 129.85 132.91 129.85 132.85 129.85 132.79 129.84 132.73 129.84 132.68 129.83 132.62 129.82 132.56 129.81 132.5 129.8 132.44 129.78 132.39 129.77 132.33 129.75 132.28 129.73 132.22 129.7 132.17 129.68 132.12 129.65 132.06 129.62 132.01 129.59 131.96 129.56 131.92 129.53 131.87 129.49 131.82 129.46 131.78 129.42 131.73 129.38 131.69 129.34 131.65 129.29 131.61 129.25 131.58 129.2 131.54 129.16 131.51 129.11 131.47 129.06 131.44 129.01 131.41 128.96 131.39 128.9 131.36 128.85 131.34 128.8 131.32 128.74 131.3 128.69 131.28 128.63 131.26 128.57 131.25 128.51 131.24 128.46 131.23 128.4 131.22 128.34 131.21 128.28 131.21 128.22 131.21 128.16 131.21 128.1 131.21 128.04 131.22 127.99 131.22 127.93 131.23 127.87 131.24 127.81 131.26 127.75 131.27 127.7 131.29 127.64 131.31 127.58 131.33 127.53 131.35 127.47 131.37 127.42 131.4 127.37 131.43 127.31 131.46 127.26 131.49 127.21 131.52 127.17 131.56 127.12 131.59 127.07 131.63 127.03 131.67 126.98 131.71 126.94 131.76 126.9 131.8 126.86 131.85 126.82 131.89 126.79 131.94 126.75 131.99 126.72 132.04 126.69 132.09 126.66 132.14 126.63 132.2 126.61 132.25 126.58 132.3 126.56 132.36 126.54 132.42 126.52 132.47 126.5 132.53 126.49 132.59 126.48 132.65 126.47 132.7 126.46 132.76 126.45 132.82 126.45 132.88 126.45 132.94 126.45 133 126.45 133.06 126.45 133.12 126.46 133.18 126.47 133.23 126.48 133.29 126.49 133.35 126.5 133.41 126.52 133.46 126.54 133.52 126.56 133.57 126.58 133.63 126.61 133.68 126.63 133.73 126.66 133.78 126.69 133.83 126.72 133.88 126.75 133.93 126.79 133.98 126.82 134.02 126.86 134.07 126.9 134.11 126.94 134.15 126.98 134.19 127.03 134.23 127.07 134.26 127.12 134.3 127.17 134.33 127.21 134.36 127.26 134.39 127.31 134.42 127.37 134.45 127.42 134.47 127.47 134.49 127.53 134.51 127.58 134.53 127.64 134.55 127.7 134.57 127.75 134.58 127.81 134.59 127.87 134.6 127.93 134.6 127.99 134.61 128.04 134.61 128.1 134.61 128.16" />
	<polygon class="st6" points="134.61 121.02 134.61 121.08 134.6 121.14 134.59 121.2 134.58 121.26 134.57 121.31 134.56 121.37 134.54 121.43 134.52 121.49 134.5 121.54 134.48 121.6 134.46 121.65 134.43 121.7 134.41 121.76 134.38 121.81 134.35 121.86 134.32 121.91 134.28 121.96 134.25 122 134.21 122.05 134.17 122.09 134.13 122.14 134.09 122.18 134.04 122.22 134 122.26 133.95 122.29 133.91 122.33 133.86 122.36 133.81 122.39 133.76 122.42 133.71 122.45 133.65 122.48 133.6 122.5 133.54 122.53 133.49 122.55 133.43 122.57 133.38 122.58 133.32 122.6 133.26 122.61 133.2 122.62 133.15 122.63 133.09 122.64 133.03 122.64 132.97 122.65 132.91 122.65 132.85 122.65 132.79 122.64 132.73 122.64 132.68 122.63 132.62 122.62 132.56 122.61 132.5 122.6 132.44 122.58 132.39 122.57 132.33 122.55 132.28 122.53 132.22 122.5 132.17 122.48 132.12 122.45 132.06 122.42 132.01 122.39 131.96 122.36 131.92 122.33 131.87 122.29 131.82 122.26 131.78 122.22 131.73 122.18 131.69 122.14 131.65 122.09 131.61 122.05 131.58 122 131.54 121.96 131.51 121.91 131.47 121.86 131.44 121.81 131.41 121.76 131.39 121.7 131.36 121.65 131.34 121.6 131.32 121.54 131.3 121.49 131.28 121.43 131.26 121.37 131.25 121.31 131.24 121.26 131.23 121.2 131.22 121.14 131.21 121.08 131.21 121.02 131.21 120.96 131.21 120.9 131.21 120.85 131.22 120.79 131.22 120.73 131.23 120.67 131.24 120.61 131.26 120.55 131.27 120.5 131.29 120.44 131.31 120.38 131.33 120.33 131.35 120.27 131.37 120.22 131.4 120.17 131.43 120.11 131.46 120.06 131.49 120.01 131.52 119.97 131.56 119.92 131.59 119.87 131.63 119.83 131.67 119.78 131.71 119.74 131.76 119.7 131.8 119.66 131.85 119.62 131.89 119.59 131.94 119.55 131.99 119.52 132.04 119.49 132.09 119.46 132.14 119.43 132.2 119.41 132.25 119.38 132.3 119.36 132.36 119.34 132.42 119.32 132.47 119.3 132.53 119.29 132.59 119.28 132.65 119.27 132.7 119.26 132.76 119.25 132.82 119.25 132.88 119.25 132.94 119.25 133 119.25 133.06 119.25 133.12 119.26 133.18 119.27 133.23 119.28 133.29 119.29 133.35 119.3 133.41 119.32 133.46 119.34 133.52 119.36 133.57 119.38 133.63 119.41 133.68 119.43 133.73 119.46 133.78 119.49 133.83 119.52 133.88 119.55 133.93 119.59 133.98 119.62 134.02 119.66 134.07 119.7 134.11 119.74 134.15 119.78 134.19 119.83 134.23 119.87 134.26 119.92 134.3 119.97 134.33 120.01 134.36 120.06 134.39 120.11 134.42 120.17 134.45 120.22 134.47 120.27 134.49 120.33 134.51 120.38 134.53 120.44 134.55 120.5 134.57 120.55 134.58 120.61 134.59 120.67 134.6 120.73 134.6 120.79 134.61 120.85 134.61 120.9 134.61 120.96" />
	<polygon class="st6" points="134.61 113.82 134.61 113.88 134.6 113.94 134.59 114 134.58 114.06 134.57 114.11 134.56 114.17 134.54 114.23 134.52 114.29 134.5 114.34 134.48 114.4 134.46 114.45 134.43 114.5 134.41 114.56 134.38 114.61 134.35 114.66 134.32 114.71 134.28 114.76 134.25 114.8 134.21 114.85 134.17 114.89 134.13 114.94 134.09 114.98 134.04 115.02 134 115.06 133.95 115.09 133.91 115.13 133.86 115.16 133.81 115.19 133.76 115.22 133.71 115.25 133.65 115.28 133.6 115.3 133.54 115.33 133.49 115.35 133.43 115.37 133.38 115.38 133.32 115.4 133.26 115.41 133.2 115.42 133.15 115.43 133.09 115.44 133.03 115.44 132.97 115.45 132.91 115.45 132.85 115.45 132.79 115.44 132.73 115.44 132.68 115.43 132.62 115.42 132.56 115.41 132.5 115.4 132.44 115.38 132.39 115.37 132.33 115.35 132.28 115.33 132.22 115.3 132.17 115.28 132.12 115.25 132.06 115.22 132.01 115.19 131.96 115.16 131.92 115.13 131.87 115.09 131.82 115.06 131.78 115.02 131.73 114.98 131.69 114.94 131.65 114.89 131.61 114.85 131.58 114.8 131.54 114.76 131.51 114.71 131.47 114.66 131.44 114.61 131.41 114.56 131.39 114.5 131.36 114.45 131.34 114.4 131.32 114.34 131.3 114.29 131.28 114.23 131.26 114.17 131.25 114.11 131.24 114.06 131.23 114 131.22 113.94 131.21 113.88 131.21 113.82 131.21 113.76 131.21 113.7 131.21 113.64 131.22 113.59 131.22 113.53 131.23 113.47 131.24 113.41 131.26 113.35 131.27 113.3 131.29 113.24 131.31 113.18 131.33 113.13 131.35 113.07 131.37 113.02 131.4 112.97 131.43 112.91 131.46 112.86 131.49 112.81 131.52 112.77 131.56 112.72 131.59 112.67 131.63 112.63 131.67 112.58 131.71 112.54 131.76 112.5 131.8 112.46 131.85 112.42 131.89 112.39 131.94 112.35 131.99 112.32 132.04 112.29 132.09 112.26 132.14 112.23 132.2 112.21 132.25 112.18 132.3 112.16 132.36 112.14 132.42 112.12 132.47 112.1 132.53 112.09 132.59 112.08 132.65 112.07 132.7 112.06 132.76 112.05 132.82 112.05 132.88 112.05 132.94 112.05 133 112.05 133.06 112.05 133.12 112.06 133.18 112.07 133.23 112.08 133.29 112.09 133.35 112.1 133.41 112.12 133.46 112.14 133.52 112.16 133.57 112.18 133.63 112.21 133.68 112.23 133.73 112.26 133.78 112.29 133.83 112.32 133.88 112.35 133.93 112.39 133.98 112.42 134.02 112.46 134.07 112.5 134.11 112.54 134.15 112.58 134.19 112.63 134.23 112.67 134.26 112.72 134.3 112.77 134.33 112.81 134.36 112.86 134.39 112.91 134.42 112.97 134.45 113.02 134.47 113.07 134.49 113.13 134.51 113.18 134.53 113.24 134.55 113.3 134.57 113.35 134.58 113.41 134.59 113.47 134.6 113.53 134.6 113.59 134.61 113.64 134.61 113.7 134.61 113.76" />
	<polygon class="st6" points="134.61 106.62 134.61 106.68 134.6 106.74 134.59 106.8 134.58 106.86 134.57 106.91 134.56 106.97 134.54 107.03 134.52 107.09 134.5 107.14 134.48 107.2 134.46 107.25 134.43 107.3 134.41 107.36 134.38 107.41 134.35 107.46 134.32 107.51 134.28 107.56 134.25 107.6 134.21 107.65 134.17 107.69 134.13 107.74 134.09 107.78 134.04 107.82 134 107.86 133.95 107.89 133.91 107.93 133.86 107.96 133.81 107.99 133.76 108.02 133.71 108.05 133.65 108.08 133.6 108.1 133.54 108.13 133.49 108.15 133.43 108.17 133.38 108.18 133.32 108.2 133.26 108.21 133.2 108.22 133.15 108.23 133.09 108.24 133.03 108.25 132.97 108.25 132.91 108.25 132.85 108.25 132.79 108.25 132.73 108.24 132.68 108.23 132.62 108.22 132.56 108.21 132.5 108.2 132.44 108.18 132.39 108.17 132.33 108.15 132.28 108.13 132.22 108.1 132.17 108.08 132.12 108.05 132.06 108.02 132.01 107.99 131.96 107.96 131.92 107.93 131.87 107.89 131.82 107.86 131.78 107.82 131.73 107.78 131.69 107.74 131.65 107.69 131.61 107.65 131.58 107.6 131.54 107.56 131.51 107.51 131.47 107.46 131.44 107.41 131.41 107.36 131.39 107.3 131.36 107.25 131.34 107.2 131.32 107.14 131.3 107.09 131.28 107.03 131.26 106.97 131.25 106.91 131.24 106.86 131.23 106.8 131.22 106.74 131.21 106.68 131.21 106.62 131.21 106.56 131.21 106.5 131.21 106.44 131.22 106.39 131.22 106.33 131.23 106.27 131.24 106.21 131.26 106.15 131.27 106.1 131.29 106.04 131.31 105.98 131.33 105.93 131.35 105.87 131.37 105.82 131.4 105.77 131.43 105.71 131.46 105.66 131.49 105.61 131.52 105.57 131.56 105.52 131.59 105.47 131.63 105.43 131.67 105.38 131.71 105.34 131.76 105.3 131.8 105.26 131.85 105.22 131.89 105.19 131.94 105.15 131.99 105.12 132.04 105.09 132.09 105.06 132.14 105.03 132.2 105 132.25 104.98 132.3 104.96 132.36 104.94 132.42 104.92 132.47 104.9 132.53 104.89 132.59 104.88 132.65 104.87 132.7 104.86 132.76 104.85 132.82 104.85 132.88 104.85 132.94 104.85 133 104.85 133.06 104.85 133.12 104.86 133.18 104.87 133.23 104.88 133.29 104.89 133.35 104.9 133.41 104.92 133.46 104.94 133.52 104.96 133.57 104.98 133.63 105 133.68 105.03 133.73 105.06 133.78 105.09 133.83 105.12 133.88 105.15 133.93 105.19 133.98 105.22 134.02 105.26 134.07 105.3 134.11 105.34 134.15 105.38 134.19 105.43 134.23 105.47 134.26 105.52 134.3 105.57 134.33 105.61 134.36 105.66 134.39 105.71 134.42 105.77 134.45 105.82 134.47 105.87 134.49 105.93 134.51 105.98 134.53 106.04 134.55 106.1 134.57 106.15 134.58 106.21 134.59 106.27 134.6 106.33 134.6 106.39 134.61 106.44 134.61 106.5 134.61 106.56" />
	<polygon class="st6" points="198.85 113.7 198.85 113.64 198.85 113.59 198.86 113.53 198.87 113.47 198.88 113.41 198.89 113.35 198.91 113.3 198.92 113.24 198.94 113.18 198.96 113.13 198.98 113.07 199.01 113.02 199.03 112.97 199.06 112.91 199.09 112.86 199.12 112.81 199.16 112.77 199.19 112.72 199.23 112.67 199.27 112.63 199.31 112.58 199.35 112.54 199.39 112.5 199.43 112.46 199.48 112.42 199.53 112.39 199.57 112.35 199.62 112.32 199.67 112.29 199.72 112.26 199.78 112.23 199.83 112.21 199.88 112.18 199.94 112.16 199.99 112.14 200.05 112.12 200.11 112.1 200.16 112.09 200.22 112.08 200.28 112.07 200.34 112.06 200.4 112.05 200.46 112.05 200.52 112.05 200.57 112.05 200.63 112.05 200.69 112.05 200.75 112.06 200.81 112.07 200.87 112.08 200.93 112.09 200.98 112.1 201.04 112.12 201.1 112.14 201.15 112.16 201.21 112.18 201.26 112.21 201.31 112.23 201.37 112.26 201.42 112.29 201.47 112.32 201.52 112.35 201.56 112.39 201.61 112.42 201.66 112.46 201.7 112.5 201.74 112.54 201.78 112.58 201.82 112.63 201.86 112.67 201.9 112.72 201.93 112.77 201.97 112.81 202 112.86 202.03 112.91 202.06 112.97 202.08 113.02 202.11 113.07 202.13 113.13 202.15 113.18 202.17 113.24 202.18 113.3 202.2 113.35 202.21 113.41 202.22 113.47 202.23 113.53 202.24 113.59 202.24 113.64 202.25 113.7 202.25 113.76 202.24 113.82 202.24 113.88 202.24 113.94 202.23 114 202.22 114.06 202.21 114.11 202.19 114.17 202.18 114.23 202.16 114.29 202.14 114.34 202.12 114.4 202.09 114.45 202.07 114.5 202.04 114.56 202.01 114.61 201.98 114.66 201.95 114.71 201.92 114.76 201.88 114.8 201.84 114.85 201.8 114.89 201.76 114.94 201.72 114.98 201.68 115.02 201.63 115.06 201.59 115.09 201.54 115.13 201.49 115.16 201.44 115.19 201.39 115.22 201.34 115.25 201.29 115.28 201.23 115.3 201.18 115.33 201.12 115.35 201.07 115.37 201.01 115.38 200.95 115.4 200.9 115.41 200.84 115.42 200.78 115.43 200.72 115.44 200.66 115.45 200.6 115.45 200.55 115.45 200.49 115.45 200.43 115.45 200.37 115.44 200.31 115.43 200.25 115.42 200.19 115.41 200.14 115.4 200.08 115.38 200.02 115.37 199.97 115.35 199.91 115.33 199.86 115.3 199.8 115.28 199.75 115.25 199.7 115.22 199.65 115.19 199.6 115.16 199.55 115.13 199.5 115.09 199.46 115.06 199.41 115.02 199.37 114.98 199.33 114.94 199.29 114.89 199.25 114.85 199.21 114.8 199.17 114.76 199.14 114.71 199.11 114.66 199.08 114.61 199.05 114.56 199.02 114.5 199 114.45 198.97 114.4 198.95 114.34 198.93 114.29 198.91 114.23 198.9 114.17 198.88 114.11 198.87 114.06 198.86 114 198.86 113.94 198.85 113.88 198.85 113.82 198.84 113.76" />
	<polygon class="st6" points="198.84 106.56 198.85 106.5 198.85 106.44 198.85 106.39 198.86 106.33 198.87 106.27 198.88 106.21 198.89 106.15 198.91 106.1 198.92 106.04 198.94 105.98 198.96 105.93 198.98 105.87 199.01 105.82 199.03 105.77 199.06 105.71 199.09 105.66 199.12 105.61 199.16 105.57 199.19 105.52 199.23 105.47 199.27 105.43 199.31 105.38 199.35 105.34 199.39 105.3 199.43 105.26 199.48 105.22 199.53 105.19 199.57 105.15 199.62 105.12 199.67 105.09 199.72 105.06 199.78 105.03 199.83 105.01 199.88 104.98 199.94 104.96 199.99 104.94 200.05 104.92 200.11 104.9 200.16 104.89 200.22 104.88 200.28 104.87 200.34 104.86 200.4 104.85 200.46 104.85 200.52 104.85 200.57 104.85 200.63 104.85 200.69 104.85 200.75 104.86 200.81 104.87 200.87 104.88 200.93 104.89 200.98 104.9 201.04 104.92 201.1 104.94 201.15 104.96 201.21 104.98 201.26 105.01 201.31 105.03 201.37 105.06 201.42 105.09 201.47 105.12 201.52 105.15 201.56 105.19 201.61 105.22 201.66 105.26 201.7 105.3 201.74 105.34 201.78 105.38 201.82 105.43 201.86 105.47 201.9 105.52 201.93 105.57 201.97 105.61 202 105.66 202.03 105.71 202.06 105.77 202.08 105.82 202.11 105.87 202.13 105.93 202.15 105.98 202.17 106.04 202.18 106.1 202.2 106.15 202.21 106.21 202.22 106.27 202.23 106.33 202.24 106.39 202.24 106.44 202.25 106.5 202.25 106.56 202.24 106.62 202.24 106.68 202.24 106.74 202.23 106.8 202.22 106.86 202.21 106.91 202.19 106.97 202.18 107.03 202.16 107.09 202.14 107.14 202.12 107.2 202.09 107.25 202.07 107.3 202.04 107.36 202.01 107.41 201.98 107.46 201.95 107.51 201.92 107.56 201.88 107.6 201.84 107.65 201.8 107.69 201.76 107.74 201.72 107.78 201.68 107.82 201.63 107.86 201.59 107.89 201.54 107.93 201.49 107.96 201.44 107.99 201.39 108.02 201.34 108.05 201.29 108.08 201.23 108.1 201.18 108.13 201.12 108.15 201.07 108.17 201.01 108.18 200.95 108.2 200.9 108.21 200.84 108.22 200.78 108.23 200.72 108.24 200.66 108.25 200.6 108.25 200.55 108.25 200.49 108.25 200.43 108.25 200.37 108.24 200.31 108.23 200.25 108.22 200.19 108.21 200.14 108.2 200.08 108.18 200.02 108.17 199.97 108.15 199.91 108.13 199.86 108.1 199.8 108.08 199.75 108.05 199.7 108.02 199.65 107.99 199.6 107.96 199.55 107.93 199.5 107.89 199.46 107.86 199.41 107.82 199.37 107.78 199.33 107.74 199.29 107.69 199.25 107.65 199.21 107.6 199.17 107.56 199.14 107.51 199.11 107.46 199.08 107.41 199.05 107.36 199.02 107.3 199 107.25 198.97 107.2 198.95 107.14 198.93 107.09 198.91 107.03 198.9 106.97 198.88 106.91 198.87 106.86 198.86 106.8 198.86 106.74 198.85 106.68 198.85 106.62" />
	<polygon class="st6" points="198.85 120.9 198.85 120.85 198.85 120.79 198.86 120.73 198.87 120.67 198.88 120.61 198.89 120.55 198.91 120.5 198.92 120.44 198.94 120.38 198.96 120.33 198.98 120.27 199.01 120.22 199.03 120.17 199.06 120.11 199.09 120.06 199.12 120.01 199.16 119.97 199.19 119.92 199.23 119.87 199.27 119.83 199.31 119.78 199.35 119.74 199.39 119.7 199.43 119.66 199.48 119.62 199.53 119.59 199.57 119.55 199.62 119.52 199.67 119.49 199.72 119.46 199.78 119.43 199.83 119.41 199.88 119.38 199.94 119.36 199.99 119.34 200.05 119.32 200.11 119.3 200.16 119.29 200.22 119.28 200.28 119.27 200.34 119.26 200.4 119.25 200.46 119.25 200.52 119.25 200.57 119.25 200.63 119.25 200.69 119.25 200.75 119.26 200.81 119.27 200.87 119.28 200.93 119.29 200.98 119.3 201.04 119.32 201.1 119.34 201.15 119.36 201.21 119.38 201.26 119.41 201.31 119.43 201.37 119.46 201.42 119.49 201.47 119.52 201.52 119.55 201.56 119.59 201.61 119.62 201.66 119.66 201.7 119.7 201.74 119.74 201.78 119.78 201.82 119.83 201.86 119.87 201.9 119.92 201.93 119.97 201.97 120.01 202 120.06 202.03 120.11 202.06 120.17 202.08 120.22 202.11 120.27 202.13 120.33 202.15 120.38 202.17 120.44 202.18 120.5 202.2 120.55 202.21 120.61 202.22 120.67 202.23 120.73 202.24 120.79 202.24 120.85 202.25 120.9 202.25 120.96 202.24 121.02 202.24 121.08 202.24 121.14 202.23 121.2 202.22 121.26 202.21 121.31 202.19 121.37 202.18 121.43 202.16 121.49 202.14 121.54 202.12 121.6 202.09 121.65 202.07 121.7 202.04 121.76 202.01 121.81 201.98 121.86 201.95 121.91 201.92 121.96 201.88 122 201.84 122.05 201.8 122.09 201.76 122.14 201.72 122.18 201.68 122.22 201.63 122.26 201.59 122.29 201.54 122.33 201.49 122.36 201.44 122.39 201.39 122.42 201.34 122.45 201.29 122.48 201.23 122.5 201.18 122.53 201.12 122.55 201.07 122.57 201.01 122.58 200.95 122.6 200.9 122.61 200.84 122.62 200.78 122.63 200.72 122.64 200.66 122.65 200.6 122.65 200.55 122.65 200.49 122.65 200.43 122.65 200.37 122.64 200.31 122.63 200.25 122.62 200.19 122.61 200.14 122.6 200.08 122.58 200.02 122.57 199.97 122.55 199.91 122.53 199.86 122.5 199.8 122.48 199.75 122.45 199.7 122.42 199.65 122.39 199.6 122.36 199.55 122.33 199.5 122.29 199.46 122.26 199.41 122.22 199.37 122.18 199.33 122.14 199.29 122.09 199.25 122.05 199.21 122 199.17 121.96 199.14 121.91 199.11 121.86 199.08 121.81 199.05 121.76 199.02 121.7 199 121.65 198.97 121.6 198.95 121.54 198.93 121.49 198.91 121.43 198.9 121.37 198.88 121.31 198.87 121.26 198.86 121.2 198.86 121.14 198.85 121.08 198.85 121.02 198.84 120.96" />
	<polygon class="st6" points="198.85 128.1 198.85 128.05 198.85 127.99 198.86 127.93 198.87 127.87 198.88 127.81 198.89 127.75 198.91 127.7 198.92 127.64 198.94 127.58 198.96 127.53 198.98 127.47 199.01 127.42 199.03 127.37 199.06 127.31 199.09 127.26 199.12 127.21 199.16 127.17 199.19 127.12 199.23 127.07 199.27 127.03 199.31 126.98 199.35 126.94 199.39 126.9 199.43 126.86 199.48 126.82 199.53 126.79 199.57 126.75 199.62 126.72 199.67 126.69 199.72 126.66 199.78 126.63 199.83 126.61 199.88 126.58 199.94 126.56 199.99 126.54 200.05 126.52 200.11 126.5 200.16 126.49 200.22 126.48 200.28 126.47 200.34 126.46 200.4 126.45 200.46 126.45 200.52 126.45 200.57 126.45 200.63 126.45 200.69 126.45 200.75 126.46 200.81 126.47 200.87 126.48 200.93 126.49 200.98 126.5 201.04 126.52 201.1 126.54 201.15 126.56 201.21 126.58 201.26 126.61 201.31 126.63 201.37 126.66 201.42 126.69 201.47 126.72 201.52 126.75 201.56 126.79 201.61 126.82 201.66 126.86 201.7 126.9 201.74 126.94 201.78 126.98 201.82 127.03 201.86 127.07 201.9 127.12 201.93 127.17 201.97 127.21 202 127.26 202.03 127.31 202.06 127.37 202.08 127.42 202.11 127.47 202.13 127.53 202.15 127.58 202.17 127.64 202.18 127.7 202.2 127.75 202.21 127.81 202.22 127.87 202.23 127.93 202.24 127.99 202.24 128.05 202.25 128.1 202.25 128.16 202.24 128.22 202.24 128.28 202.24 128.34 202.23 128.4 202.22 128.46 202.21 128.51 202.19 128.57 202.18 128.63 202.16 128.69 202.14 128.74 202.12 128.8 202.09 128.85 202.07 128.9 202.04 128.96 202.01 129.01 201.98 129.06 201.95 129.11 201.92 129.16 201.88 129.2 201.84 129.25 201.8 129.29 201.76 129.34 201.72 129.38 201.68 129.42 201.63 129.46 201.59 129.49 201.54 129.53 201.49 129.56 201.44 129.59 201.39 129.62 201.34 129.65 201.29 129.68 201.23 129.7 201.18 129.73 201.12 129.75 201.07 129.77 201.01 129.78 200.95 129.8 200.9 129.81 200.84 129.82 200.78 129.83 200.72 129.84 200.66 129.85 200.6 129.85 200.55 129.85 200.49 129.85 200.43 129.85 200.37 129.84 200.31 129.83 200.25 129.82 200.19 129.81 200.14 129.8 200.08 129.78 200.02 129.77 199.97 129.75 199.91 129.73 199.86 129.7 199.8 129.68 199.75 129.65 199.7 129.62 199.65 129.59 199.6 129.56 199.55 129.53 199.5 129.49 199.46 129.46 199.41 129.42 199.37 129.38 199.33 129.34 199.29 129.29 199.25 129.25 199.21 129.2 199.17 129.16 199.14 129.11 199.11 129.06 199.08 129.01 199.05 128.96 199.02 128.9 199 128.85 198.97 128.8 198.95 128.74 198.93 128.69 198.91 128.63 198.9 128.57 198.88 128.51 198.87 128.46 198.86 128.4 198.86 128.34 198.85 128.28 198.85 128.22 198.84 128.16" />
	<polygon class="st6" points="198.84 135.3 198.85 135.25 198.85 135.19 198.86 135.13 198.87 135.07 198.88 135.01 198.89 134.95 198.91 134.9 198.92 134.84 198.94 134.78 198.96 134.73 198.98 134.67 199.01 134.62 199.03 134.57 199.06 134.51 199.09 134.46 199.12 134.41 199.16 134.37 199.19 134.32 199.23 134.27 199.27 134.23 199.31 134.18 199.35 134.14 199.39 134.1 199.43 134.06 199.48 134.02 199.53 133.99 199.57 133.95 199.62 133.92 199.67 133.89 199.72 133.86 199.78 133.83 199.83 133.81 199.88 133.78 199.94 133.76 199.99 133.74 200.05 133.72 200.11 133.7 200.16 133.69 200.22 133.68 200.28 133.67 200.34 133.66 200.4 133.65 200.46 133.65 200.52 133.65 200.57 133.65 200.63 133.65 200.69 133.65 200.75 133.66 200.81 133.67 200.87 133.68 200.93 133.69 200.98 133.7 201.04 133.72 201.1 133.74 201.15 133.76 201.21 133.78 201.26 133.81 201.31 133.83 201.37 133.86 201.42 133.89 201.47 133.92 201.52 133.95 201.56 133.99 201.61 134.02 201.66 134.06 201.7 134.1 201.74 134.14 201.78 134.18 201.82 134.23 201.86 134.27 201.9 134.32 201.93 134.37 201.97 134.41 202 134.46 202.03 134.51 202.06 134.57 202.08 134.62 202.11 134.67 202.13 134.73 202.15 134.78 202.17 134.84 202.18 134.9 202.2 134.95 202.21 135.01 202.22 135.07 202.23 135.13 202.24 135.19 202.24 135.25 202.25 135.3 202.25 135.36 202.24 135.42 202.24 135.48 202.24 135.54 202.23 135.6 202.22 135.66 202.21 135.71 202.19 135.77 202.18 135.83 202.16 135.89 202.14 135.94 202.12 136 202.09 136.05 202.07 136.1 202.04 136.16 202.01 136.21 201.98 136.26 201.95 136.31 201.92 136.36 201.88 136.4 201.84 136.45 201.8 136.49 201.76 136.54 201.72 136.58 201.68 136.62 201.63 136.66 201.59 136.69 201.54 136.73 201.49 136.76 201.44 136.79 201.39 136.82 201.34 136.85 201.29 136.88 201.23 136.9 201.18 136.93 201.12 136.95 201.07 136.97 201.01 136.98 200.95 137 200.9 137.01 200.84 137.02 200.78 137.03 200.72 137.04 200.66 137.04 200.6 137.05 200.55 137.05 200.49 137.05 200.43 137.04 200.37 137.04 200.31 137.03 200.25 137.02 200.19 137.01 200.14 137 200.08 136.98 200.02 136.97 199.97 136.95 199.91 136.93 199.86 136.9 199.8 136.88 199.75 136.85 199.7 136.82 199.65 136.79 199.6 136.76 199.55 136.73 199.5 136.69 199.46 136.66 199.41 136.62 199.37 136.58 199.33 136.54 199.29 136.49 199.25 136.45 199.21 136.4 199.17 136.36 199.14 136.31 199.11 136.26 199.08 136.21 199.05 136.16 199.02 136.1 199 136.05 198.97 136 198.95 135.94 198.93 135.89 198.91 135.83 198.9 135.77 198.88 135.71 198.87 135.66 198.86 135.6 198.86 135.54 198.85 135.48 198.85 135.42 198.84 135.36" />
	<line class="st16" x1="200.54" x2="204.26" y1="106.55" y2="106.55" />
	<line class="st16" x1="200.54" x2="204.26" y1="113.75" y2="113.75" />
	<line class="st16" x1="200.54" x2="204.26" y1="120.95" y2="120.95" />
	<line class="st16" x1="200.54" x2="204.26" y1="128.15" y2="128.15" />
	<line class="st16" x1="200.54" x2="204.26" y1="135.35" y2="135.35" />
	<rect class="st17" x="204.26" y="101.67" width="26.81" height="38.55" />
	<line class="st16" x1="132.91" x2="104.45" y1="106.55" y2="106.55" />
	<line class="st16" x1="132.91" x2="104.45" y1="113.75" y2="113.75" />
	<line class="st16" x1="132.91" x2="104.45" y1="120.95" y2="120.95" />
	<line class="st16" x1="132.91" x2="104.45" y1="128.15" y2="128.15" />
	<line class="st16" x1="132.91" x2="104.45" y1="135.35" y2="135.35" />
	<rect class="st17" x="121.47" y="103.3" width="7.21" height="35.3" />
	<polygon class="st6" points="170.78 166.35 170.78 166.45 170.77 166.55 170.76 166.64 170.75 166.74 170.73 166.84 170.71 166.93 170.69 167.03 170.66 167.12 170.63 167.22 170.6 167.31 170.56 167.4 170.52 167.49 170.48 167.58 170.43 167.66 170.38 167.75 170.33 167.83 170.28 167.91 170.22 167.99 170.16 168.07 170.1 168.15 170.03 168.22 169.97 168.29 169.9 168.36 169.83 168.42 169.75 168.49 169.67 168.55 169.6 168.61 169.52 168.66 169.43 168.72 169.35 168.77 169.26 168.81 169.18 168.86 169.09 168.9 169 168.94 168.9 168.97 168.81 169 168.72 169.03 168.62 169.05 168.53 169.08 168.43 169.1 168.34 169.11 168.24 169.12 168.14 169.13 168.04 169.14 167.95 169.14 148.1 169.14 148.01 169.14 147.91 169.13 147.81 169.12 147.71 169.11 147.62 169.1 147.52 169.08 147.42 169.05 147.33 169.03 147.24 169 147.14 168.97 147.05 168.94 146.96 168.9 146.87 168.86 146.79 168.81 146.7 168.77 146.62 168.72 146.53 168.66 146.45 168.61 146.37 168.55 146.3 168.49 146.22 168.42 146.15 168.36 146.08 168.29 146.01 168.22 145.95 168.15 145.89 168.07 145.83 167.99 145.77 167.91 145.72 167.83 145.66 167.75 145.62 167.66 145.57 167.58 145.53 167.49 145.49 167.4 145.45 167.31 145.42 167.22 145.39 167.12 145.36 167.03 145.34 166.93 145.32 166.84 145.3 166.74 145.29 166.64 145.28 166.55 145.27 166.45 145.27 166.35 145.27 166.25 145.27 166.16 145.28 166.06 145.29 165.96 145.3 165.86 145.32 165.77 145.34 165.67 145.36 165.58 145.39 165.48 145.42 165.39 145.45 165.3 145.49 165.21 145.53 165.12 145.57 165.03 145.62 164.94 145.66 164.86 145.72 164.77 145.77 164.69 145.83 164.61 145.89 164.54 145.95 164.46 146.01 164.39 146.08 164.32 146.15 164.25 146.22 164.18 146.3 164.12 146.37 164.06 146.45 164 146.53 163.94 146.62 163.89 146.7 163.84 146.79 163.79 146.87 163.75 146.96 163.71 147.05 163.67 147.14 163.64 147.24 163.6 147.33 163.58 147.42 163.55 147.52 163.53 147.62 163.51 147.71 163.49 147.81 163.48 147.91 163.47 148.01 163.47 148.1 163.47 167.95 163.47 168.04 163.47 168.14 163.47 168.24 163.48 168.34 163.49 168.43 163.51 168.53 163.53 168.62 163.55 168.72 163.58 168.81 163.6 168.9 163.64 169 163.67 169.09 163.71 169.18 163.75 169.26 163.79 169.35 163.84 169.43 163.89 169.52 163.94 169.6 164 169.67 164.06 169.75 164.12 169.83 164.18 169.9 164.25 169.97 164.32 170.03 164.39 170.1 164.46 170.16 164.54 170.22 164.61 170.28 164.69 170.33 164.77 170.38 164.86 170.43 164.94 170.48 165.03 170.52 165.12 170.56 165.21 170.6 165.3 170.63 165.39 170.66 165.48 170.69 165.58 170.71 165.67 170.73 165.77 170.75 165.86 170.76 165.96 170.77 166.06 170.78 166.16 170.78 166.25" />
	<polygon class="st6" points="170.78 75.64 170.78 75.74 170.77 75.84 170.76 75.94 170.75 76.03 170.73 76.13 170.71 76.22 170.69 76.32 170.66 76.41 170.63 76.51 170.6 76.6 170.56 76.69 170.52 76.78 170.48 76.87 170.43 76.95 170.38 77.04 170.33 77.12 170.28 77.2 170.22 77.28 170.16 77.36 170.1 77.44 170.03 77.51 169.97 77.58 169.9 77.65 169.83 77.72 169.75 77.78 169.67 77.84 169.6 77.9 169.52 77.95 169.43 78.01 169.35 78.06 169.26 78.1 169.18 78.15 169.09 78.19 169 78.23 168.9 78.26 168.81 78.29 168.72 78.32 168.62 78.35 168.53 78.37 168.43 78.39 168.34 78.4 168.24 78.41 168.14 78.42 168.04 78.43 167.95 78.43 148.1 78.43 148.01 78.43 147.91 78.42 147.81 78.41 147.71 78.4 147.62 78.39 147.52 78.37 147.42 78.35 147.33 78.32 147.24 78.29 147.14 78.26 147.05 78.23 146.96 78.19 146.87 78.15 146.79 78.1 146.7 78.06 146.62 78.01 146.53 77.95 146.45 77.9 146.37 77.84 146.3 77.78 146.22 77.72 146.15 77.65 146.08 77.58 146.01 77.51 145.95 77.44 145.89 77.36 145.83 77.28 145.77 77.2 145.72 77.12 145.66 77.04 145.62 76.95 145.57 76.87 145.53 76.78 145.49 76.69 145.45 76.6 145.42 76.51 145.39 76.41 145.36 76.32 145.34 76.22 145.32 76.13 145.3 76.03 145.29 75.94 145.28 75.84 145.27 75.74 145.27 75.64 145.27 75.55 145.27 75.45 145.28 75.35 145.29 75.25 145.3 75.16 145.32 75.06 145.34 74.96 145.36 74.87 145.39 74.77 145.42 74.68 145.45 74.59 145.49 74.5 145.53 74.41 145.57 74.32 145.62 74.23 145.66 74.15 145.72 74.07 145.77 73.98 145.83 73.9 145.89 73.83 145.95 73.75 146.01 73.68 146.08 73.61 146.15 73.54 146.22 73.47 146.3 73.41 146.37 73.35 146.45 73.29 146.53 73.23 146.62 73.18 146.7 73.13 146.79 73.08 146.87 73.04 146.96 73 147.05 72.96 147.14 72.93 147.24 72.9 147.33 72.87 147.42 72.84 147.52 72.82 147.62 72.8 147.71 72.79 147.81 72.77 147.91 72.77 148.01 72.76 148.1 72.76 167.95 72.76 168.04 72.76 168.14 72.77 168.24 72.77 168.34 72.79 168.43 72.8 168.53 72.82 168.62 72.84 168.72 72.87 168.81 72.9 168.9 72.93 169 72.96 169.09 73 169.18 73.04 169.26 73.08 169.35 73.13 169.43 73.18 169.52 73.23 169.6 73.29 169.67 73.35 169.75 73.41 169.83 73.47 169.9 73.54 169.97 73.61 170.03 73.68 170.1 73.75 170.16 73.83 170.22 73.9 170.28 73.98 170.33 74.07 170.38 74.15 170.43 74.23 170.48 74.32 170.52 74.41 170.56 74.5 170.6 74.59 170.63 74.68 170.66 74.77 170.69 74.87 170.71 74.96 170.73 75.06 170.75 75.16 170.76 75.25 170.77 75.35 170.78 75.45 170.78 75.55" />
	<circle class="st19" cx="133.19" cy="120.95" r="115.26" />
	<g class="st8">
		<circle class="st23" cx="178.82" cy="95.14" r="13.56" />
		<circle class="st23" cx="160.28" cy="145.05" r="13.56" />
		<circle class="st12" cx="160.28" cy="145.05" r="12.03" />
		<circle class="st12" cx="178.82" cy="95.14" r="12.03" />
		<rect class="st12" x="148.8" y="115.32" width="2.94" height="7.53" />
		<rect class="st12" x="154.81" y="115.32" width="2.94" height="7.53" />
		<rect class="st12" x="160.77" y="115.32" width="2.94" height="7.53" />
		<rect class="st12" x="166.6" y="120.4" width="2.94" height="7.53" />
		<rect class="st12" x="172.6" y="125.05" width="2.94" height="7.53" />
		<rect class="st12" x="134.17" y="83.84" width="11.58" height="14.72" />
		<rect class="st12" x="183.44" y="138.72" width="11.58" height="14.72" />
		<g class="st9">
			<path class="st17" d="m122.41 166.98v0.83h0.76v0.4h-0.76v1.57c0 0.36 0.1 0.56 0.4 0.56 0.14 0 0.24-0.02 0.31-0.04l0.02 0.4c-0.1 0.04-0.26 0.07-0.47 0.07-0.25 0-0.44-0.08-0.57-0.22-0.15-0.16-0.2-0.41-0.2-0.76v-1.58h-0.45v-0.4h0.45v-0.7l0.51-0.13z" />
			<path class="st17" d="m126.35 169.24c0 1.07-0.74 1.54-1.45 1.54-0.79 0-1.39-0.58-1.39-1.49 0-0.97 0.64-1.54 1.44-1.54 0.84 0 1.4 0.6 1.4 1.49zm-2.3 0.03c0 0.64 0.37 1.12 0.88 1.12 0.5 0 0.88-0.47 0.88-1.13 0-0.49-0.25-1.12-0.87-1.12s-0.89 0.58-0.89 1.13z" />
			<path class="st17" d="m129.45 169.92c0 0.3 0.01 0.56 0.02 0.79h-0.47l-0.03-0.47h-0.01c-0.14 0.23-0.44 0.54-0.96 0.54-0.46 0-1-0.25-1-1.27v-1.7h0.53v1.61c0 0.55 0.17 0.92 0.65 0.92 0.35 0 0.6-0.25 0.7-0.48 0.03-0.08 0.05-0.17 0.05-0.27v-1.78h0.53v2.11z" />
			<path class="st17" d="m132.39 170.61c-0.14 0.07-0.44 0.17-0.83 0.17-0.88 0-1.45-0.59-1.45-1.48s0.61-1.54 1.56-1.54c0.31 0 0.59 0.08 0.73 0.15l-0.12 0.41c-0.13-0.07-0.32-0.14-0.61-0.14-0.67 0-1.03 0.49-1.03 1.1 0 0.67 0.43 1.09 1.01 1.09 0.3 0 0.5-0.08 0.65-0.14l0.09 0.38z" />
			<path class="st17" d="m133.01 166.46h0.53v1.81h0.01c0.08-0.15 0.22-0.28 0.38-0.37s0.34-0.15 0.54-0.15c0.39 0 1.01 0.24 1.01 1.24v1.73h-0.53v-1.67c0-0.47-0.17-0.86-0.67-0.86-0.34 0-0.61 0.24-0.71 0.53-0.03 0.07-0.04 0.15-0.04 0.25v1.75h-0.53v-4.26z" />
		</g>
		<g class="st9">
			<path class="st22" d="m124.21 161.43v2.37c0 0.31 0.25 0.56 0.56 0.56h7.39c0.31 0 0.56-0.25 0.56-0.56v-7.39c0-0.31-0.25-0.56-0.56-0.56h-7.39c-0.31 0-0.56 0.25-0.56 0.56v2.37" />
			<line class="st22" x1="126.48" x2="128.46" y1="161.25" y2="160.11" />
			<line class="st22" x1="126.48" x2="128.46" y1="158.97" y2="160.11" />
			<line class="st22" x1="128.46" x2="121.02" y1="160.11" y2="160.11" />
		</g>
	</g>
	<rect class="st26" x="156.63" y="117.64" width="6.56" height="11.11" />
	<rect class="st26" x="171.38" y="100.38" width="7.96" height="2.89" />
	<rect class="st26" x="171.38" y="125" width="7.96" height="2.89" />
	<rect class="st26" x="171.38" y="111.87" width="7.96" height="4.62" />
	<rect class="st26" x="171.38" y="134.36" width="7.96" height="2.89" />
	<circle class="st6" cx="159.91" cy="125.87" r="1.64" />
	<line class="st27" x1="158.95" x2="161.03" y1="119.99" y2="119.99" />
	<rect class="st28" x="154.77" y="115.94" width="10.28" height="14.51" />
	<path class="st22" d="m124.66 161.43v2.37c0 0.31 0.25 0.56 0.56 0.56h7.39c0.31 0 0.56-0.25 0.56-0.56v-7.39c0-0.31-0.25-0.56-0.56-0.56h-7.39c-0.31 0-0.56 0.25-0.56 0.56v2.37" />
	<line class="st22" x1="126.93" x2="128.91" y1="161.25" y2="160.11" />
	<line class="st22" x1="126.93" x2="128.91" y1="158.97" y2="160.11" />
	<line class="st22" x1="128.91" x2="121.47" y1="160.11" y2="160.11" />
	<path class="st17" d="m123.24 166.38h0.53v4.26h-0.53v-4.26z" />
	<path class="st17" d="m125.25 166.92c0.01 0.18-0.13 0.32-0.34 0.32-0.19 0-0.32-0.14-0.32-0.32 0-0.19 0.14-0.33 0.33-0.33 0.2 0 0.33 0.15 0.33 0.33zm-0.59 3.72v-2.9h0.53v2.9h-0.53z" />
	<path class="st17" d="m128.57 167.74c-0.01 0.21-0.02 0.44-0.02 0.8v1.68c0 0.67-0.13 1.07-0.41 1.33s-0.69 0.35-1.06 0.35c-0.35 0-0.73-0.08-0.97-0.24l0.13-0.4c0.19 0.12 0.49 0.23 0.85 0.23 0.54 0 0.94-0.28 0.94-1.01v-0.32h-0.01c-0.16 0.27-0.47 0.49-0.92 0.49-0.72 0-1.24-0.61-1.24-1.42 0-0.98 0.64-1.54 1.31-1.54 0.5 0 0.78 0.26 0.91 0.5h0.01l0.02-0.44h0.46zm-0.55 1.14c0-0.09-0.01-0.17-0.03-0.24-0.1-0.31-0.35-0.56-0.74-0.56-0.5 0-0.86 0.43-0.86 1.1 0 0.57 0.29 1.04 0.86 1.04 0.32 0 0.62-0.2 0.73-0.54 0.03-0.09 0.04-0.19 0.04-0.28v-0.52z" />
	<path class="st17" d="m129.42 166.38h0.53v1.81h0.01c0.08-0.15 0.22-0.28 0.38-0.37s0.34-0.15 0.54-0.15c0.39 0 1.01 0.24 1.01 1.24v1.73h-0.53v-1.67c0-0.47-0.17-0.86-0.67-0.86-0.34 0-0.61 0.24-0.71 0.53-0.03 0.07-0.04 0.15-0.04 0.25v1.75h-0.53v-4.26z" />
	<path class="st17" d="m133.36 166.9v0.83h0.76v0.4h-0.76v1.57c0 0.36 0.1 0.56 0.4 0.56 0.14 0 0.24-0.02 0.31-0.04l0.02 0.4c-0.1 0.04-0.26 0.07-0.47 0.07-0.25 0-0.44-0.08-0.57-0.22-0.15-0.16-0.2-0.41-0.2-0.76v-1.58h-0.45v-0.4h0.45v-0.7l0.51-0.13z" />
	<g class="st8">
		<g class="st9">
			<path class="st29" d="m160.26 112.71v7.08c0 0.92 0.75 1.67 1.67 1.67h22.06c0.92 0 1.67-0.75 1.67-1.67v-22.06c0-0.92-0.75-1.67-1.67-1.67h-22.06c-0.92 0-1.67 0.75-1.67 1.67v7.07" />
			<line class="st30" x1="167.05" x2="172.96" y1="112.17" y2="108.76" />
			<line class="st30" x1="167.05" x2="172.96" y1="105.34" y2="108.76" />
			<line class="st29" x1="172.96" x2="150.74" y1="108.76" y2="108.76" />
		</g>
		<g class="st9">
			<path class="st17" d="m156.05 127.49h1.58v12.71h-1.58v-12.71z" />
			<path class="st17" d="m162.03 129.1c0.02 0.54-0.38 0.97-1 0.97-0.55 0-0.95-0.43-0.95-0.97 0-0.56 0.41-0.99 0.98-0.99 0.6 0 0.97 0.43 0.97 0.99zm-1.75 11.1v-8.67h1.58v8.67h-1.58z" />
			<path class="st17" d="m171.94 131.53c-0.03 0.63-0.07 1.32-0.07 2.38v5.03c0 1.99-0.39 3.2-1.23 3.96-0.84 0.79-2.06 1.04-3.15 1.04-1.04 0-2.18-0.25-2.88-0.71l0.39-1.2c0.57 0.36 1.47 0.68 2.54 0.68 1.61 0 2.79-0.84 2.79-3.03v-0.97h-0.04c-0.48 0.81-1.41 1.45-2.76 1.45-2.15 0-3.69-1.83-3.69-4.23 0-2.94 1.92-4.6 3.9-4.6 1.5 0 2.33 0.79 2.7 1.5h0.04l0.07-1.31h1.39zm-1.63 3.42c0-0.27-0.02-0.5-0.09-0.72-0.29-0.91-1.06-1.67-2.2-1.67-1.5 0-2.58 1.27-2.58 3.28 0 1.7 0.86 3.11 2.56 3.11 0.97 0 1.84-0.61 2.18-1.61 0.09-0.27 0.13-0.57 0.13-0.84v-1.55z" />
			<path class="st17" d="m174.49 127.49h1.58v5.41h0.04c0.25-0.45 0.64-0.84 1.13-1.11 0.46-0.27 1.02-0.45 1.61-0.45 1.17 0 3.03 0.72 3.03 3.71v5.16h-1.57v-4.98c0-1.4-0.52-2.58-2.01-2.58-1.02 0-1.83 0.71-2.11 1.57-0.09 0.22-0.1 0.45-0.1 0.75v5.23h-1.58v-12.71z" />
			<path class="st17" d="m186.26 129.04v2.49h2.26v1.2h-2.26v4.67c0 1.07 0.31 1.68 1.18 1.68 0.41 0 0.72-0.05 0.92-0.11l0.07 1.18c-0.3 0.13-0.79 0.21-1.4 0.21-0.73 0-1.32-0.23-1.7-0.66-0.45-0.46-0.61-1.24-0.61-2.26v-4.73h-1.34v-1.2h1.34v-2.08l1.54-0.39z" />
		</g>
	</g>
</svg>