<?xml version="1.0" encoding="UTF-8"?>
<svg enable-background="new 0 0 134.8 134.8" version="1.1" viewBox="0 0 134.8 134.8" xml:space="preserve" xmlns="http://www.w3.org/2000/svg">
	<style type="text/css">
	.st0{fill:#E7EAEC;}
	.st1{fill:#D0D6DA;}
	.st2{fill:none;stroke:#D0D6DA;stroke-width:2;stroke-linecap:round;stroke-miterlimit:10;}
	.st3{display:none;}
	.st4{display:inline;fill:none;stroke:#B6C0C6;stroke-miterlimit:10;}
	.st5{display:inline;fill:#B6C0C6;}
	.st6{display:inline;fill:#D0D6DA;}
	.st7{display:inline;}
	.st8{fill:#B6C0C6;}
	.st9{fill:none;stroke:#B6C0C6;stroke-width:0.5;stroke-linecap:round;stroke-miterlimit:10;}
	.st10{display:inline;fill:#C9E6FA;stroke:#1C93D2;stroke-width:0.5;stroke-miterlimit:10;}
	.st11{fill:none;stroke:#B6C0C6;stroke-miterlimit:10;}
	.st12{fill:#C9E6F9;stroke:#0095DB;stroke-width:0.5;stroke-miterlimit:10;}
	.st13{display:inline;fill:#FFFFFF;}
	.st14{display:inline;fill:#FFFFFF;stroke:#FFFFFF;stroke-width:2;stroke-linecap:round;stroke-miterlimit:10;}
	.st15{display:inline;fill:none;stroke:#D0D6DA;stroke-miterlimit:10;}
</style>
	<path class="st0" d="m131.77 44.37v-0.08l-0.04-0.32-0.02-0.08-0.06-0.21-0.12-0.28-0.12-0.21-0.04-0.06-0.25-0.3-0.3-0.25-0.06-0.04-0.21-0.12-0.28-0.12-0.21-0.06-0.08-0.02-0.32-0.04h-0.08-0.08-12.47-0.08-0.08l-0.32-0.04-0.08-0.02-0.21-0.06-0.28-0.12-0.21-0.12-0.06-0.04-0.3-0.25-0.25-0.3-0.04-0.06-0.12-0.21-0.12-0.28-0.06-0.21-0.02-0.08-0.04-0.32v-0.08-0.08-19.47-0.29l-0.01-0.29-0.02-0.29-0.03-0.29-0.04-0.29-0.05-0.29-0.06-0.28-0.07-0.28-0.08-0.28-0.09-0.28-0.1-0.27-0.11-0.27-0.12-0.26-0.13-0.26-0.14-0.26-0.15-0.25-0.16-0.25-0.16-0.24-0.17-0.23-0.18-0.23-0.38-0.44-0.2-0.21-0.21-0.2-0.44-0.38-0.23-0.18-0.23-0.17-0.24-0.16-0.25-0.16-0.25-0.15-0.26-0.14-0.26-0.13-0.26-0.12-0.27-0.11-0.27-0.1-0.28-0.09-0.28-0.08-0.28-0.07-0.28-0.06-0.29-0.05-0.29-0.04-0.29-0.03-0.29-0.02-0.29-0.01h-0.29-90.45-0.29l-0.29 0.01-0.29 0.02-0.29 0.03-0.29 0.04-0.29 0.05-0.28 0.06-0.28 0.07-0.28 0.08-0.28 0.09-0.27 0.1-0.27 0.11-0.26 0.12-0.26 0.13-0.26 0.14-0.25 0.15-0.25 0.16-0.24 0.16-0.23 0.17-0.23 0.18-0.44 0.38-0.21 0.2-0.2 0.21-0.38 0.44-0.16 0.24-0.17 0.23-0.16 0.24-0.16 0.25-0.15 0.25-0.14 0.26-0.13 0.26-0.12 0.26-0.11 0.27-0.1 0.27-0.09 0.28-0.08 0.28-0.07 0.28-0.06 0.28-0.05 0.29-0.04 0.29-0.03 0.29-0.02 0.29-0.01 0.29v0.29 19.47 0.07 0.07l0.05 0.35 0.02 0.07 0.06 0.18 0.15 0.3v0.04l0.04 0.06 0.12 0.15 0.2 0.2 0.15 0.12 0.12 0.08 0.3 0.15 0.18 0.06 0.07 0.02 0.35 0.05h0.07 0.07 12.47 0.09 0.09l0.27 0.03 0.09 0.02 0.24 0.06 0.24 0.09 0.32 0.16 0.28 0.2 0.07 0.06 0.24 0.24 0.06 0.07 0.2 0.28 0.16 0.32 0.09 0.24 0.04 0.16 0.04 0.18 0.03 0.27v0.09 0.09 39.01 0.16l-0.02 0.32-0.02 0.16-0.06 0.32-0.08 0.32-0.1 0.32-0.06 0.16-0.06 0.15-0.14 0.3-0.16 0.28-0.18 0.28-0.2 0.26-0.11 0.13-0.22 0.24-14.44 14.44-0.27 0.3-0.24 0.33-0.07 0.11-0.07 0.12-0.18 0.36-0.1 0.26-0.08 0.26-0.09 0.39-0.04 0.26-0.02 0.28v0.14 7.05 0.29l0.01 0.29 0.02 0.29 0.03 0.29 0.04 0.29 0.05 0.29 0.06 0.28 0.07 0.28 0.08 0.28 0.13 0.26 0.1 0.27 0.11 0.27 0.12 0.26 0.13 0.26 0.14 0.26 0.15 0.25 0.16 0.25 0.16 0.24 0.17 0.23 0.18 0.23 0.38 0.44 0.2 0.21 0.21 0.2 0.44 0.38 0.23 0.18 0.23 0.17 0.24 0.16 0.25 0.16 0.25 0.15 0.26 0.14 0.26 0.13 0.26 0.12 0.27 0.11 0.27 0.1 0.28 0.09 0.28 0.08 0.28 0.07 0.28 0.06 0.29 0.05 0.29 0.04 0.29 0.03 0.29 0.02 0.29 0.01h0.29 90.43l0.58-0.02 0.29-0.02 0.29-0.03 0.29-0.04 0.29-0.05 0.28-0.06 0.28-0.07 0.28-0.08 0.28-0.09 0.27-0.1 0.27-0.11 0.26-0.12 0.26-0.13 0.26-0.14 0.25-0.15 0.25-0.16 0.24-0.16 0.23-0.17 0.23-0.18 0.44-0.38 0.21-0.2 0.2-0.21 0.38-0.44 0.18-0.23 0.17-0.23 0.16-0.24 0.16-0.25 0.15-0.25 0.14-0.26 0.13-0.26 0.12-0.26 0.11-0.27 0.1-0.27 0.09-0.28 0.08-0.28 0.07-0.28 0.06-0.28 0.05-0.29 0.04-0.29 0.03-0.29 0.02-0.29 0.01-0.29v-0.29-7.05-0.15l0.01-0.15 0.01-0.14 0.04-0.28 0.06-0.28 0.08-0.28 0.1-0.28 0.18-0.39 0.14-0.26 0.16-0.24 0.09-0.12 0.18-0.22 0.1-0.11 14.64-14.64 0.1-0.11 0.2-0.24 0.18-0.26 0.16-0.26 0.14-0.28 0.12-0.28 0.1-0.3 0.08-0.3 0.06-0.3 0.04-0.3 0.02-0.3v-0.15-39.01l0.02-0.08zm-111.69-23.75-0.02 0.3-0.04 0.3-0.06 0.28-0.08 0.28-0.1 0.28-0.06 0.14-0.06 0.13-0.14 0.26-0.08 0.13-0.08 0.12-0.18 0.24-0.09 0.11-0.2 0.22-0.1 0.1-0.22 0.2-0.24 0.18-0.24 0.16-0.13 0.08-0.26 0.14-0.13 0.06-0.14 0.06-0.28 0.1-0.15 0.04-0.14 0.04-0.28 0.06-0.3 0.04-0.3 0.02h-0.15-0.15l-0.3-0.02-0.3-0.04-0.28-0.06-0.28-0.08-0.28-0.1-0.14-0.06-0.13-0.06-0.26-0.14-0.13-0.08-0.24-0.16-0.24-0.18-0.1-0.1-0.11-0.1-0.1-0.1-0.2-0.22-0.09-0.11-0.18-0.24-0.08-0.12-0.08-0.13-0.14-0.26-0.06-0.13-0.06-0.14-0.1-0.28-0.08-0.28-0.06-0.28-0.04-0.3-0.02-0.3v-0.15-0.15l0.02-0.3 0.04-0.3 0.03-0.15 0.03-0.14 0.08-0.28 0.1-0.28 0.06-0.14 0.06-0.13 0.21-0.39 0.16-0.24 0.18-0.24 0.3-0.33 0.22-0.2 0.11-0.09 0.24-0.18 0.12-0.08 0.13-0.08 0.26-0.14 0.26-0.12 0.14-0.06 0.28-0.1 0.28-0.08 0.14-0.03 0.15-0.03 0.3-0.04 0.3-0.02h0.15l0.3 0.02 0.3 0.04 0.15 0.03 0.14 0.03 0.28 0.08 0.42 0.15 0.14 0.06 0.13 0.06 0.26 0.14 0.13 0.08 0.12 0.08 0.24 0.18 0.11 0.09 0.22 0.2 0.3 0.33 0.18 0.24 0.16 0.24 0.21 0.39 0.06 0.13 0.06 0.14 0.1 0.28 0.08 0.28-0.04 0.18 0.03 0.15 0.04 0.3 0.02 0.3v0.15l-0.01 0.12zm0 90.71-0.02 0.3-0.04 0.3-0.06 0.28-0.08 0.28-0.1 0.28-0.06 0.14-0.06 0.13-0.14 0.26-0.08 0.13-0.08 0.12-0.18 0.24-0.09 0.11-0.2 0.22-0.1 0.1-0.22 0.2-0.24 0.18-0.24 0.16-0.13 0.08-0.26 0.14-0.13 0.06-0.14 0.06-0.28 0.1-0.15 0.04-0.14 0.04-0.28 0.06-0.3 0.04-0.3 0.02h-0.15-0.15l-0.3-0.02-0.3-0.04-0.28-0.06-0.28-0.08-0.28-0.1-0.14-0.06-0.13-0.06-0.26-0.14-0.13-0.08-0.24-0.16-0.24-0.18-0.22-0.2-0.1-0.1-0.2-0.22-0.09-0.11-0.18-0.24-0.08-0.12-0.08-0.13-0.14-0.26-0.06-0.13-0.06-0.14-0.1-0.28-0.08-0.28-0.06-0.28-0.04-0.3-0.02-0.3v-0.15-0.15l0.02-0.3 0.04-0.3 0.03-0.15 0.03-0.14 0.08-0.28 0.1-0.28 0.06-0.14 0.06-0.13 0.21-0.39 0.16-0.24 0.18-0.24 0.3-0.33 0.22-0.2 0.11-0.09 0.24-0.18 0.12-0.08 0.13-0.08 0.26-0.14 0.13-0.06 0.14-0.06 0.42-0.15 0.28-0.08 0.14-0.03 0.15-0.03 0.3-0.04 0.3-0.02h0.15l0.3 0.02 0.3 0.04 0.15 0.03 0.14 0.03 0.28 0.08 0.42 0.15 0.26 0.12 0.26 0.14 0.13 0.08 0.12 0.08 0.24 0.18 0.11 0.09 0.22 0.2 0.3 0.33 0.18 0.24 0.16 0.24 0.21 0.39 0.06 0.13 0.06 0.14 0.1 0.28 0.08 0.28 0.03 0.14 0.03 0.15 0.04 0.3 0.02 0.3v0.15l-0.07 0.15zm17.41-31.06v0.06l-0.05 0.3-0.08 0.24-0.02 0.05-0.03 0.05-0.02 0.03-0.12 0.2-0.08 0.1-0.2 0.2-0.1 0.08-0.25 0.15-0.1 0.04-0.24 0.08-0.3 0.05h-0.06-0.06-0.06-0.06l-0.3-0.05-0.24-0.08-0.1-0.04-0.25-0.15-0.05-0.04-0.02-0.04-0.2-0.2-0.08-0.1-0.09-0.15-0.04-0.05-0.06-0.1-0.02-0.05-0.08-0.24-0.05-0.3v-0.06-0.06-0.06-0.06-0.06l0.05-0.3 0.06-0.18 0.04-0.1 0.18-0.3 0.08-0.1 0.16-0.16 0.1-0.08 0.3-0.18 0.1-0.04 0.18-0.06 0.3-0.05h0.06 0.06 0.06 0.06 0.06l0.07 0.05 0.24 0.04 0.18 0.06 0.1 0.04 0.3 0.18 0.1 0.08 0.16 0.16 0.08 0.1 0.18 0.3 0.04 0.1 0.06 0.18 0.05 0.3v0.06 0.06 0.06 0.04zm0-7.2v0.06l-0.05 0.3-0.06 0.18-0.04 0.1-0.15 0.25-0.03 0.04-0.08 0.1-0.2 0.2-0.1 0.08-0.25 0.15-0.1 0.04-0.24 0.08-0.3 0.05h-0.06-0.06-0.06-0.06l-0.3-0.05-0.24-0.08-0.1-0.04-0.25-0.15-0.05-0.04-0.01-0.04-0.2-0.2-0.08-0.1-0.18-0.3-0.04-0.1-0.06-0.18-0.05-0.3v-0.06-0.06-0.06-0.06-0.06l0.05-0.3 0.06-0.18 0.04-0.1 0.18-0.3 0.08-0.1 0.16-0.16 0.1-0.08 0.3-0.18 0.1-0.04 0.18-0.06 0.3-0.05h0.06 0.06 0.06 0.06 0.06l0.06 0.04 0.24 0.04 0.18 0.06 0.1 0.04 0.3 0.18 0.1 0.08 0.16 0.16 0.08 0.1 0.18 0.3 0.04 0.1 0.06 0.18 0.05 0.3v0.06 0.06 0.06 0.04zm0-7.2v0.06l-0.05 0.3-0.06 0.18-0.04 0.1-0.18 0.3-0.08 0.1-0.2 0.2-0.1 0.08-0.25 0.15-0.1 0.04-0.24 0.08-0.3 0.05h-0.06-0.06-0.06-0.06l-0.3-0.05-0.24-0.08-0.1-0.04-0.25-0.15-0.05-0.04-0.01-0.05-0.2-0.2-0.08-0.1-0.18-0.3-0.04-0.1-0.06-0.18-0.05-0.3v-0.06-0.06-0.06-0.06-0.06l0.05-0.3 0.06-0.18 0.04-0.1 0.18-0.3 0.04-0.05 0.2-0.2 0.1-0.08 0.3-0.18 0.1-0.04 0.18-0.06 0.3-0.05h0.06 0.06 0.06 0.06 0.06l0.06 0.03 0.24 0.04 0.18 0.06 0.1 0.04 0.3 0.18 0.1 0.08 0.2 0.2 0.04 0.05 0.18 0.3 0.04 0.1 0.06 0.18 0.05 0.3v0.06 0.06 0.06 0.05zm0-7.2v0.06l-0.05 0.3-0.06 0.18-0.04 0.1-0.18 0.3-0.08 0.1-0.2 0.2-0.1 0.08-0.25 0.15-0.1 0.04-0.24 0.08-0.3 0.05h-0.06-0.06-0.06-0.06l-0.3-0.05-0.24-0.08-0.1-0.04-0.25-0.15-0.05-0.04-0.01-0.05-0.2-0.2-0.08-0.1-0.18-0.3-0.04-0.1-0.06-0.18-0.05-0.3v-0.06-0.06-0.06-0.06-0.06l0.05-0.3 0.06-0.18 0.04-0.1 0.18-0.3 0.08-0.1 0.16-0.16 0.1-0.08 0.3-0.18 0.05-0.02h0.07l0.18-0.06 0.3-0.05h0.06 0.06 0.06 0.06 0.06l0.04 0.02 0.24 0.04 0.12 0.04 0.04 0.01 0.1 0.04 0.3 0.18 0.1 0.08 0.16 0.16 0.08 0.1 0.18 0.3 0.04 0.1 0.06 0.18 0.05 0.3v0.06 0.06 0.06l0.02 0.05zm0-7.2v0.06l-0.05 0.3-0.08 0.24-0.02 0.05-0.18 0.3-0.08 0.1-0.2 0.2-0.1 0.08-0.25 0.15-0.1 0.04-0.24 0.08-0.3 0.05h-0.06-0.06-0.06-0.06l-0.3-0.05-0.24-0.08-0.1-0.04-0.25-0.15-0.05-0.04-0.01-0.06-0.2-0.2-0.08-0.1-0.18-0.3-0.02-0.05-0.08-0.24-0.05-0.3v-0.06-0.06-0.06-0.06-0.06l0.03-0.18 0.01-0.03 0.01-0.06 0.06-0.18 0.04-0.1 0.18-0.3 0.08-0.1 0.16-0.16 0.1-0.08 0.06-0.02 0.25-0.15 0.1-0.04 0.18-0.06 0.3-0.05h0.06 0.06 0.06 0.06 0.06l0.05 0.01 0.24 0.04 0.18 0.06 0.1 0.04 0.2 0.12 0.04 0.03 0.05 0.03 0.1 0.08 0.16 0.16 0.08 0.1 0.18 0.3 0.04 0.1 0.06 0.18 0.01 0.05 0.04 0.24v0.06 0.06 0.06l0.01 0.05zm36.17 59.73v0.1l-0.03 0.3-0.06 0.3-0.09 0.27-0.12 0.27-0.1 0.18-0.1 0.16-0.18 0.24-0.06 0.07-0.21 0.21-0.07 0.06-0.24 0.18-0.16 0.1-0.09 0.05-0.27 0.12-0.36 0.12-0.3 0.06-0.3 0.03h-0.1-19.84-0.1l-0.3-0.03-0.3-0.06-0.36-0.12-0.27-0.12-0.09-0.05-0.16-0.1-0.24-0.18-0.07-0.06-0.21-0.21-0.06-0.07-0.18-0.24-0.1-0.16-0.1-0.18-0.12-0.27-0.09-0.27-0.06-0.3-0.03-0.3v-0.1-0.1-0.1l0.03-0.3 0.04-0.2 0.02-0.09 0.09-0.27 0.12-0.27 0.1-0.18 0.1-0.16 0.18-0.24 0.06-0.07 0.21-0.21 0.07-0.06 0.24-0.18 0.16-0.1 0.09-0.05 0.27-0.12 0.36-0.12 0.3-0.06 0.3-0.03h0.1 19.84 0.1l0.3 0.03 0.3 0.06 0.36 0.12 0.27 0.12 0.09 0.05 0.16 0.1 0.24 0.18 0.07 0.06 0.21 0.21 0.06 0.07 0.18 0.24 0.1 0.16 0.1 0.18 0.12 0.27 0.09 0.27 0.02 0.09 0.04 0.2 0.03 0.3v0.1 0.1zm0-90.71v0.1l-0.03 0.3-0.06 0.3-0.09 0.27-0.12 0.27-0.1 0.18-0.1 0.16-0.18 0.24-0.06 0.07-0.21 0.21-0.07 0.06-0.24 0.18-0.16 0.1-0.09 0.05-0.27 0.12-0.36 0.12-0.3 0.06-0.3 0.03h-0.1-19.84-0.1l-0.3-0.03-0.3-0.06-0.36-0.12-0.27-0.12-0.09-0.05-0.16-0.1-0.24-0.18-0.07-0.06-0.21-0.21-0.06-0.07-0.18-0.24-0.1-0.16-0.1-0.18-0.12-0.27-0.09-0.27-0.06-0.3-0.03-0.3v-0.1-0.1-0.1l0.03-0.3 0.06-0.3 0.09-0.27 0.12-0.27 0.1-0.18 0.1-0.16 0.18-0.24 0.06-0.07 0.21-0.21 0.07-0.06 0.24-0.18 0.16-0.1 0.09-0.05 0.27-0.12 0.36-0.12 0.3-0.06 0.3-0.03h0.1 19.84 0.1l0.3 0.03 0.3 0.06 0.36 0.12 0.27 0.12 0.09 0.05 0.16 0.1 0.24 0.18 0.07 0.06 0.21 0.21 0.06 0.07 0.18 0.24 0.1 0.16 0.1 0.18 0.12 0.27 0.09 0.27 0.06 0.3 0.03 0.3v0.1 0.1zm36.85 90.84-0.02 0.3-0.04 0.3-0.06 0.28-0.08 0.28-0.1 0.28-0.06 0.14-0.06 0.13-0.14 0.26-0.08 0.13-0.08 0.12-0.18 0.24-0.09 0.11-0.2 0.22-0.1 0.1-0.22 0.2-0.24 0.18-0.24 0.16-0.13 0.08-0.26 0.14-0.13 0.06-0.14 0.06-0.28 0.1-0.28 0.08-0.28 0.06-0.3 0.04-0.3 0.02h-0.15-0.15l-0.3-0.02-0.3-0.04-0.28-0.06-0.28-0.08-0.28-0.1-0.14-0.06-0.13-0.06-0.26-0.14-0.13-0.08-0.24-0.16-0.24-0.18-0.22-0.2-0.1-0.1-0.2-0.22-0.09-0.11-0.18-0.24-0.08-0.12-0.08-0.13-0.14-0.26-0.06-0.13-0.06-0.14-0.1-0.28-0.08-0.28-0.06-0.28-0.04-0.3-0.02-0.3v-0.15-0.15l0.02-0.3 0.04-0.3 0.03-0.15 0.03-0.14 0.08-0.28 0.1-0.28 0.06-0.14 0.06-0.13 0.21-0.39 0.16-0.24 0.18-0.24 0.3-0.33 0.22-0.2 0.11-0.09 0.24-0.18 0.12-0.08 0.13-0.08 0.26-0.14 0.13-0.06 0.14-0.06 0.42-0.15 0.28-0.08 0.14-0.03 0.15-0.03 0.3-0.04 0.3-0.02h0.15l0.3 0.02 0.3 0.04 0.15 0.03 0.14 0.03 0.28 0.08 0.42 0.15 0.26 0.12 0.26 0.14 0.13 0.08 0.12 0.08 0.24 0.18 0.11 0.09 0.22 0.2 0.3 0.33 0.18 0.24 0.16 0.24 0.21 0.39 0.06 0.13 0.06 0.14 0.1 0.28 0.08 0.28 0.03 0.14 0.03 0.15 0.04 0.3 0.02 0.3v0.15l-0.08 0.15zm-8.79-52.78v-0.06-0.06l0.05-0.3 0.06-0.18 0.04-0.1 0.18-0.3 0.08-0.1 0.16-0.16 0.1-0.08 0.3-0.18 0.1-0.04 0.18-0.06 0.3-0.05h0.06 0.06 0.06 0.06 0.06l0.3 0.05 0.18 0.06 0.1 0.04 0.3 0.18 0.1 0.08 0.16 0.16 0.08 0.1 0.18 0.3 0.04 0.1 0.06 0.18 0.05 0.3v0.06 0.06 0.06 0.06 0.06l-0.05 0.3-0.07 0.21-0.02 0.05-0.18 0.3-0.08 0.1-0.2 0.2-0.1 0.08-0.25 0.15-0.1 0.04-0.07 0.03-0.18 0.06-0.3 0.05h-0.06-0.06-0.06-0.06l-0.3-0.05-0.24-0.08-0.1-0.04-0.25-0.15-0.1-0.08-0.2-0.2-0.08-0.1-0.18-0.3-0.02-0.05-0.08-0.24-0.05-0.3v-0.06-0.06l0.04-0.04zm0-7.14v-0.06-0.06-0.06l0.05-0.3 0.06-0.18 0.04-0.1 0.18-0.3 0.08-0.1 0.16-0.16 0.1-0.08 0.3-0.18 0.1-0.04 0.18-0.06 0.3-0.05h0.06 0.06 0.06 0.06 0.06l0.3 0.05 0.18 0.06 0.1 0.04 0.3 0.18 0.1 0.08 0.16 0.16 0.08 0.1 0.18 0.3 0.04 0.1 0.06 0.18 0.05 0.3v0.06 0.06 0.06 0.06 0.06l-0.05 0.3-0.07 0.21-0.02 0.05-0.18 0.3-0.08 0.1-0.2 0.2-0.1 0.08-0.25 0.15-0.1 0.04-0.07 0.03-0.18 0.06-0.3 0.05h-0.06-0.06-0.06-0.06l-0.3-0.05-0.24-0.08-0.1-0.04-0.25-0.15-0.1-0.08-0.2-0.2-0.08-0.1-0.18-0.3-0.04-0.1-0.06-0.18-0.05-0.3v-0.06l0.04-0.05zm0 14.34v-0.06-0.06l0.05-0.3 0.06-0.18 0.04-0.1 0.18-0.3 0.08-0.1 0.16-0.16 0.1-0.08 0.3-0.18 0.1-0.04 0.18-0.06 0.3-0.05h0.06 0.06 0.06 0.06 0.06l0.3 0.05 0.18 0.06 0.1 0.04 0.3 0.18 0.1 0.08 0.16 0.16 0.08 0.1 0.18 0.3 0.04 0.1 0.06 0.18 0.05 0.3v0.06 0.06 0.06 0.06 0.06l-0.05 0.3-0.07 0.21-0.02 0.05-0.18 0.3-0.08 0.1-0.2 0.2-0.1 0.08-0.25 0.15-0.1 0.04-0.07 0.03-0.18 0.06-0.3 0.05h-0.06-0.06-0.06-0.06l-0.3-0.05-0.24-0.08-0.1-0.04-0.25-0.15-0.1-0.08-0.2-0.2-0.08-0.1-0.18-0.3-0.02-0.05-0.08-0.24-0.05-0.3v-0.06-0.06l0.04-0.04zm0 7.2v-0.06-0.06l0.05-0.3 0.06-0.18 0.04-0.1 0.18-0.3 0.08-0.1 0.16-0.16 0.1-0.08 0.3-0.18 0.1-0.04 0.18-0.06 0.3-0.05h0.06 0.06 0.06 0.06 0.06l0.3 0.05 0.18 0.06 0.1 0.04 0.3 0.18 0.1 0.08 0.16 0.16 0.08 0.1 0.18 0.3 0.04 0.1 0.06 0.18 0.05 0.3v0.06 0.06 0.06 0.06 0.06l-0.05 0.3-0.07 0.21-0.02 0.05-0.15 0.25-0.04 0.06-0.08 0.1-0.2 0.2-0.1 0.08-0.25 0.15-0.1 0.04-0.24 0.08-0.3 0.05h-0.06-0.06-0.06-0.06l-0.3-0.05-0.24-0.08-0.1-0.04-0.25-0.15-0.1-0.08-0.2-0.2-0.04-0.05v-0.05l-0.18-0.3-0.02-0.05-0.08-0.24-0.05-0.3v-0.06-0.06-0.04zm0 7.2v-0.06-0.06l0.05-0.3 0.06-0.18 0.04-0.1 0.18-0.3 0.04-0.05 0.2-0.2 0.1-0.08 0.3-0.18 0.1-0.04 0.18-0.06 0.3-0.05h0.06 0.06 0.06 0.06 0.06l0.3 0.05 0.18 0.06 0.1 0.04 0.3 0.18 0.1 0.08 0.2 0.2 0.04 0.05 0.18 0.3 0.04 0.1 0.06 0.18 0.05 0.3v0.06 0.06 0.06 0.06 0.06l-0.05 0.3-0.07 0.21-0.02 0.05-0.03 0.05-0.03 0.06-0.12 0.2-0.08 0.1-0.2 0.2-0.1 0.08-0.25 0.15-0.1 0.04-0.07 0.02-0.18 0.06-0.3 0.05h-0.06-0.06-0.06-0.06l-0.3-0.05-0.24-0.08-0.1-0.04-0.25-0.15-0.1-0.08-0.2-0.2-0.08-0.1-0.09-0.15 0.01-0.05-0.06-0.1-0.04-0.1-0.06-0.18-0.05-0.3v-0.06-0.06-0.05zm8.79-59.53-0.02 0.3-0.04 0.3-0.06 0.28-0.08 0.28-0.1 0.28-0.06 0.14-0.06 0.13-0.09 0.13-0.07 0.13-0.08 0.13-0.08 0.12-0.18 0.24-0.09 0.11-0.2 0.22-0.1 0.1-0.22 0.2-0.24 0.18-0.24 0.16-0.13 0.08-0.26 0.14-0.13 0.06-0.14 0.06-0.28 0.1-0.28 0.08-0.28 0.06-0.3 0.04-0.3 0.02h-0.15-0.15l-0.3-0.02-0.3-0.04-0.28-0.06-0.28-0.08-0.28-0.1-0.14-0.06-0.13-0.06-0.26-0.14-0.13-0.08-0.24-0.16-0.24-0.18-0.22-0.2-0.1-0.1-0.2-0.22-0.09-0.11-0.18-0.24-0.08-0.12-0.08-0.13-0.14-0.26-0.06-0.13-0.06-0.14-0.1-0.28-0.08-0.28-0.06-0.28-0.04-0.3-0.02-0.3v-0.15-0.15l0.02-0.3 0.04-0.3 0.03-0.15 0.03-0.14 0.08-0.28 0.1-0.28 0.06-0.14 0.06-0.13 0.21-0.39 0.16-0.24 0.18-0.24 0.3-0.33 0.22-0.2 0.11-0.09 0.24-0.18 0.12-0.08 0.13-0.08 0.26-0.14 0.26-0.12 0.42-0.15 0.28-0.08 0.14-0.03 0.15-0.03 0.3-0.04 0.3-0.02h0.15l0.3 0.02 0.3 0.04 0.15 0.03 0.14 0.03 0.28 0.08 0.42 0.15 0.26 0.12 0.26 0.14 0.13 0.08 0.12 0.08 0.24 0.18 0.11 0.09 0.22 0.2 0.3 0.33 0.18 0.24 0.16 0.24 0.21 0.39 0.06 0.13 0.06 0.14 0.1 0.28 0.08 0.28 0.03 0.14 0.03 0.15 0.04 0.3 0.02 0.3v0.15l-0.05 0.15z" />
	<rect class="st1" x="107.14" y="46.52" width="26.81" height="38.55" />
	<rect class="st1" x="24.35" y="48.14" width="7.21" height="35.3" />
	<line class="st2" x1="103.42" x2="107.14" y1="51.39" y2="51.39" />
	<line class="st2" x1="103.42" x2="107.14" y1="58.59" y2="58.59" />
	<line class="st2" x1="103.42" x2="107.14" y1="65.79" y2="65.79" />
	<line class="st2" x1="103.42" x2="107.14" y1="72.99" y2="72.99" />
	<line class="st2" x1="103.42" x2="107.14" y1="80.19" y2="80.19" />
	<line class="st2" x1="35.79" x2="7.33" y1="51.39" y2="51.39" />
	<line class="st2" x1="35.79" x2="7.33" y1="58.59" y2="58.59" />
	<line class="st2" x1="35.79" x2="7.33" y1="65.79" y2="65.79" />
	<line class="st2" x1="35.79" x2="7.33" y1="72.99" y2="72.99" />
	<line class="st2" x1="35.79" x2="7.33" y1="80.19" y2="80.19" />
	<g class="st3">
		<circle class="st4" cx="77.32" cy="39.98" r="13.56" />
		<circle class="st4" cx="58.79" cy="89.9" r="13.56" />
		<circle class="st5" cx="58.79" cy="89.9" r="12.03" />
		<circle class="st5" cx="77.32" cy="39.98" r="12.03" />
		<rect class="st6" x="51.31" y="60.16" width="2.94" height="7.53" />
		<rect class="st6" x="57.32" y="60.16" width="2.94" height="7.53" />
		<rect class="st6" x="63.28" y="60.16" width="2.94" height="7.53" />
		<rect class="st6" x="69.11" y="65.24" width="2.94" height="7.53" />
		<rect class="st6" x="75.11" y="69.89" width="2.94" height="7.53" />
		<rect class="st6" x="36.68" y="28.68" width="11.58" height="14.72" />
		<rect class="st6" x="85.95" y="83.56" width="11.58" height="14.72" />
		<g class="st7">
			<path class="st8" d="m24.92 111.82v0.83h0.76v0.4h-0.76v1.57c0 0.36 0.1 0.56 0.4 0.56 0.14 0 0.24-0.02 0.31-0.04l0.02 0.4c-0.1 0.04-0.26 0.07-0.47 0.07-0.25 0-0.44-0.08-0.57-0.22-0.15-0.16-0.2-0.41-0.2-0.76v-1.58h-0.45v-0.4h0.45v-0.7l0.51-0.13z" />
			<path class="st8" d="m28.86 114.08c0 1.07-0.74 1.54-1.45 1.54-0.79 0-1.39-0.58-1.39-1.49 0-0.97 0.64-1.54 1.44-1.54 0.84 0 1.4 0.61 1.4 1.49zm-2.3 0.03c0 0.64 0.37 1.12 0.88 1.12 0.5 0 0.88-0.47 0.88-1.13 0-0.49-0.25-1.12-0.87-1.12-0.62 0.01-0.89 0.58-0.89 1.13z" />
			<path class="st8" d="m31.95 114.77c0 0.3 0.01 0.56 0.02 0.79h-0.47l-0.03-0.47h-0.01c-0.14 0.23-0.44 0.54-0.96 0.54-0.46 0-1-0.25-1-1.27v-1.7h0.53v1.61c0 0.55 0.17 0.92 0.65 0.92 0.35 0 0.6-0.25 0.7-0.48 0.03-0.08 0.05-0.17 0.05-0.27v-1.78h0.53v2.11z" />
			<path class="st8" d="m34.9 115.45c-0.14 0.07-0.44 0.17-0.83 0.17-0.88 0-1.45-0.59-1.45-1.48s0.61-1.54 1.56-1.54c0.31 0 0.59 0.08 0.73 0.15l-0.12 0.41c-0.13-0.07-0.32-0.14-0.61-0.14-0.67 0-1.03 0.49-1.03 1.1 0 0.67 0.43 1.09 1.01 1.09 0.3 0 0.5-0.08 0.65-0.14l0.09 0.38z" />
			<path class="st8" d="m35.52 111.3h0.53v1.81h0.01c0.08-0.15 0.22-0.28 0.38-0.37s0.34-0.15 0.54-0.15c0.39 0 1.01 0.24 1.01 1.24v1.73h-0.53v-1.67c0-0.47-0.17-0.86-0.67-0.86-0.34 0-0.61 0.24-0.71 0.53-0.03 0.07-0.04 0.15-0.04 0.25v1.75h-0.53v-4.26z" />
		</g>
		<g class="st7">
			<path class="st9" d="m26.72 106.28v2.37c0 0.31 0.25 0.56 0.56 0.56h7.39c0.31 0 0.56-0.25 0.56-0.56v-7.39c0-0.31-0.25-0.56-0.56-0.56h-7.39c-0.31 0-0.56 0.25-0.56 0.56v2.37" />
			<line class="st9" x1="28.99" x2="30.97" y1="106.1" y2="104.96" />
			<line class="st9" x1="28.99" x2="30.97" y1="103.81" y2="104.96" />
			<line class="st9" x1="30.97" x2="23.53" y1="104.96" y2="104.96" />
		</g>
	</g>
	<g class="st3">
		<circle class="st4" cx="77.32" cy="39.98" r="13.56" />
		<circle class="st4" cx="58.79" cy="89.9" r="13.56" />
		<circle class="st5" cx="58.79" cy="89.9" r="12.03" />
		<circle class="st10" cx="77.32" cy="39.98" r="12.03" />
		<rect class="st6" x="51.31" y="60.16" width="2.94" height="7.53" />
		<rect class="st6" x="57.32" y="60.16" width="2.94" height="7.53" />
		<rect class="st6" x="63.28" y="60.16" width="2.94" height="7.53" />
		<rect class="st6" x="69.11" y="65.24" width="2.94" height="7.53" />
		<rect class="st6" x="75.11" y="69.89" width="2.94" height="7.53" />
		<rect class="st6" x="36.68" y="28.68" width="11.58" height="14.72" />
		<rect class="st6" x="85.95" y="83.56" width="11.58" height="14.72" />
		<g class="st7">
			<path class="st8" d="m24.92 111.82v0.83h0.76v0.4h-0.76v1.57c0 0.36 0.1 0.56 0.4 0.56 0.14 0 0.24-0.02 0.31-0.04l0.02 0.4c-0.1 0.04-0.26 0.07-0.47 0.07-0.25 0-0.44-0.08-0.57-0.22-0.15-0.16-0.2-0.41-0.2-0.76v-1.58h-0.45v-0.4h0.45v-0.7l0.51-0.13z" />
			<path class="st8" d="m28.86 114.08c0 1.07-0.74 1.54-1.45 1.54-0.79 0-1.39-0.58-1.39-1.49 0-0.97 0.64-1.54 1.44-1.54 0.84 0 1.4 0.61 1.4 1.49zm-2.3 0.03c0 0.64 0.37 1.12 0.88 1.12 0.5 0 0.88-0.47 0.88-1.13 0-0.49-0.25-1.12-0.87-1.12-0.62 0.01-0.89 0.58-0.89 1.13z" />
			<path class="st8" d="m31.95 114.77c0 0.3 0.01 0.56 0.02 0.79h-0.47l-0.03-0.47h-0.01c-0.14 0.23-0.44 0.54-0.96 0.54-0.46 0-1-0.25-1-1.27v-1.7h0.53v1.61c0 0.55 0.17 0.92 0.65 0.92 0.35 0 0.6-0.25 0.7-0.48 0.03-0.08 0.05-0.17 0.05-0.27v-1.78h0.53v2.11z" />
			<path class="st8" d="m34.9 115.45c-0.14 0.07-0.44 0.17-0.83 0.17-0.88 0-1.45-0.59-1.45-1.48s0.61-1.54 1.56-1.54c0.31 0 0.59 0.08 0.73 0.15l-0.12 0.41c-0.13-0.07-0.32-0.14-0.61-0.14-0.67 0-1.03 0.49-1.03 1.1 0 0.67 0.43 1.09 1.01 1.09 0.3 0 0.5-0.08 0.65-0.14l0.09 0.38z" />
			<path class="st8" d="m35.52 111.3h0.53v1.81h0.01c0.08-0.15 0.22-0.28 0.38-0.37s0.34-0.15 0.54-0.15c0.39 0 1.01 0.24 1.01 1.24v1.73h-0.53v-1.67c0-0.47-0.17-0.86-0.67-0.86-0.34 0-0.61 0.24-0.71 0.53-0.03 0.07-0.04 0.15-0.04 0.25v1.75h-0.53v-4.26z" />
		</g>
		<g class="st7">
			<path class="st9" d="m26.72 106.28v2.37c0 0.31 0.25 0.56 0.56 0.56h7.39c0.31 0 0.56-0.25 0.56-0.56v-7.39c0-0.31-0.25-0.56-0.56-0.56h-7.39c-0.31 0-0.56 0.25-0.56 0.56v2.37" />
			<line class="st9" x1="28.99" x2="30.97" y1="106.1" y2="104.96" />
			<line class="st9" x1="28.99" x2="30.97" y1="103.81" y2="104.96" />
			<line class="st9" x1="30.97" x2="23.53" y1="104.96" y2="104.96" />
		</g>
	</g>
	<circle class="st11" cx="77.32" cy="39.98" r="13.56" />
	<circle class="st11" cx="58.79" cy="89.9" r="13.56" />
	<circle class="st12" cx="58.79" cy="89.9" r="12.03" />
	<circle class="st8" cx="77.32" cy="39.98" r="12.03" />
	<rect class="st1" x="51.31" y="60.16" width="2.94" height="7.53" />
	<rect class="st1" x="57.32" y="60.16" width="2.94" height="7.53" />
	<rect class="st1" x="63.28" y="60.16" width="2.94" height="7.53" />
	<rect class="st1" x="69.11" y="65.24" width="2.94" height="7.53" />
	<rect class="st1" x="75.11" y="69.89" width="2.94" height="7.53" />
	<rect class="st1" x="36.68" y="28.68" width="11.58" height="14.72" />
	<rect class="st1" x="85.95" y="83.56" width="11.58" height="14.72" />
	<path class="st8" d="m24.92 111.82v0.83h0.76v0.4h-0.76v1.57c0 0.36 0.1 0.56 0.4 0.56 0.14 0 0.24-0.02 0.31-0.04l0.02 0.4c-0.1 0.04-0.26 0.07-0.47 0.07-0.25 0-0.44-0.08-0.57-0.22-0.15-0.16-0.2-0.41-0.2-0.76v-1.58h-0.45v-0.4h0.45v-0.7l0.51-0.13z" />
	<path class="st8" d="m28.86 114.08c0 1.07-0.74 1.54-1.45 1.54-0.79 0-1.39-0.58-1.39-1.49 0-0.97 0.64-1.54 1.44-1.54 0.84 0 1.4 0.61 1.4 1.49zm-2.3 0.03c0 0.64 0.37 1.12 0.88 1.12 0.5 0 0.88-0.47 0.88-1.13 0-0.49-0.25-1.12-0.87-1.12-0.62 0.01-0.89 0.58-0.89 1.13z" />
	<path class="st8" d="m31.95 114.77c0 0.3 0.01 0.56 0.02 0.79h-0.47l-0.03-0.47h-0.01c-0.14 0.23-0.44 0.54-0.96 0.54-0.46 0-1-0.25-1-1.27v-1.7h0.53v1.61c0 0.55 0.17 0.92 0.65 0.92 0.35 0 0.6-0.25 0.7-0.48 0.03-0.08 0.05-0.17 0.05-0.27v-1.78h0.53v2.11z" />
	<path class="st8" d="m34.9 115.45c-0.14 0.07-0.44 0.17-0.83 0.17-0.88 0-1.45-0.59-1.45-1.48s0.61-1.54 1.56-1.54c0.31 0 0.59 0.08 0.73 0.15l-0.12 0.41c-0.13-0.07-0.32-0.14-0.61-0.14-0.67 0-1.03 0.49-1.03 1.1 0 0.67 0.43 1.09 1.01 1.09 0.3 0 0.5-0.08 0.65-0.14l0.09 0.38z" />
	<path class="st8" d="m35.52 111.3h0.53v1.81h0.01c0.08-0.15 0.22-0.28 0.38-0.37s0.34-0.15 0.54-0.15c0.39 0 1.01 0.24 1.01 1.24v1.73h-0.53v-1.67c0-0.47-0.17-0.86-0.67-0.86-0.34 0-0.61 0.24-0.71 0.53-0.03 0.07-0.04 0.15-0.04 0.25v1.75h-0.53v-4.26z" />
	<path class="st9" d="m26.72 106.28v2.37c0 0.31 0.25 0.56 0.56 0.56h7.39c0.31 0 0.56-0.25 0.56-0.56v-7.39c0-0.31-0.25-0.56-0.56-0.56h-7.39c-0.31 0-0.56 0.25-0.56 0.56v2.37" />
	<line class="st9" x1="28.99" x2="30.97" y1="106.1" y2="104.96" />
	<line class="st9" x1="28.99" x2="30.97" y1="103.81" y2="104.96" />
	<line class="st9" x1="30.97" x2="23.53" y1="104.96" y2="104.96" />
	<g class="st3">
		<rect class="st6" x="58.83" y="62.48" width="6.56" height="11.11" />
		<rect class="st6" x="73.57" y="45.23" width="7.96" height="2.89" />
		<rect class="st6" x="73.57" y="69.85" width="7.96" height="2.89" />
		<rect class="st6" x="73.57" y="56.72" width="7.96" height="4.62" />
		<rect class="st6" x="73.57" y="79.21" width="7.96" height="2.89" />
		<circle class="st13" cx="62.1" cy="70.72" r="1.64" />
		<line class="st14" x1="61.14" x2="63.22" y1="64.83" y2="64.83" />
		<rect class="st15" x="56.96" y="60.78" width="10.28" height="14.51" />
		<g class="st7">
			<path class="st9" d="m26.85 106.28v2.37c0 0.31 0.25 0.56 0.56 0.56h7.39c0.31 0 0.56-0.25 0.56-0.56v-7.39c0-0.31-0.25-0.56-0.56-0.56h-7.39c-0.31 0-0.56 0.25-0.56 0.56v2.37" />
			<line class="st9" x1="29.12" x2="31.1" y1="106.1" y2="104.96" />
			<line class="st9" x1="29.12" x2="31.1" y1="103.81" y2="104.96" />
			<line class="st9" x1="31.1" x2="23.66" y1="104.96" y2="104.96" />
		</g>
		<g class="st7">
			<path class="st8" d="m25.44 111.23h0.53v4.26h-0.53v-4.26z" />
			<path class="st8" d="m27.44 111.77c0.01 0.18-0.13 0.32-0.34 0.32-0.19 0-0.32-0.14-0.32-0.32 0-0.19 0.14-0.33 0.33-0.33 0.2 0 0.33 0.14 0.33 0.33zm-0.59 3.72v-2.9h0.53v2.9h-0.53z" />
			<path class="st8" d="m30.76 112.58c-0.01 0.21-0.02 0.44-0.02 0.8v1.68c0 0.67-0.13 1.07-0.41 1.33s-0.69 0.35-1.06 0.35c-0.35 0-0.73-0.08-0.97-0.24l0.13-0.4c0.19 0.12 0.49 0.23 0.85 0.23 0.54 0 0.94-0.28 0.94-1.01v-0.32h-0.02c-0.16 0.27-0.47 0.49-0.92 0.49-0.72 0-1.24-0.61-1.24-1.42 0-0.98 0.64-1.54 1.31-1.54 0.5 0 0.78 0.26 0.91 0.5h0.01l0.02-0.44h0.47zm-0.55 1.15c0-0.09-0.01-0.17-0.03-0.24-0.1-0.31-0.35-0.56-0.74-0.56-0.5 0-0.86 0.43-0.86 1.1 0 0.57 0.29 1.04 0.86 1.04 0.32 0 0.62-0.2 0.73-0.54 0.03-0.09 0.04-0.19 0.04-0.28v-0.52z" />
			<path class="st8" d="m31.61 111.23h0.53v1.81h0.01c0.08-0.15 0.22-0.28 0.38-0.37s0.34-0.15 0.54-0.15c0.39 0 1.01 0.24 1.01 1.24v1.73h-0.53v-1.67c0-0.47-0.17-0.86-0.67-0.86-0.34 0-0.61 0.24-0.71 0.53-0.03 0.07-0.04 0.15-0.04 0.25v1.75h-0.53v-4.26z" />
			<path class="st8" d="m35.55 111.75v0.83h0.76v0.4h-0.76v1.57c0 0.36 0.1 0.56 0.4 0.56 0.14 0 0.24-0.02 0.31-0.04l0.02 0.4c-0.1 0.04-0.26 0.07-0.47 0.07-0.25 0-0.44-0.08-0.57-0.22-0.15-0.16-0.2-0.41-0.2-0.76v-1.58h-0.45v-0.4h0.45v-0.7l0.51-0.13z" />
		</g>
	</g>
	<g class="st3">
		<rect class="st10" x="58.83" y="62.48" width="6.56" height="11.11" />
		<rect class="st6" x="73.57" y="45.23" width="7.96" height="2.89" />
		<rect class="st6" x="73.57" y="69.85" width="7.96" height="2.89" />
		<rect class="st6" x="73.57" y="56.72" width="7.96" height="4.62" />
		<rect class="st6" x="73.57" y="79.21" width="7.96" height="2.89" />
		<circle class="st13" cx="62.1" cy="70.72" r="1.64" />
		<line class="st14" x1="61.14" x2="63.22" y1="64.83" y2="64.83" />
		<rect class="st15" x="56.96" y="60.78" width="10.28" height="14.51" />
		<g class="st7">
			<path class="st9" d="m26.85 106.28v2.37c0 0.31 0.25 0.56 0.56 0.56h7.39c0.31 0 0.56-0.25 0.56-0.56v-7.39c0-0.31-0.25-0.56-0.56-0.56h-7.39c-0.31 0-0.56 0.25-0.56 0.56v2.37" />
			<line class="st9" x1="29.12" x2="31.1" y1="106.1" y2="104.96" />
			<line class="st9" x1="29.12" x2="31.1" y1="103.81" y2="104.96" />
			<line class="st9" x1="31.1" x2="23.66" y1="104.96" y2="104.96" />
		</g>
		<g class="st7">
			<path class="st8" d="m25.44 111.23h0.53v4.26h-0.53v-4.26z" />
			<path class="st8" d="m27.44 111.77c0.01 0.18-0.13 0.32-0.34 0.32-0.19 0-0.32-0.14-0.32-0.32 0-0.19 0.14-0.33 0.33-0.33 0.2 0 0.33 0.14 0.33 0.33zm-0.59 3.72v-2.9h0.53v2.9h-0.53z" />
			<path class="st8" d="m30.76 112.58c-0.01 0.21-0.02 0.44-0.02 0.8v1.68c0 0.67-0.13 1.07-0.41 1.33s-0.69 0.35-1.06 0.35c-0.35 0-0.73-0.08-0.97-0.24l0.13-0.4c0.19 0.12 0.49 0.23 0.85 0.23 0.54 0 0.94-0.28 0.94-1.01v-0.32h-0.02c-0.16 0.27-0.47 0.49-0.92 0.49-0.72 0-1.24-0.61-1.24-1.42 0-0.98 0.64-1.54 1.31-1.54 0.5 0 0.78 0.26 0.91 0.5h0.01l0.02-0.44h0.47zm-0.55 1.15c0-0.09-0.01-0.17-0.03-0.24-0.1-0.31-0.35-0.56-0.74-0.56-0.5 0-0.86 0.43-0.86 1.1 0 0.57 0.29 1.04 0.86 1.04 0.32 0 0.62-0.2 0.73-0.54 0.03-0.09 0.04-0.19 0.04-0.28v-0.52z" />
			<path class="st8" d="m31.61 111.23h0.53v1.81h0.01c0.08-0.15 0.22-0.28 0.38-0.37s0.34-0.15 0.54-0.15c0.39 0 1.01 0.24 1.01 1.24v1.73h-0.53v-1.67c0-0.47-0.17-0.86-0.67-0.86-0.34 0-0.61 0.24-0.71 0.53-0.03 0.07-0.04 0.15-0.04 0.25v1.75h-0.53v-4.26z" />
			<path class="st8" d="m35.55 111.75v0.83h0.76v0.4h-0.76v1.57c0 0.36 0.1 0.56 0.4 0.56 0.14 0 0.24-0.02 0.31-0.04l0.02 0.4c-0.1 0.04-0.26 0.07-0.47 0.07-0.25 0-0.44-0.08-0.57-0.22-0.15-0.16-0.2-0.41-0.2-0.76v-1.58h-0.45v-0.4h0.45v-0.7l0.51-0.13z" />
		</g>
	</g>
</svg>